M48
; DRILL file {KiCad 5.99.0+really5.1.10+dfsg1-1} date Fri Jan 28 19:42:37 2022
; FORMAT={-:-/ absolute / metric / decimal}
; #@! TF.CreationDate,2022-01-28T19:42:37+02:00
; #@! TF.GenerationSoftware,Kicad,Pcbnew,5.99.0+really5.1.10+dfsg1-1
; #@! TF.FileFunction,Plated,1,2,PTH
FMAT,2
METRIC
T1C0.400
T2C1.000
%
G90
G05
T1
X100.33Y-50.292
X100.457Y-112.268
X100.518Y-95.976
X100.584Y-60.401
X100.584Y-73.025
X102.172Y-83.248
X102.194Y-119.634
X102.235Y-58.039
X102.54Y-62.687
X102.552Y-103.124
X102.87Y-58.737
X103.188Y-57.848
X104.14Y-67.564
X104.14Y-69.85
X104.14Y-87.884
X104.14Y-89.916
X104.14Y-108.204
X104.14Y-110.236
X105.727Y-89.217
X105.791Y-68.77
X105.791Y-109.41
X106.665Y-123.944
X107.696Y-49.276
X108.585Y-95.377
X108.908Y-54.663
X108.946Y-115.748
X109.029Y-75.438
X109.116Y-124.968
X109.22Y-82.804
X109.413Y-123.317
X109.474Y-62.509
X109.474Y-102.601
X110.236Y-49.276
X110.871Y-84.836
X110.998Y-105.156
X111.061Y-64.579
X112.014Y-130.302
X113.83Y-131.074
X114.3Y-49.276
X114.3Y-67.564
X114.3Y-69.85
X114.3Y-87.884
X114.3Y-89.916
X114.3Y-108.204
X114.3Y-110.236
X117.348Y-72.898
X117.602Y-92.964
X117.602Y-113.284
X118.669Y-116.192
X118.674Y-75.595
X119.085Y-95.458
X119.431Y-54.381
X119.52Y-123.19
X119.558Y-62.459
X119.725Y-103.027
X119.748Y-82.677
X121.285Y-60.706
X121.285Y-84.836
X121.412Y-64.516
X124.46Y-67.564
X124.46Y-87.884
X124.46Y-108.204
X124.46Y-128.753
X124.46Y-131.318
X124.714Y-49.276
X124.714Y-69.85
X124.714Y-89.916
X124.714Y-110.236
X128.549Y-75.374
X129.098Y-115.88
X129.134Y-95.504
X129.54Y-47.244
X129.54Y-54.254
X129.794Y-82.804
X129.997Y-62.205
X130.112Y-123.063
X130.175Y-102.565
X131.381Y-64.579
X131.445Y-84.836
X131.445Y-105.283
X132.08Y-131.318
X134.62Y-49.276
X134.62Y-67.564
X134.62Y-69.85
X134.62Y-87.884
X134.62Y-89.916
X134.62Y-108.204
X134.62Y-110.236
X134.62Y-128.575
X136.144Y-47.244
X136.804Y-78.903
X137.185Y-98.704
X138.064Y-79.67
X138.341Y-99.644
X139.466Y-115.799
X139.512Y-75.281
X139.68Y-54.224
X139.725Y-62.459
X139.751Y-95.047
X140.043Y-82.664
X140.282Y-102.522
X140.297Y-123.152
X141.478Y-105.283
X141.541Y-64.643
X141.605Y-84.963
X141.643Y-60.693
X144.018Y-47.244
X144.78Y-49.276
X144.78Y-67.564
X144.78Y-69.85
X144.78Y-87.884
X144.78Y-89.916
X144.78Y-108.204
X144.78Y-110.236
X144.78Y-128.549
X147.955Y-52.261
X148.082Y-113.284
X148.082Y-131.318
X149.161Y-75.349
X149.438Y-54.529
X149.54Y-95.334
X149.555Y-115.76
X149.949Y-62.573
X149.962Y-123.439
X150.277Y-82.652
X150.533Y-102.527
X151.638Y-64.77
X151.765Y-105.156
X151.828Y-84.836
X152.4Y-47.244
X154.686Y-67.564
X154.686Y-108.204
X154.94Y-49.276
X154.94Y-69.85
X154.94Y-87.884
X154.94Y-89.916
X154.94Y-110.236
X154.94Y-131.318
X154.965Y-128.829
X156.997Y-62.725
X158.052Y-52.197
X158.369Y-113.157
X159.004Y-75.438
X159.499Y-115.926
X159.88Y-95.263
X160.233Y-54.254
X160.312Y-123.33
X160.376Y-82.88
X160.617Y-78.702
X160.635Y-58.166
X160.655Y-102.527
X161.585Y-58.166
X161.607Y-78.702
X161.798Y-84.836
X161.798Y-105.156
X161.798Y-125.476
X163.576Y-131.318
X165.036Y-62.738
X165.075Y-128.397
X165.1Y-49.276
X165.1Y-67.564
X165.1Y-69.85
X165.1Y-87.884
X165.1Y-89.916
X165.1Y-108.204
X165.1Y-110.236
X167.432Y-98.781
X167.64Y-47.244
X167.843Y-120.04
X167.97Y-119.075
X168.084Y-52.324
X168.245Y-99.395
X168.566Y-55.79
X169.814Y-75.291
X169.926Y-95.25
X170.073Y-54.239
X170.414Y-82.804
X170.424Y-115.357
X170.434Y-61.976
X170.434Y-65.227
X170.449Y-102.972
X170.515Y-123.393
X171.45Y-74.105
X171.651Y-84.993
X173.609Y-64.262
X173.736Y-114.808
X173.927Y-104.648
X174.188Y-124.724
X174.689Y-84.01
X175.26Y-47.244
X175.26Y-49.276
X175.26Y-69.85
X175.26Y-87.884
X175.26Y-89.916
X175.26Y-108.204
X175.26Y-110.236
X175.26Y-128.524
X176.149Y-74.168
X176.403Y-124.841
X176.53Y-94.615
X176.657Y-114.554
X176.72Y-77.787
X176.741Y-83.759
X176.784Y-67.564
X176.86Y-104.343
X176.86Y-88.087
X177.292Y-54.102
X177.8Y-131.318
X178.054Y-71.247
X178.308Y-93.726
X178.308Y-113.157
X178.943Y-104.394
X179.07Y-65.202
X179.07Y-124.841
X179.197Y-63.627
X179.895Y-76.962
T2
X102.616Y-47.498
X102.616Y-130.302
X105.156Y-47.498
X105.156Y-130.302
X107.696Y-47.498
X107.696Y-130.302
X110.236Y-47.498
X110.236Y-130.302
T0
M30
