G04 #@! TF.GenerationSoftware,KiCad,Pcbnew,5.99.0+really5.1.10+dfsg1-1*
G04 #@! TF.CreationDate,2022-01-28T19:42:34+02:00*
G04 #@! TF.ProjectId,RGBmatrix,5247426d-6174-4726-9978-2e6b69636164,rev?*
G04 #@! TF.SameCoordinates,Original*
G04 #@! TF.FileFunction,Copper,L2,Bot*
G04 #@! TF.FilePolarity,Positive*
%FSLAX46Y46*%
G04 Gerber Fmt 4.6, Leading zero omitted, Abs format (unit mm)*
G04 Created by KiCad (PCBNEW 5.99.0+really5.1.10+dfsg1-1) date 2022-01-28 19:42:34*
%MOMM*%
%LPD*%
G01*
G04 APERTURE LIST*
G04 #@! TA.AperFunction,NonConductor*
%ADD10C,0.375000*%
G04 #@! TD*
G04 #@! TA.AperFunction,ComponentPad*
%ADD11O,1.700000X1.700000*%
G04 #@! TD*
G04 #@! TA.AperFunction,ComponentPad*
%ADD12R,1.700000X1.700000*%
G04 #@! TD*
G04 #@! TA.AperFunction,ViaPad*
%ADD13C,0.800000*%
G04 #@! TD*
G04 #@! TA.AperFunction,Conductor*
%ADD14C,1.000000*%
G04 #@! TD*
G04 #@! TA.AperFunction,Conductor*
%ADD15C,2.000000*%
G04 #@! TD*
G04 #@! TA.AperFunction,Conductor*
%ADD16C,0.254000*%
G04 #@! TD*
G04 #@! TA.AperFunction,Conductor*
%ADD17C,0.100000*%
G04 #@! TD*
G04 APERTURE END LIST*
D10*
X142867105Y-130906057D02*
X142652820Y-130977485D01*
X142581391Y-131048914D01*
X142509962Y-131191771D01*
X142509962Y-131406057D01*
X142581391Y-131548914D01*
X142652820Y-131620342D01*
X142795677Y-131691771D01*
X143367105Y-131691771D01*
X143367105Y-130191771D01*
X142867105Y-130191771D01*
X142724248Y-130263200D01*
X142652820Y-130334628D01*
X142581391Y-130477485D01*
X142581391Y-130620342D01*
X142652820Y-130763200D01*
X142724248Y-130834628D01*
X142867105Y-130906057D01*
X143367105Y-130906057D01*
X141581391Y-130191771D02*
X141295677Y-130191771D01*
X141152820Y-130263200D01*
X141009962Y-130406057D01*
X140938534Y-130691771D01*
X140938534Y-131191771D01*
X141009962Y-131477485D01*
X141152820Y-131620342D01*
X141295677Y-131691771D01*
X141581391Y-131691771D01*
X141724248Y-131620342D01*
X141867105Y-131477485D01*
X141938534Y-131191771D01*
X141938534Y-130691771D01*
X141867105Y-130406057D01*
X141724248Y-130263200D01*
X141581391Y-130191771D01*
X140509962Y-130191771D02*
X139652820Y-130191771D01*
X140081391Y-131691771D02*
X140081391Y-130191771D01*
X139367105Y-130191771D02*
X138509962Y-130191771D01*
X138938534Y-131691771D02*
X138938534Y-130191771D01*
X137724248Y-130191771D02*
X137438534Y-130191771D01*
X137295677Y-130263200D01*
X137152820Y-130406057D01*
X137081391Y-130691771D01*
X137081391Y-131191771D01*
X137152820Y-131477485D01*
X137295677Y-131620342D01*
X137438534Y-131691771D01*
X137724248Y-131691771D01*
X137867105Y-131620342D01*
X138009962Y-131477485D01*
X138081391Y-131191771D01*
X138081391Y-130691771D01*
X138009962Y-130406057D01*
X137867105Y-130263200D01*
X137724248Y-130191771D01*
X136438534Y-131691771D02*
X136438534Y-130191771D01*
X135938534Y-131263200D01*
X135438534Y-130191771D01*
X135438534Y-131691771D01*
D11*
X102616000Y-130302000D03*
X105156000Y-130302000D03*
X107696000Y-130302000D03*
D12*
X110236000Y-130302000D03*
D11*
X110236000Y-47498000D03*
X107696000Y-47498000D03*
X105156000Y-47498000D03*
D12*
X102616000Y-47498000D03*
D13*
X170515280Y-123393200D03*
X114300000Y-49276000D03*
X124714000Y-49276000D03*
X134620000Y-49276000D03*
X144780000Y-49276000D03*
X154940000Y-49276000D03*
X165100000Y-49276000D03*
X175260000Y-49276000D03*
X154686000Y-67564000D03*
X124460000Y-67564000D03*
X179070000Y-65201800D03*
X165100000Y-67564000D03*
X104140000Y-67564000D03*
X114300000Y-67564000D03*
X144780000Y-67564000D03*
X134620000Y-67564000D03*
X165100000Y-69850000D03*
X104140000Y-69850000D03*
X134620000Y-69850000D03*
X124714000Y-69850000D03*
X154940000Y-69850000D03*
X114300000Y-69850000D03*
X175260000Y-69850000D03*
X144780000Y-69850000D03*
X114300000Y-87884000D03*
X175260000Y-87884000D03*
X144780000Y-87884000D03*
X154940000Y-87884000D03*
X124460000Y-87884000D03*
X165100000Y-87884000D03*
X104140000Y-87884000D03*
X134620000Y-87884000D03*
X119430800Y-54381400D03*
X129540000Y-54254400D03*
X139679680Y-54223920D03*
X149438360Y-54528720D03*
X160233360Y-54254400D03*
X170073320Y-54239160D03*
X108907580Y-54663340D03*
X144780000Y-89916000D03*
X175260000Y-89916000D03*
X114300000Y-89916000D03*
X154940000Y-89916000D03*
X134620000Y-89916000D03*
X104140000Y-89916000D03*
X165100000Y-89916000D03*
X124714000Y-89916000D03*
X114300000Y-108204000D03*
X104140000Y-108204000D03*
X134620000Y-108204000D03*
X124460000Y-108204000D03*
X175260000Y-108204000D03*
X144780000Y-108204000D03*
X165100000Y-108204000D03*
X154686000Y-108204000D03*
X114300000Y-110236000D03*
X124714000Y-110236000D03*
X175260000Y-110236000D03*
X165100000Y-110236000D03*
X134620000Y-110236000D03*
X104140000Y-110236000D03*
X144780000Y-110236000D03*
X154940000Y-110236000D03*
X109474000Y-62509400D03*
X141643100Y-60693300D03*
X121285000Y-60706000D03*
X149948900Y-62572900D03*
X151638000Y-64770000D03*
X129997200Y-62204600D03*
X118673880Y-75595480D03*
X149161500Y-75349100D03*
X169814240Y-75290680D03*
X159004000Y-75438000D03*
X139512040Y-75280520D03*
X128549400Y-75374500D03*
X109220000Y-82804000D03*
X129794000Y-82804000D03*
X119748300Y-82677000D03*
X140042900Y-82664300D03*
X150276560Y-82651600D03*
X160375600Y-82880200D03*
X149539960Y-95333820D03*
X139750800Y-95046800D03*
X119085360Y-95458280D03*
X129133600Y-95504000D03*
X159880300Y-95262700D03*
X169926000Y-95250000D03*
X150533100Y-102527100D03*
X160655000Y-102527100D03*
X130175000Y-102565200D03*
X119725440Y-103027480D03*
X140281660Y-102522020D03*
X109474000Y-102600760D03*
X159499300Y-115925600D03*
X129098040Y-115879880D03*
X139466320Y-115798600D03*
X149555200Y-115760500D03*
X170423840Y-115356640D03*
X118668800Y-116192300D03*
X110236000Y-49276000D03*
X107696000Y-49276000D03*
X144018000Y-47244000D03*
X136144000Y-47244000D03*
X161798000Y-84836000D03*
X117602000Y-92964000D03*
X117602000Y-113284000D03*
X117348000Y-72898000D03*
X161798000Y-105156000D03*
X165036500Y-62738000D03*
X154940000Y-131318000D03*
X148082000Y-131318000D03*
X132080000Y-131318000D03*
X124460000Y-131318000D03*
X129540000Y-47244000D03*
X152400000Y-47244000D03*
X167640000Y-47244000D03*
X175260000Y-47244000D03*
X113830100Y-131074160D03*
X163576000Y-131318000D03*
X170434000Y-61976000D03*
X170413680Y-82804000D03*
X109029500Y-75438000D03*
X108585000Y-95377000D03*
X170449240Y-102971600D03*
X108945680Y-115747800D03*
X160312100Y-123329700D03*
X130111500Y-123063000D03*
X140296900Y-123151900D03*
X149961600Y-123438920D03*
X119519700Y-123190000D03*
X109413040Y-123317000D03*
X161798000Y-125476000D03*
X131445000Y-84836000D03*
X124460000Y-128752600D03*
X154965400Y-128828800D03*
X144780000Y-128549400D03*
X112014000Y-130302000D03*
X134620000Y-128574800D03*
X165074600Y-128397000D03*
X170434000Y-65227200D03*
X171650660Y-84993480D03*
X176740820Y-83759040D03*
X177800000Y-131318000D03*
X175260000Y-128524000D03*
X100584000Y-60401200D03*
X100330000Y-50292000D03*
X119557800Y-62458600D03*
X139725400Y-62458600D03*
X156997400Y-62725300D03*
X173736000Y-114808000D03*
X100517960Y-95976440D03*
X100584000Y-73025000D03*
X100457000Y-112268000D03*
X179070000Y-124841000D03*
X178943000Y-104394000D03*
X179197000Y-63627000D03*
X158369000Y-113157000D03*
X148082000Y-113284000D03*
X141478000Y-105283000D03*
X131445000Y-105283000D03*
X110998000Y-105156000D03*
X110871000Y-84836000D03*
X121285000Y-84836000D03*
X141605000Y-84963000D03*
X151828500Y-84836000D03*
X121412000Y-64516000D03*
X111061500Y-64579500D03*
X131381500Y-64579500D03*
X141541500Y-64643000D03*
X151765000Y-105156000D03*
X168084500Y-52324000D03*
X158051500Y-52197000D03*
X147955000Y-52260500D03*
X171450000Y-74104500D03*
X176720500Y-77787500D03*
X179895500Y-76962000D03*
X102235000Y-58039000D03*
X138064240Y-79669640D03*
X138341100Y-99644200D03*
X167431720Y-98780600D03*
X167843200Y-120040400D03*
X161584640Y-58166000D03*
X161607500Y-78701900D03*
X102194360Y-119634000D03*
X160634680Y-58166000D03*
X160616900Y-78701900D03*
X168244520Y-99395280D03*
X167970200Y-119075200D03*
X137185400Y-98704400D03*
X136804400Y-78902560D03*
X102870000Y-58737500D03*
X103187500Y-57848500D03*
X176784000Y-67564000D03*
X168566000Y-55790000D03*
X177292000Y-54102000D03*
X173609000Y-64262000D03*
X102540000Y-62687000D03*
X105791000Y-68770500D03*
X178054000Y-71247000D03*
X176860012Y-88087012D03*
X174688500Y-84010500D03*
X176149000Y-74168000D03*
X102171504Y-83248500D03*
X105727500Y-89217494D03*
X176860000Y-104343000D03*
X178308000Y-93726000D03*
X173926500Y-104648000D03*
X176530000Y-94615000D03*
X102552500Y-103124000D03*
X105791000Y-109410500D03*
X176403000Y-124841000D03*
X178308000Y-113157000D03*
X174188120Y-124724160D03*
X176657000Y-114554000D03*
X109115860Y-124968000D03*
X106664760Y-123944380D03*
D14*
X102616000Y-129499360D02*
X102616000Y-130556000D01*
X102194360Y-129077720D02*
X102616000Y-129499360D01*
X102194360Y-119634000D02*
X102194360Y-129077720D01*
D15*
X160972500Y-57404000D02*
X160972500Y-58420000D01*
X161118499Y-57549999D02*
X160972500Y-57404000D01*
X161118499Y-78848001D02*
X161118499Y-57549999D01*
X160718500Y-79248000D02*
X161118499Y-78848001D01*
X138036300Y-99174300D02*
X137922000Y-99060000D01*
X138036300Y-100139500D02*
X138036300Y-99174300D01*
X137522001Y-99625201D02*
X138036300Y-100139500D01*
X137522001Y-79706521D02*
X137522001Y-99625201D01*
X137038080Y-79222600D02*
X137522001Y-79706521D01*
X168402000Y-119634000D02*
X168002001Y-120033999D01*
X168402000Y-99568000D02*
X168402000Y-119634000D01*
X167894000Y-99060000D02*
X168402000Y-99568000D01*
X102616000Y-58419998D02*
X102616002Y-58420000D01*
X102616000Y-47498000D02*
X102616000Y-58419998D01*
D14*
X168566000Y-66966000D02*
X168566000Y-55790000D01*
X169164000Y-67564000D02*
X168656000Y-67056000D01*
X176784000Y-67564000D02*
X169164000Y-67564000D01*
X173990000Y-63881000D02*
X173609000Y-64262000D01*
X173990000Y-57404000D02*
X173990000Y-63881000D01*
X177292000Y-54102000D02*
X173990000Y-57404000D01*
X105791000Y-65938000D02*
X105791000Y-68770500D01*
X102540000Y-62687000D02*
X105791000Y-65938000D01*
X178054000Y-71247000D02*
X178453999Y-71646999D01*
X178453999Y-71646999D02*
X178453999Y-86493025D01*
X178453999Y-86493025D02*
X176860012Y-88087012D01*
X174688500Y-75628500D02*
X176149000Y-74168000D01*
X174688500Y-84010500D02*
X174688500Y-75628500D01*
X105727500Y-86804496D02*
X105727500Y-89217494D01*
X102171504Y-83248500D02*
X105727500Y-86804496D01*
X177292000Y-103911000D02*
X176860000Y-104343000D01*
X177394000Y-103911000D02*
X177292000Y-103911000D01*
X178308000Y-102997000D02*
X177394000Y-103911000D01*
X178308000Y-93726000D02*
X178308000Y-102997000D01*
X173926500Y-97218500D02*
X173926500Y-104648000D01*
X176530000Y-94615000D02*
X173926500Y-97218500D01*
X105791000Y-106362500D02*
X105791000Y-109410500D01*
X102552500Y-103124000D02*
X105791000Y-106362500D01*
X177145998Y-124841000D02*
X176403000Y-124841000D01*
X178308000Y-123678998D02*
X177145998Y-124841000D01*
X178308000Y-113157000D02*
X178308000Y-123678998D01*
X176657000Y-114808000D02*
X176657000Y-114554000D01*
X176657000Y-122255280D02*
X176657000Y-114808000D01*
X174188120Y-124724160D02*
X176657000Y-122255280D01*
X107696000Y-129286000D02*
X107696000Y-130556000D01*
X108712000Y-128270000D02*
X107696000Y-129286000D01*
X108712000Y-124968000D02*
X108712000Y-128270000D01*
X109115860Y-124968000D02*
X108712000Y-124968000D01*
X105156000Y-125222000D02*
X105156000Y-130556000D01*
X106433620Y-123944380D02*
X105156000Y-125222000D01*
X106664760Y-123944380D02*
X106433620Y-123944380D01*
D16*
X178916785Y-44944191D02*
X179258060Y-45047228D01*
X179572822Y-45214590D01*
X179849083Y-45439903D01*
X180076317Y-45714582D01*
X180245870Y-46028164D01*
X180351286Y-46368708D01*
X180391938Y-46755487D01*
X180138105Y-130863111D01*
X180099809Y-131253684D01*
X179996771Y-131594963D01*
X179829409Y-131909725D01*
X179604097Y-132185983D01*
X179329418Y-132413217D01*
X179015838Y-132582769D01*
X178675288Y-132688187D01*
X178287521Y-132728943D01*
X144546749Y-132801564D01*
X144546749Y-130222402D01*
X158736320Y-130222402D01*
X158736320Y-130554318D01*
X158801074Y-130879856D01*
X158928092Y-131186507D01*
X159112495Y-131462485D01*
X159347195Y-131697185D01*
X159623173Y-131881588D01*
X159929824Y-132008606D01*
X160255362Y-132073360D01*
X160587278Y-132073360D01*
X160912816Y-132008606D01*
X161219467Y-131881588D01*
X161495445Y-131697185D01*
X161730145Y-131462485D01*
X161914548Y-131186507D01*
X162041566Y-130879856D01*
X162106320Y-130554318D01*
X162106320Y-130222402D01*
X162041566Y-129896864D01*
X161914548Y-129590213D01*
X161730145Y-129314235D01*
X161495445Y-129079535D01*
X161219467Y-128895132D01*
X160912816Y-128768114D01*
X160587278Y-128703360D01*
X160255362Y-128703360D01*
X159929824Y-128768114D01*
X159623173Y-128895132D01*
X159347195Y-129079535D01*
X159112495Y-129314235D01*
X158928092Y-129590213D01*
X158801074Y-129896864D01*
X158736320Y-130222402D01*
X144546749Y-130222402D01*
X144546749Y-129204450D01*
X134258892Y-129204450D01*
X134258892Y-132823706D01*
X101633961Y-132893926D01*
X101245216Y-132855809D01*
X100903937Y-132752771D01*
X100589175Y-132585409D01*
X100312917Y-132360097D01*
X100085683Y-132085418D01*
X99916131Y-131771838D01*
X99810713Y-131431288D01*
X99770000Y-131043928D01*
X99770000Y-129077720D01*
X101053869Y-129077720D01*
X101075783Y-129300218D01*
X101140684Y-129514166D01*
X101140685Y-129514167D01*
X101246077Y-129711343D01*
X101250881Y-129717197D01*
X101188068Y-129868842D01*
X101131000Y-130155740D01*
X101131000Y-130448260D01*
X101188068Y-130735158D01*
X101300010Y-131005411D01*
X101462525Y-131248632D01*
X101669368Y-131455475D01*
X101912589Y-131617990D01*
X102182842Y-131729932D01*
X102469740Y-131787000D01*
X102762260Y-131787000D01*
X103049158Y-131729932D01*
X103319411Y-131617990D01*
X103562632Y-131455475D01*
X103769475Y-131248632D01*
X103886000Y-131074240D01*
X104002525Y-131248632D01*
X104209368Y-131455475D01*
X104452589Y-131617990D01*
X104722842Y-131729932D01*
X105009740Y-131787000D01*
X105302260Y-131787000D01*
X105589158Y-131729932D01*
X105859411Y-131617990D01*
X106102632Y-131455475D01*
X106309475Y-131248632D01*
X106426000Y-131074240D01*
X106542525Y-131248632D01*
X106749368Y-131455475D01*
X106992589Y-131617990D01*
X107262842Y-131729932D01*
X107549740Y-131787000D01*
X107842260Y-131787000D01*
X108129158Y-131729932D01*
X108399411Y-131617990D01*
X108642632Y-131455475D01*
X108774487Y-131323620D01*
X108796498Y-131396180D01*
X108855463Y-131506494D01*
X108934815Y-131603185D01*
X109031506Y-131682537D01*
X109141820Y-131741502D01*
X109261518Y-131777812D01*
X109386000Y-131790072D01*
X109950250Y-131787000D01*
X110109000Y-131628250D01*
X110109000Y-130429000D01*
X110363000Y-130429000D01*
X110363000Y-131628250D01*
X110521750Y-131787000D01*
X111086000Y-131790072D01*
X111210482Y-131777812D01*
X111330180Y-131741502D01*
X111440494Y-131682537D01*
X111537185Y-131603185D01*
X111616537Y-131506494D01*
X111675502Y-131396180D01*
X111711812Y-131276482D01*
X111724072Y-131152000D01*
X111721000Y-130587750D01*
X111562250Y-130429000D01*
X110363000Y-130429000D01*
X110109000Y-130429000D01*
X110089000Y-130429000D01*
X110089000Y-130222402D01*
X117842320Y-130222402D01*
X117842320Y-130554318D01*
X117907074Y-130879856D01*
X118034092Y-131186507D01*
X118218495Y-131462485D01*
X118453195Y-131697185D01*
X118729173Y-131881588D01*
X119035824Y-132008606D01*
X119361362Y-132073360D01*
X119693278Y-132073360D01*
X120018816Y-132008606D01*
X120325467Y-131881588D01*
X120601445Y-131697185D01*
X120836145Y-131462485D01*
X121020548Y-131186507D01*
X121147566Y-130879856D01*
X121212320Y-130554318D01*
X121212320Y-130222402D01*
X121147566Y-129896864D01*
X121020548Y-129590213D01*
X120836145Y-129314235D01*
X120601445Y-129079535D01*
X120325467Y-128895132D01*
X120018816Y-128768114D01*
X119693278Y-128703360D01*
X119361362Y-128703360D01*
X119035824Y-128768114D01*
X118729173Y-128895132D01*
X118453195Y-129079535D01*
X118218495Y-129314235D01*
X118034092Y-129590213D01*
X117907074Y-129896864D01*
X117842320Y-130222402D01*
X110089000Y-130222402D01*
X110089000Y-130175000D01*
X110109000Y-130175000D01*
X110109000Y-128975750D01*
X110363000Y-128975750D01*
X110363000Y-130175000D01*
X111562250Y-130175000D01*
X111721000Y-130016250D01*
X111724072Y-129452000D01*
X111711812Y-129327518D01*
X111675502Y-129207820D01*
X111616537Y-129097506D01*
X111537185Y-129000815D01*
X111440494Y-128921463D01*
X111330180Y-128862498D01*
X111210482Y-128826188D01*
X111086000Y-128813928D01*
X110521750Y-128817000D01*
X110363000Y-128975750D01*
X110109000Y-128975750D01*
X109950250Y-128817000D01*
X109707292Y-128815677D01*
X109765676Y-128706447D01*
X109830577Y-128492499D01*
X109847000Y-128325752D01*
X109852491Y-128270000D01*
X109847000Y-128214249D01*
X109847000Y-125836254D01*
X109922309Y-125774449D01*
X110064144Y-125601623D01*
X110169536Y-125404447D01*
X110234437Y-125190499D01*
X110256351Y-124968000D01*
X110234437Y-124745501D01*
X110227964Y-124724160D01*
X173047629Y-124724160D01*
X173069543Y-124946658D01*
X173134444Y-125160606D01*
X173239837Y-125357782D01*
X173381672Y-125530608D01*
X173554498Y-125672443D01*
X173751674Y-125777836D01*
X173965622Y-125842737D01*
X174188120Y-125864651D01*
X174410618Y-125842737D01*
X174624566Y-125777836D01*
X174821742Y-125672443D01*
X174951263Y-125566148D01*
X175323871Y-125193540D01*
X175349324Y-125277447D01*
X175454716Y-125474623D01*
X175596551Y-125647449D01*
X175769377Y-125789284D01*
X175966553Y-125894676D01*
X176180501Y-125959577D01*
X176347248Y-125976000D01*
X177090247Y-125976000D01*
X177145998Y-125981491D01*
X177201749Y-125976000D01*
X177201750Y-125976000D01*
X177368497Y-125959577D01*
X177582445Y-125894676D01*
X177779621Y-125789284D01*
X177952447Y-125647449D01*
X177987994Y-125604136D01*
X179071140Y-124520990D01*
X179114449Y-124485447D01*
X179256284Y-124312621D01*
X179361676Y-124115445D01*
X179426577Y-123901497D01*
X179443000Y-123734750D01*
X179448491Y-123678998D01*
X179443000Y-123623247D01*
X179443000Y-113101248D01*
X179426577Y-112934501D01*
X179361676Y-112720553D01*
X179256284Y-112523377D01*
X179114449Y-112350551D01*
X178941623Y-112208716D01*
X178744446Y-112103324D01*
X178530498Y-112038423D01*
X178308000Y-112016509D01*
X178085501Y-112038423D01*
X177871553Y-112103324D01*
X177674377Y-112208716D01*
X177501551Y-112350551D01*
X177359716Y-112523377D01*
X177254324Y-112720554D01*
X177189423Y-112934502D01*
X177173000Y-113101249D01*
X177173000Y-113542846D01*
X177093447Y-113500324D01*
X176879499Y-113435423D01*
X176657000Y-113413509D01*
X176434502Y-113435423D01*
X176220554Y-113500324D01*
X176023378Y-113605716D01*
X175850552Y-113747551D01*
X175708716Y-113920377D01*
X175603324Y-114117553D01*
X175538423Y-114331501D01*
X175522000Y-114498248D01*
X175522000Y-114863751D01*
X175522001Y-114863761D01*
X175522000Y-121785147D01*
X173346132Y-123961017D01*
X173239837Y-124090538D01*
X173134444Y-124287714D01*
X173069543Y-124501662D01*
X173047629Y-124724160D01*
X110227964Y-124724160D01*
X110169536Y-124531553D01*
X110064144Y-124334377D01*
X109922309Y-124161551D01*
X109749483Y-124019716D01*
X109552307Y-123914324D01*
X109338359Y-123849423D01*
X109171612Y-123833000D01*
X108767751Y-123833000D01*
X108712000Y-123827509D01*
X108656248Y-123833000D01*
X108489501Y-123849423D01*
X108275553Y-123914324D01*
X108078377Y-124019716D01*
X107905551Y-124161551D01*
X107763716Y-124334377D01*
X107658324Y-124531553D01*
X107593423Y-124745501D01*
X107571509Y-124968000D01*
X107577000Y-125023752D01*
X107577001Y-127799867D01*
X106932864Y-128444004D01*
X106889551Y-128479551D01*
X106747716Y-128652377D01*
X106654813Y-128826188D01*
X106642324Y-128849554D01*
X106577423Y-129063502D01*
X106555509Y-129286000D01*
X106560564Y-129337329D01*
X106542525Y-129355368D01*
X106426000Y-129529760D01*
X106309475Y-129355368D01*
X106291000Y-129336893D01*
X106291000Y-125692132D01*
X106934509Y-125048624D01*
X107101207Y-124998056D01*
X107298383Y-124892664D01*
X107471209Y-124750829D01*
X107613044Y-124578003D01*
X107718436Y-124380827D01*
X107783337Y-124166879D01*
X107805251Y-123944380D01*
X107783337Y-123721881D01*
X107718436Y-123507933D01*
X107613044Y-123310757D01*
X107471209Y-123137931D01*
X107298383Y-122996096D01*
X107101207Y-122890704D01*
X106887259Y-122825803D01*
X106720512Y-122809380D01*
X106489372Y-122809380D01*
X106433620Y-122803889D01*
X106211121Y-122825803D01*
X105997173Y-122890704D01*
X105799997Y-122996096D01*
X105670476Y-123102391D01*
X105670474Y-123102393D01*
X105627171Y-123137931D01*
X105591633Y-123181234D01*
X104392864Y-124380005D01*
X104349551Y-124415551D01*
X104207716Y-124588377D01*
X104120885Y-124750829D01*
X104102324Y-124785554D01*
X104037423Y-124999502D01*
X104015509Y-125222000D01*
X104021000Y-125277752D01*
X104021001Y-129336892D01*
X104002525Y-129355368D01*
X103886000Y-129529760D01*
X103769475Y-129355368D01*
X103739341Y-129325234D01*
X103734577Y-129276861D01*
X103674718Y-129079535D01*
X103669676Y-129062913D01*
X103564284Y-128865737D01*
X103422449Y-128692911D01*
X103379135Y-128657364D01*
X103329360Y-128607589D01*
X103329360Y-119578248D01*
X103312937Y-119411501D01*
X103248036Y-119197553D01*
X103142644Y-119000377D01*
X103000809Y-118827551D01*
X102827983Y-118685716D01*
X102630806Y-118580324D01*
X102416858Y-118515423D01*
X102194360Y-118493509D01*
X101971861Y-118515423D01*
X101757913Y-118580324D01*
X101560737Y-118685716D01*
X101387911Y-118827551D01*
X101246076Y-119000377D01*
X101140684Y-119197554D01*
X101075783Y-119411502D01*
X101059360Y-119578249D01*
X101059361Y-129021959D01*
X101053869Y-129077720D01*
X99770000Y-129077720D01*
X99770000Y-103124000D01*
X101412009Y-103124000D01*
X101433923Y-103346498D01*
X101498824Y-103560446D01*
X101604217Y-103757622D01*
X101710512Y-103887143D01*
X104656000Y-106832633D01*
X104656001Y-109466252D01*
X104672424Y-109632999D01*
X104737325Y-109846947D01*
X104842717Y-110044123D01*
X104984552Y-110216949D01*
X105157378Y-110358784D01*
X105354554Y-110464176D01*
X105568502Y-110529077D01*
X105791000Y-110550991D01*
X106013499Y-110529077D01*
X106227447Y-110464176D01*
X106424623Y-110358784D01*
X106597449Y-110216949D01*
X106739284Y-110044123D01*
X106844676Y-109846947D01*
X106909577Y-109632999D01*
X106926000Y-109466252D01*
X106926000Y-106418252D01*
X106931491Y-106362500D01*
X106909577Y-106140001D01*
X106844676Y-105926053D01*
X106739284Y-105728877D01*
X106632989Y-105599356D01*
X106632987Y-105599354D01*
X106597449Y-105556051D01*
X106554146Y-105520513D01*
X103315643Y-102282012D01*
X103186122Y-102175717D01*
X102988946Y-102070324D01*
X102774998Y-102005423D01*
X102552500Y-101983509D01*
X102330002Y-102005423D01*
X102116054Y-102070324D01*
X101918878Y-102175717D01*
X101746052Y-102317552D01*
X101604217Y-102490378D01*
X101498824Y-102687554D01*
X101433923Y-102901502D01*
X101412009Y-103124000D01*
X99770000Y-103124000D01*
X99770000Y-83248500D01*
X101031013Y-83248500D01*
X101052927Y-83470998D01*
X101117828Y-83684946D01*
X101223221Y-83882122D01*
X101329516Y-84011643D01*
X104592500Y-87274628D01*
X104592501Y-89273246D01*
X104608924Y-89439993D01*
X104673825Y-89653941D01*
X104779217Y-89851117D01*
X104921052Y-90023943D01*
X105093878Y-90165778D01*
X105291054Y-90271170D01*
X105505002Y-90336071D01*
X105727500Y-90357985D01*
X105949999Y-90336071D01*
X106163947Y-90271170D01*
X106361123Y-90165778D01*
X106533949Y-90023943D01*
X106675784Y-89851117D01*
X106781176Y-89653941D01*
X106846077Y-89439993D01*
X106862500Y-89273246D01*
X106862500Y-86860248D01*
X106867991Y-86804496D01*
X106846077Y-86581997D01*
X106781176Y-86368049D01*
X106675784Y-86170873D01*
X106581985Y-86056579D01*
X106533949Y-85998047D01*
X106490641Y-85962505D01*
X102934647Y-82406512D01*
X102805126Y-82300217D01*
X102607950Y-82194824D01*
X102394002Y-82129923D01*
X102171504Y-82108009D01*
X101949006Y-82129923D01*
X101735058Y-82194824D01*
X101537882Y-82300217D01*
X101365056Y-82442052D01*
X101223221Y-82614878D01*
X101117828Y-82812054D01*
X101052927Y-83026002D01*
X101031013Y-83248500D01*
X99770000Y-83248500D01*
X99770000Y-79222600D01*
X135395169Y-79222600D01*
X135426738Y-79543116D01*
X135520228Y-79851314D01*
X135672050Y-80135352D01*
X135825165Y-80321923D01*
X135887001Y-80383759D01*
X135887002Y-99544872D01*
X135879090Y-99625201D01*
X135910659Y-99945717D01*
X136004149Y-100253915D01*
X136107963Y-100448137D01*
X136155971Y-100537953D01*
X136360288Y-100786915D01*
X136422682Y-100838120D01*
X136823380Y-101238819D01*
X136874586Y-101301214D01*
X137123548Y-101505531D01*
X137407585Y-101657352D01*
X137561684Y-101704097D01*
X137715783Y-101750843D01*
X138036300Y-101782411D01*
X138356816Y-101750843D01*
X138665015Y-101657352D01*
X138816836Y-101576201D01*
X138949051Y-101505531D01*
X139198014Y-101301214D01*
X139402331Y-101052252D01*
X139554152Y-100768215D01*
X139647643Y-100460016D01*
X139671300Y-100219822D01*
X139671300Y-100219821D01*
X139679211Y-100139500D01*
X139671300Y-100059178D01*
X139671300Y-99254622D01*
X139679211Y-99174300D01*
X139667954Y-99060000D01*
X166251089Y-99060000D01*
X166282658Y-99380516D01*
X166376148Y-99688714D01*
X166527970Y-99972752D01*
X166681085Y-100159323D01*
X166767000Y-100245238D01*
X166767001Y-118961587D01*
X166635971Y-119121247D01*
X166484149Y-119405285D01*
X166390659Y-119713483D01*
X166359090Y-120033999D01*
X166390659Y-120354515D01*
X166484149Y-120662713D01*
X166635971Y-120946751D01*
X166840288Y-121195712D01*
X167089249Y-121400029D01*
X167373287Y-121551851D01*
X167681485Y-121645341D01*
X168002001Y-121676910D01*
X168322517Y-121645341D01*
X168630715Y-121551851D01*
X168914753Y-121400029D01*
X169101324Y-121246914D01*
X169501313Y-120846925D01*
X169563714Y-120795714D01*
X169768031Y-120546752D01*
X169919852Y-120262715D01*
X170013343Y-119954516D01*
X170037000Y-119714322D01*
X170037000Y-119714320D01*
X170044911Y-119634001D01*
X170037000Y-119553681D01*
X170037000Y-99648319D01*
X170044911Y-99567999D01*
X170026445Y-99380516D01*
X170013343Y-99247484D01*
X169919852Y-98939285D01*
X169768031Y-98655248D01*
X169563714Y-98406286D01*
X169501314Y-98355076D01*
X168993323Y-97847085D01*
X168806752Y-97693970D01*
X168522714Y-97542148D01*
X168214516Y-97448658D01*
X167894000Y-97417089D01*
X167573484Y-97448658D01*
X167265286Y-97542148D01*
X166981248Y-97693970D01*
X166732287Y-97898287D01*
X166527970Y-98147248D01*
X166376148Y-98431286D01*
X166282658Y-98739484D01*
X166251089Y-99060000D01*
X139667954Y-99060000D01*
X139647643Y-98853784D01*
X139633251Y-98806339D01*
X139554152Y-98545585D01*
X139402331Y-98261548D01*
X139198014Y-98012586D01*
X139157001Y-97978928D01*
X139157001Y-97218500D01*
X172786009Y-97218500D01*
X172791500Y-97274252D01*
X172791501Y-104703752D01*
X172807924Y-104870499D01*
X172872825Y-105084447D01*
X172978217Y-105281623D01*
X173120052Y-105454449D01*
X173292878Y-105596284D01*
X173490054Y-105701676D01*
X173704002Y-105766577D01*
X173926500Y-105788491D01*
X174148999Y-105766577D01*
X174362947Y-105701676D01*
X174560123Y-105596284D01*
X174732949Y-105454449D01*
X174874784Y-105281623D01*
X174980176Y-105084447D01*
X175045077Y-104870499D01*
X175061500Y-104703752D01*
X175061500Y-97688631D01*
X177173000Y-95577132D01*
X177173001Y-102526867D01*
X176827608Y-102872261D01*
X176658377Y-102962716D01*
X176485551Y-103104551D01*
X176450004Y-103147865D01*
X176018012Y-103579857D01*
X175911717Y-103709378D01*
X175806324Y-103906554D01*
X175741423Y-104120502D01*
X175719509Y-104343000D01*
X175741423Y-104565498D01*
X175806324Y-104779446D01*
X175911717Y-104976622D01*
X176053552Y-105149448D01*
X176226378Y-105291283D01*
X176423554Y-105396676D01*
X176637502Y-105461577D01*
X176860000Y-105483491D01*
X177082498Y-105461577D01*
X177296446Y-105396676D01*
X177493622Y-105291283D01*
X177623143Y-105184988D01*
X177858392Y-104949739D01*
X178027623Y-104859284D01*
X178200449Y-104717449D01*
X178235995Y-104674136D01*
X179071140Y-103838992D01*
X179114449Y-103803449D01*
X179256284Y-103630623D01*
X179361676Y-103433447D01*
X179411471Y-103269295D01*
X179426577Y-103219500D01*
X179433633Y-103147857D01*
X179443000Y-103052752D01*
X179443000Y-103052745D01*
X179448490Y-102997001D01*
X179443000Y-102941257D01*
X179443000Y-93670248D01*
X179426577Y-93503501D01*
X179361676Y-93289553D01*
X179256284Y-93092377D01*
X179114449Y-92919551D01*
X178941623Y-92777716D01*
X178744446Y-92672324D01*
X178530498Y-92607423D01*
X178308000Y-92585509D01*
X178085501Y-92607423D01*
X177871553Y-92672324D01*
X177674377Y-92777716D01*
X177501551Y-92919551D01*
X177359716Y-93092377D01*
X177254324Y-93289554D01*
X177189423Y-93503502D01*
X177173000Y-93670249D01*
X177173000Y-93674413D01*
X177163622Y-93666717D01*
X176966446Y-93561324D01*
X176752498Y-93496423D01*
X176529999Y-93474509D01*
X176307501Y-93496423D01*
X176093553Y-93561324D01*
X175896377Y-93666717D01*
X175766856Y-93773012D01*
X173163365Y-96376504D01*
X173120051Y-96412051D01*
X172978216Y-96584877D01*
X172872825Y-96782053D01*
X172872824Y-96782054D01*
X172807923Y-96996002D01*
X172786009Y-97218500D01*
X139157001Y-97218500D01*
X139157001Y-88087012D01*
X175719521Y-88087012D01*
X175741435Y-88309510D01*
X175806336Y-88523458D01*
X175911729Y-88720634D01*
X176053564Y-88893460D01*
X176226390Y-89035295D01*
X176423566Y-89140688D01*
X176637514Y-89205589D01*
X176860012Y-89227503D01*
X177082510Y-89205589D01*
X177296458Y-89140688D01*
X177493634Y-89035295D01*
X177623155Y-88929000D01*
X179217139Y-87335016D01*
X179260448Y-87299474D01*
X179402283Y-87126648D01*
X179507675Y-86929472D01*
X179572576Y-86715524D01*
X179588999Y-86548777D01*
X179594490Y-86493026D01*
X179588999Y-86437274D01*
X179588999Y-71702750D01*
X179594490Y-71646998D01*
X179572576Y-71424500D01*
X179507675Y-71210553D01*
X179507675Y-71210552D01*
X179402283Y-71013376D01*
X179260448Y-70840550D01*
X179217134Y-70805003D01*
X178817143Y-70405012D01*
X178687622Y-70298717D01*
X178490446Y-70193324D01*
X178276498Y-70128423D01*
X178054000Y-70106509D01*
X177831502Y-70128423D01*
X177617554Y-70193324D01*
X177420378Y-70298717D01*
X177247552Y-70440552D01*
X177105717Y-70613378D01*
X177000324Y-70810554D01*
X176935423Y-71024502D01*
X176913509Y-71247000D01*
X176935423Y-71469498D01*
X177000324Y-71683446D01*
X177105717Y-71880622D01*
X177212012Y-72010143D01*
X177318999Y-72117130D01*
X177319000Y-86022892D01*
X176018024Y-87323869D01*
X175911729Y-87453390D01*
X175806336Y-87650566D01*
X175741435Y-87864514D01*
X175719521Y-88087012D01*
X139157001Y-88087012D01*
X139157001Y-79786843D01*
X139164912Y-79706521D01*
X139133344Y-79386004D01*
X139091481Y-79248000D01*
X159075589Y-79248000D01*
X159107158Y-79568516D01*
X159200648Y-79876714D01*
X159352470Y-80160752D01*
X159556787Y-80409713D01*
X159805748Y-80614030D01*
X160089786Y-80765852D01*
X160397984Y-80859342D01*
X160718500Y-80890911D01*
X161039016Y-80859342D01*
X161347214Y-80765852D01*
X161631252Y-80614030D01*
X161817823Y-80460915D01*
X162217813Y-80060925D01*
X162280213Y-80009715D01*
X162484530Y-79760753D01*
X162636351Y-79476716D01*
X162729842Y-79168517D01*
X162753499Y-78928323D01*
X162753499Y-78928321D01*
X162761410Y-78848002D01*
X162753499Y-78767682D01*
X162753499Y-75628500D01*
X173548009Y-75628500D01*
X173553501Y-75684261D01*
X173553500Y-84066251D01*
X173569923Y-84232998D01*
X173634824Y-84446946D01*
X173740216Y-84644123D01*
X173882051Y-84816949D01*
X174054877Y-84958784D01*
X174252053Y-85064176D01*
X174466001Y-85129077D01*
X174688500Y-85150991D01*
X174910998Y-85129077D01*
X175124946Y-85064176D01*
X175322123Y-84958784D01*
X175494949Y-84816949D01*
X175636784Y-84644123D01*
X175742176Y-84446947D01*
X175807077Y-84232999D01*
X175823500Y-84066252D01*
X175823500Y-76098631D01*
X176990988Y-74931144D01*
X177097283Y-74801623D01*
X177202676Y-74604447D01*
X177267577Y-74390499D01*
X177289491Y-74168000D01*
X177267577Y-73945502D01*
X177202676Y-73731554D01*
X177097283Y-73534378D01*
X176955448Y-73361552D01*
X176782622Y-73219717D01*
X176585446Y-73114324D01*
X176371498Y-73049423D01*
X176149000Y-73027509D01*
X175926501Y-73049423D01*
X175712553Y-73114324D01*
X175515377Y-73219717D01*
X175385856Y-73326012D01*
X173925360Y-74786509D01*
X173882052Y-74822051D01*
X173740217Y-74994877D01*
X173691936Y-75085205D01*
X173634824Y-75192054D01*
X173569923Y-75406002D01*
X173548009Y-75628500D01*
X162753499Y-75628500D01*
X162753499Y-67021751D01*
X167431000Y-67021751D01*
X167447423Y-67188498D01*
X167512324Y-67402446D01*
X167617716Y-67599623D01*
X167759551Y-67772449D01*
X167808987Y-67813021D01*
X167814012Y-67819143D01*
X168322004Y-68327135D01*
X168357551Y-68370449D01*
X168530377Y-68512284D01*
X168727553Y-68617676D01*
X168941501Y-68682577D01*
X169108248Y-68699000D01*
X169108257Y-68699000D01*
X169163999Y-68704490D01*
X169219741Y-68699000D01*
X176839752Y-68699000D01*
X177006499Y-68682577D01*
X177220447Y-68617676D01*
X177417623Y-68512284D01*
X177590449Y-68370449D01*
X177732284Y-68197623D01*
X177837676Y-68000447D01*
X177902577Y-67786499D01*
X177924491Y-67564000D01*
X177902577Y-67341501D01*
X177837676Y-67127553D01*
X177732284Y-66930377D01*
X177590449Y-66757551D01*
X177417623Y-66615716D01*
X177220447Y-66510324D01*
X177006499Y-66445423D01*
X176839752Y-66429000D01*
X169701000Y-66429000D01*
X169701000Y-64262000D01*
X172468509Y-64262000D01*
X172490423Y-64484498D01*
X172555324Y-64698446D01*
X172660717Y-64895622D01*
X172802552Y-65068448D01*
X172975378Y-65210283D01*
X173172554Y-65315676D01*
X173386502Y-65380577D01*
X173609000Y-65402491D01*
X173831498Y-65380577D01*
X174045446Y-65315676D01*
X174242622Y-65210283D01*
X174372143Y-65103988D01*
X174753135Y-64722996D01*
X174796449Y-64687449D01*
X174938284Y-64514623D01*
X175043676Y-64317447D01*
X175108577Y-64103499D01*
X175125000Y-63936752D01*
X175125000Y-63936743D01*
X175130490Y-63881001D01*
X175125000Y-63825259D01*
X175125000Y-57874131D01*
X178133988Y-54865144D01*
X178240283Y-54735623D01*
X178345675Y-54538447D01*
X178410577Y-54324500D01*
X178432490Y-54102001D01*
X178410577Y-53879502D01*
X178345675Y-53665554D01*
X178240283Y-53468378D01*
X178098448Y-53295552D01*
X177925622Y-53153717D01*
X177728446Y-53048325D01*
X177514498Y-52983423D01*
X177291999Y-52961510D01*
X177069500Y-52983423D01*
X176855553Y-53048325D01*
X176658377Y-53153717D01*
X176528856Y-53260012D01*
X173226865Y-56562004D01*
X173183551Y-56597551D01*
X173041716Y-56770377D01*
X172971285Y-56902146D01*
X172936324Y-56967554D01*
X172871423Y-57181502D01*
X172849509Y-57404000D01*
X172855000Y-57459752D01*
X172855001Y-63410868D01*
X172767012Y-63498857D01*
X172660717Y-63628378D01*
X172555324Y-63825554D01*
X172490423Y-64039502D01*
X172468509Y-64262000D01*
X169701000Y-64262000D01*
X169701000Y-55734248D01*
X169684577Y-55567501D01*
X169619676Y-55353553D01*
X169514284Y-55156377D01*
X169372449Y-54983551D01*
X169199623Y-54841716D01*
X169002447Y-54736324D01*
X168788499Y-54671423D01*
X168566000Y-54649509D01*
X168343502Y-54671423D01*
X168129554Y-54736324D01*
X167932378Y-54841716D01*
X167759552Y-54983551D01*
X167617717Y-55156377D01*
X167512325Y-55353553D01*
X167447424Y-55567501D01*
X167431001Y-55734248D01*
X167431000Y-67021751D01*
X162753499Y-67021751D01*
X162753499Y-57630321D01*
X162761410Y-57549999D01*
X162729842Y-57229483D01*
X162723047Y-57207083D01*
X162636351Y-56921284D01*
X162484530Y-56637247D01*
X162280213Y-56388285D01*
X162217812Y-56337074D01*
X162185425Y-56304687D01*
X162134214Y-56242286D01*
X161885251Y-56037969D01*
X161601214Y-55886148D01*
X161293015Y-55792657D01*
X160972500Y-55761089D01*
X160651984Y-55792657D01*
X160343785Y-55886148D01*
X160059748Y-56037969D01*
X159810786Y-56242286D01*
X159606469Y-56491249D01*
X159454648Y-56775286D01*
X159361157Y-57083485D01*
X159343941Y-57258285D01*
X159329589Y-57404000D01*
X159337500Y-57484319D01*
X159337500Y-58500322D01*
X159361157Y-58740516D01*
X159454648Y-59048715D01*
X159483500Y-59102693D01*
X159483499Y-78175589D01*
X159352470Y-78335248D01*
X159200648Y-78619286D01*
X159107158Y-78927484D01*
X159075589Y-79248000D01*
X139091481Y-79248000D01*
X139067370Y-79168517D01*
X139039853Y-79077806D01*
X138888032Y-78793769D01*
X138683715Y-78544807D01*
X138621320Y-78493601D01*
X138137403Y-78009685D01*
X137950832Y-77856570D01*
X137666794Y-77704748D01*
X137358596Y-77611258D01*
X137038080Y-77579689D01*
X136717564Y-77611258D01*
X136409366Y-77704748D01*
X136125328Y-77856570D01*
X135876367Y-78060887D01*
X135672050Y-78309848D01*
X135520228Y-78593886D01*
X135426738Y-78902084D01*
X135395169Y-79222600D01*
X99770000Y-79222600D01*
X99770000Y-62687000D01*
X101399509Y-62687000D01*
X101421423Y-62909498D01*
X101486324Y-63123446D01*
X101591717Y-63320622D01*
X101698012Y-63450143D01*
X104656000Y-66408132D01*
X104656001Y-68826252D01*
X104672424Y-68992999D01*
X104737325Y-69206947D01*
X104842717Y-69404123D01*
X104984552Y-69576949D01*
X105157378Y-69718784D01*
X105354554Y-69824176D01*
X105568502Y-69889077D01*
X105791000Y-69910991D01*
X106013499Y-69889077D01*
X106227447Y-69824176D01*
X106424623Y-69718784D01*
X106597449Y-69576949D01*
X106739284Y-69404123D01*
X106844676Y-69206947D01*
X106909577Y-68992999D01*
X106926000Y-68826252D01*
X106926000Y-65993741D01*
X106931490Y-65937999D01*
X106926000Y-65882257D01*
X106926000Y-65882248D01*
X106909577Y-65715501D01*
X106844676Y-65501553D01*
X106739284Y-65304377D01*
X106597449Y-65131551D01*
X106554141Y-65096009D01*
X103303143Y-61845012D01*
X103173622Y-61738717D01*
X102976446Y-61633324D01*
X102762498Y-61568423D01*
X102540000Y-61546509D01*
X102317502Y-61568423D01*
X102103554Y-61633324D01*
X101906378Y-61738717D01*
X101733552Y-61880552D01*
X101591717Y-62053378D01*
X101486324Y-62250554D01*
X101421423Y-62464502D01*
X101399509Y-62687000D01*
X99770000Y-62687000D01*
X99770000Y-58419998D01*
X100973089Y-58419998D01*
X101004658Y-58740514D01*
X101098148Y-59048712D01*
X101249970Y-59332750D01*
X101454287Y-59581712D01*
X101543230Y-59654705D01*
X101703250Y-59786030D01*
X101987288Y-59937852D01*
X102295486Y-60031343D01*
X102616002Y-60062911D01*
X102936518Y-60031343D01*
X103244716Y-59937852D01*
X103528754Y-59786030D01*
X103777715Y-59581713D01*
X103982032Y-59332752D01*
X104133854Y-59048714D01*
X104227345Y-58740516D01*
X104258913Y-58420000D01*
X104251000Y-58339658D01*
X104251000Y-48679293D01*
X104452589Y-48813990D01*
X104722842Y-48925932D01*
X105009740Y-48983000D01*
X105302260Y-48983000D01*
X105589158Y-48925932D01*
X105859411Y-48813990D01*
X106102632Y-48651475D01*
X106309475Y-48444632D01*
X106431195Y-48262466D01*
X106500822Y-48379355D01*
X106695731Y-48595588D01*
X106929080Y-48769641D01*
X107191901Y-48894825D01*
X107339110Y-48939476D01*
X107569000Y-48818155D01*
X107569000Y-47625000D01*
X107823000Y-47625000D01*
X107823000Y-48818155D01*
X108052890Y-48939476D01*
X108200099Y-48894825D01*
X108462920Y-48769641D01*
X108696269Y-48595588D01*
X108891178Y-48379355D01*
X108966000Y-48253745D01*
X109040822Y-48379355D01*
X109235731Y-48595588D01*
X109469080Y-48769641D01*
X109731901Y-48894825D01*
X109879110Y-48939476D01*
X110109000Y-48818155D01*
X110109000Y-47625000D01*
X110363000Y-47625000D01*
X110363000Y-48818155D01*
X110592890Y-48939476D01*
X110740099Y-48894825D01*
X111002920Y-48769641D01*
X111236269Y-48595588D01*
X111431178Y-48379355D01*
X111580157Y-48129252D01*
X111677481Y-47854891D01*
X111556814Y-47625000D01*
X110363000Y-47625000D01*
X110109000Y-47625000D01*
X107823000Y-47625000D01*
X107569000Y-47625000D01*
X107549000Y-47625000D01*
X107549000Y-47371000D01*
X107569000Y-47371000D01*
X107569000Y-46177845D01*
X107823000Y-46177845D01*
X107823000Y-47371000D01*
X110109000Y-47371000D01*
X110109000Y-46177845D01*
X110363000Y-46177845D01*
X110363000Y-47371000D01*
X111556814Y-47371000D01*
X111677481Y-47141109D01*
X111655110Y-47078042D01*
X117695000Y-47078042D01*
X117695000Y-47409958D01*
X117759754Y-47735496D01*
X117886772Y-48042147D01*
X118071175Y-48318125D01*
X118305875Y-48552825D01*
X118581853Y-48737228D01*
X118888504Y-48864246D01*
X119214042Y-48929000D01*
X119545958Y-48929000D01*
X119871496Y-48864246D01*
X120178147Y-48737228D01*
X120454125Y-48552825D01*
X120688825Y-48318125D01*
X120873228Y-48042147D01*
X121000246Y-47735496D01*
X121065000Y-47409958D01*
X121065000Y-47332042D01*
X158589000Y-47332042D01*
X158589000Y-47663958D01*
X158653754Y-47989496D01*
X158780772Y-48296147D01*
X158965175Y-48572125D01*
X159199875Y-48806825D01*
X159475853Y-48991228D01*
X159782504Y-49118246D01*
X160108042Y-49183000D01*
X160439958Y-49183000D01*
X160765496Y-49118246D01*
X161072147Y-48991228D01*
X161348125Y-48806825D01*
X161582825Y-48572125D01*
X161767228Y-48296147D01*
X161894246Y-47989496D01*
X161959000Y-47663958D01*
X161959000Y-47332042D01*
X161894246Y-47006504D01*
X161767228Y-46699853D01*
X161582825Y-46423875D01*
X161348125Y-46189175D01*
X161072147Y-46004772D01*
X160765496Y-45877754D01*
X160439958Y-45813000D01*
X160108042Y-45813000D01*
X159782504Y-45877754D01*
X159475853Y-46004772D01*
X159199875Y-46189175D01*
X158965175Y-46423875D01*
X158780772Y-46699853D01*
X158653754Y-47006504D01*
X158589000Y-47332042D01*
X121065000Y-47332042D01*
X121065000Y-47078042D01*
X121000246Y-46752504D01*
X120873228Y-46445853D01*
X120688825Y-46169875D01*
X120454125Y-45935175D01*
X120178147Y-45750772D01*
X119871496Y-45623754D01*
X119545958Y-45559000D01*
X119214042Y-45559000D01*
X118888504Y-45623754D01*
X118581853Y-45750772D01*
X118305875Y-45935175D01*
X118071175Y-46169875D01*
X117886772Y-46445853D01*
X117759754Y-46752504D01*
X117695000Y-47078042D01*
X111655110Y-47078042D01*
X111580157Y-46866748D01*
X111431178Y-46616645D01*
X111236269Y-46400412D01*
X111002920Y-46226359D01*
X110740099Y-46101175D01*
X110592890Y-46056524D01*
X110363000Y-46177845D01*
X110109000Y-46177845D01*
X109879110Y-46056524D01*
X109731901Y-46101175D01*
X109469080Y-46226359D01*
X109235731Y-46400412D01*
X109040822Y-46616645D01*
X108966000Y-46742255D01*
X108891178Y-46616645D01*
X108696269Y-46400412D01*
X108462920Y-46226359D01*
X108200099Y-46101175D01*
X108052890Y-46056524D01*
X107823000Y-46177845D01*
X107569000Y-46177845D01*
X107339110Y-46056524D01*
X107191901Y-46101175D01*
X106929080Y-46226359D01*
X106695731Y-46400412D01*
X106500822Y-46616645D01*
X106431195Y-46733534D01*
X106309475Y-46551368D01*
X106102632Y-46344525D01*
X105859411Y-46182010D01*
X105589158Y-46070068D01*
X105302260Y-46013000D01*
X105009740Y-46013000D01*
X104722842Y-46070068D01*
X104452589Y-46182010D01*
X104209368Y-46344525D01*
X104077513Y-46476380D01*
X104055502Y-46403820D01*
X103996537Y-46293506D01*
X103917185Y-46196815D01*
X103820494Y-46117463D01*
X103710180Y-46058498D01*
X103590482Y-46022188D01*
X103466000Y-46009928D01*
X103300428Y-46009928D01*
X103244714Y-45980148D01*
X102936515Y-45886657D01*
X102616000Y-45855089D01*
X102295484Y-45886657D01*
X101987285Y-45980148D01*
X101931571Y-46009928D01*
X101766000Y-46009928D01*
X101641518Y-46022188D01*
X101521820Y-46058498D01*
X101411506Y-46117463D01*
X101314815Y-46196815D01*
X101235463Y-46293506D01*
X101176498Y-46403820D01*
X101140188Y-46523518D01*
X101127928Y-46648000D01*
X101127928Y-46813572D01*
X101098148Y-46869286D01*
X101004657Y-47177485D01*
X100981000Y-47417679D01*
X100981001Y-58339669D01*
X100973089Y-58419998D01*
X99770000Y-58419998D01*
X99770000Y-46770720D01*
X99808191Y-46381215D01*
X99911228Y-46039940D01*
X100078590Y-45725178D01*
X100303903Y-45448917D01*
X100578582Y-45221683D01*
X100892164Y-45052130D01*
X101232708Y-44946714D01*
X101620072Y-44906000D01*
X178527280Y-44906000D01*
X178916785Y-44944191D01*
G04 #@! TA.AperFunction,Conductor*
D17*
G36*
X178916785Y-44944191D02*
G01*
X179258060Y-45047228D01*
X179572822Y-45214590D01*
X179849083Y-45439903D01*
X180076317Y-45714582D01*
X180245870Y-46028164D01*
X180351286Y-46368708D01*
X180391938Y-46755487D01*
X180138105Y-130863111D01*
X180099809Y-131253684D01*
X179996771Y-131594963D01*
X179829409Y-131909725D01*
X179604097Y-132185983D01*
X179329418Y-132413217D01*
X179015838Y-132582769D01*
X178675288Y-132688187D01*
X178287521Y-132728943D01*
X144546749Y-132801564D01*
X144546749Y-130222402D01*
X158736320Y-130222402D01*
X158736320Y-130554318D01*
X158801074Y-130879856D01*
X158928092Y-131186507D01*
X159112495Y-131462485D01*
X159347195Y-131697185D01*
X159623173Y-131881588D01*
X159929824Y-132008606D01*
X160255362Y-132073360D01*
X160587278Y-132073360D01*
X160912816Y-132008606D01*
X161219467Y-131881588D01*
X161495445Y-131697185D01*
X161730145Y-131462485D01*
X161914548Y-131186507D01*
X162041566Y-130879856D01*
X162106320Y-130554318D01*
X162106320Y-130222402D01*
X162041566Y-129896864D01*
X161914548Y-129590213D01*
X161730145Y-129314235D01*
X161495445Y-129079535D01*
X161219467Y-128895132D01*
X160912816Y-128768114D01*
X160587278Y-128703360D01*
X160255362Y-128703360D01*
X159929824Y-128768114D01*
X159623173Y-128895132D01*
X159347195Y-129079535D01*
X159112495Y-129314235D01*
X158928092Y-129590213D01*
X158801074Y-129896864D01*
X158736320Y-130222402D01*
X144546749Y-130222402D01*
X144546749Y-129204450D01*
X134258892Y-129204450D01*
X134258892Y-132823706D01*
X101633961Y-132893926D01*
X101245216Y-132855809D01*
X100903937Y-132752771D01*
X100589175Y-132585409D01*
X100312917Y-132360097D01*
X100085683Y-132085418D01*
X99916131Y-131771838D01*
X99810713Y-131431288D01*
X99770000Y-131043928D01*
X99770000Y-129077720D01*
X101053869Y-129077720D01*
X101075783Y-129300218D01*
X101140684Y-129514166D01*
X101140685Y-129514167D01*
X101246077Y-129711343D01*
X101250881Y-129717197D01*
X101188068Y-129868842D01*
X101131000Y-130155740D01*
X101131000Y-130448260D01*
X101188068Y-130735158D01*
X101300010Y-131005411D01*
X101462525Y-131248632D01*
X101669368Y-131455475D01*
X101912589Y-131617990D01*
X102182842Y-131729932D01*
X102469740Y-131787000D01*
X102762260Y-131787000D01*
X103049158Y-131729932D01*
X103319411Y-131617990D01*
X103562632Y-131455475D01*
X103769475Y-131248632D01*
X103886000Y-131074240D01*
X104002525Y-131248632D01*
X104209368Y-131455475D01*
X104452589Y-131617990D01*
X104722842Y-131729932D01*
X105009740Y-131787000D01*
X105302260Y-131787000D01*
X105589158Y-131729932D01*
X105859411Y-131617990D01*
X106102632Y-131455475D01*
X106309475Y-131248632D01*
X106426000Y-131074240D01*
X106542525Y-131248632D01*
X106749368Y-131455475D01*
X106992589Y-131617990D01*
X107262842Y-131729932D01*
X107549740Y-131787000D01*
X107842260Y-131787000D01*
X108129158Y-131729932D01*
X108399411Y-131617990D01*
X108642632Y-131455475D01*
X108774487Y-131323620D01*
X108796498Y-131396180D01*
X108855463Y-131506494D01*
X108934815Y-131603185D01*
X109031506Y-131682537D01*
X109141820Y-131741502D01*
X109261518Y-131777812D01*
X109386000Y-131790072D01*
X109950250Y-131787000D01*
X110109000Y-131628250D01*
X110109000Y-130429000D01*
X110363000Y-130429000D01*
X110363000Y-131628250D01*
X110521750Y-131787000D01*
X111086000Y-131790072D01*
X111210482Y-131777812D01*
X111330180Y-131741502D01*
X111440494Y-131682537D01*
X111537185Y-131603185D01*
X111616537Y-131506494D01*
X111675502Y-131396180D01*
X111711812Y-131276482D01*
X111724072Y-131152000D01*
X111721000Y-130587750D01*
X111562250Y-130429000D01*
X110363000Y-130429000D01*
X110109000Y-130429000D01*
X110089000Y-130429000D01*
X110089000Y-130222402D01*
X117842320Y-130222402D01*
X117842320Y-130554318D01*
X117907074Y-130879856D01*
X118034092Y-131186507D01*
X118218495Y-131462485D01*
X118453195Y-131697185D01*
X118729173Y-131881588D01*
X119035824Y-132008606D01*
X119361362Y-132073360D01*
X119693278Y-132073360D01*
X120018816Y-132008606D01*
X120325467Y-131881588D01*
X120601445Y-131697185D01*
X120836145Y-131462485D01*
X121020548Y-131186507D01*
X121147566Y-130879856D01*
X121212320Y-130554318D01*
X121212320Y-130222402D01*
X121147566Y-129896864D01*
X121020548Y-129590213D01*
X120836145Y-129314235D01*
X120601445Y-129079535D01*
X120325467Y-128895132D01*
X120018816Y-128768114D01*
X119693278Y-128703360D01*
X119361362Y-128703360D01*
X119035824Y-128768114D01*
X118729173Y-128895132D01*
X118453195Y-129079535D01*
X118218495Y-129314235D01*
X118034092Y-129590213D01*
X117907074Y-129896864D01*
X117842320Y-130222402D01*
X110089000Y-130222402D01*
X110089000Y-130175000D01*
X110109000Y-130175000D01*
X110109000Y-128975750D01*
X110363000Y-128975750D01*
X110363000Y-130175000D01*
X111562250Y-130175000D01*
X111721000Y-130016250D01*
X111724072Y-129452000D01*
X111711812Y-129327518D01*
X111675502Y-129207820D01*
X111616537Y-129097506D01*
X111537185Y-129000815D01*
X111440494Y-128921463D01*
X111330180Y-128862498D01*
X111210482Y-128826188D01*
X111086000Y-128813928D01*
X110521750Y-128817000D01*
X110363000Y-128975750D01*
X110109000Y-128975750D01*
X109950250Y-128817000D01*
X109707292Y-128815677D01*
X109765676Y-128706447D01*
X109830577Y-128492499D01*
X109847000Y-128325752D01*
X109852491Y-128270000D01*
X109847000Y-128214249D01*
X109847000Y-125836254D01*
X109922309Y-125774449D01*
X110064144Y-125601623D01*
X110169536Y-125404447D01*
X110234437Y-125190499D01*
X110256351Y-124968000D01*
X110234437Y-124745501D01*
X110227964Y-124724160D01*
X173047629Y-124724160D01*
X173069543Y-124946658D01*
X173134444Y-125160606D01*
X173239837Y-125357782D01*
X173381672Y-125530608D01*
X173554498Y-125672443D01*
X173751674Y-125777836D01*
X173965622Y-125842737D01*
X174188120Y-125864651D01*
X174410618Y-125842737D01*
X174624566Y-125777836D01*
X174821742Y-125672443D01*
X174951263Y-125566148D01*
X175323871Y-125193540D01*
X175349324Y-125277447D01*
X175454716Y-125474623D01*
X175596551Y-125647449D01*
X175769377Y-125789284D01*
X175966553Y-125894676D01*
X176180501Y-125959577D01*
X176347248Y-125976000D01*
X177090247Y-125976000D01*
X177145998Y-125981491D01*
X177201749Y-125976000D01*
X177201750Y-125976000D01*
X177368497Y-125959577D01*
X177582445Y-125894676D01*
X177779621Y-125789284D01*
X177952447Y-125647449D01*
X177987994Y-125604136D01*
X179071140Y-124520990D01*
X179114449Y-124485447D01*
X179256284Y-124312621D01*
X179361676Y-124115445D01*
X179426577Y-123901497D01*
X179443000Y-123734750D01*
X179448491Y-123678998D01*
X179443000Y-123623247D01*
X179443000Y-113101248D01*
X179426577Y-112934501D01*
X179361676Y-112720553D01*
X179256284Y-112523377D01*
X179114449Y-112350551D01*
X178941623Y-112208716D01*
X178744446Y-112103324D01*
X178530498Y-112038423D01*
X178308000Y-112016509D01*
X178085501Y-112038423D01*
X177871553Y-112103324D01*
X177674377Y-112208716D01*
X177501551Y-112350551D01*
X177359716Y-112523377D01*
X177254324Y-112720554D01*
X177189423Y-112934502D01*
X177173000Y-113101249D01*
X177173000Y-113542846D01*
X177093447Y-113500324D01*
X176879499Y-113435423D01*
X176657000Y-113413509D01*
X176434502Y-113435423D01*
X176220554Y-113500324D01*
X176023378Y-113605716D01*
X175850552Y-113747551D01*
X175708716Y-113920377D01*
X175603324Y-114117553D01*
X175538423Y-114331501D01*
X175522000Y-114498248D01*
X175522000Y-114863751D01*
X175522001Y-114863761D01*
X175522000Y-121785147D01*
X173346132Y-123961017D01*
X173239837Y-124090538D01*
X173134444Y-124287714D01*
X173069543Y-124501662D01*
X173047629Y-124724160D01*
X110227964Y-124724160D01*
X110169536Y-124531553D01*
X110064144Y-124334377D01*
X109922309Y-124161551D01*
X109749483Y-124019716D01*
X109552307Y-123914324D01*
X109338359Y-123849423D01*
X109171612Y-123833000D01*
X108767751Y-123833000D01*
X108712000Y-123827509D01*
X108656248Y-123833000D01*
X108489501Y-123849423D01*
X108275553Y-123914324D01*
X108078377Y-124019716D01*
X107905551Y-124161551D01*
X107763716Y-124334377D01*
X107658324Y-124531553D01*
X107593423Y-124745501D01*
X107571509Y-124968000D01*
X107577000Y-125023752D01*
X107577001Y-127799867D01*
X106932864Y-128444004D01*
X106889551Y-128479551D01*
X106747716Y-128652377D01*
X106654813Y-128826188D01*
X106642324Y-128849554D01*
X106577423Y-129063502D01*
X106555509Y-129286000D01*
X106560564Y-129337329D01*
X106542525Y-129355368D01*
X106426000Y-129529760D01*
X106309475Y-129355368D01*
X106291000Y-129336893D01*
X106291000Y-125692132D01*
X106934509Y-125048624D01*
X107101207Y-124998056D01*
X107298383Y-124892664D01*
X107471209Y-124750829D01*
X107613044Y-124578003D01*
X107718436Y-124380827D01*
X107783337Y-124166879D01*
X107805251Y-123944380D01*
X107783337Y-123721881D01*
X107718436Y-123507933D01*
X107613044Y-123310757D01*
X107471209Y-123137931D01*
X107298383Y-122996096D01*
X107101207Y-122890704D01*
X106887259Y-122825803D01*
X106720512Y-122809380D01*
X106489372Y-122809380D01*
X106433620Y-122803889D01*
X106211121Y-122825803D01*
X105997173Y-122890704D01*
X105799997Y-122996096D01*
X105670476Y-123102391D01*
X105670474Y-123102393D01*
X105627171Y-123137931D01*
X105591633Y-123181234D01*
X104392864Y-124380005D01*
X104349551Y-124415551D01*
X104207716Y-124588377D01*
X104120885Y-124750829D01*
X104102324Y-124785554D01*
X104037423Y-124999502D01*
X104015509Y-125222000D01*
X104021000Y-125277752D01*
X104021001Y-129336892D01*
X104002525Y-129355368D01*
X103886000Y-129529760D01*
X103769475Y-129355368D01*
X103739341Y-129325234D01*
X103734577Y-129276861D01*
X103674718Y-129079535D01*
X103669676Y-129062913D01*
X103564284Y-128865737D01*
X103422449Y-128692911D01*
X103379135Y-128657364D01*
X103329360Y-128607589D01*
X103329360Y-119578248D01*
X103312937Y-119411501D01*
X103248036Y-119197553D01*
X103142644Y-119000377D01*
X103000809Y-118827551D01*
X102827983Y-118685716D01*
X102630806Y-118580324D01*
X102416858Y-118515423D01*
X102194360Y-118493509D01*
X101971861Y-118515423D01*
X101757913Y-118580324D01*
X101560737Y-118685716D01*
X101387911Y-118827551D01*
X101246076Y-119000377D01*
X101140684Y-119197554D01*
X101075783Y-119411502D01*
X101059360Y-119578249D01*
X101059361Y-129021959D01*
X101053869Y-129077720D01*
X99770000Y-129077720D01*
X99770000Y-103124000D01*
X101412009Y-103124000D01*
X101433923Y-103346498D01*
X101498824Y-103560446D01*
X101604217Y-103757622D01*
X101710512Y-103887143D01*
X104656000Y-106832633D01*
X104656001Y-109466252D01*
X104672424Y-109632999D01*
X104737325Y-109846947D01*
X104842717Y-110044123D01*
X104984552Y-110216949D01*
X105157378Y-110358784D01*
X105354554Y-110464176D01*
X105568502Y-110529077D01*
X105791000Y-110550991D01*
X106013499Y-110529077D01*
X106227447Y-110464176D01*
X106424623Y-110358784D01*
X106597449Y-110216949D01*
X106739284Y-110044123D01*
X106844676Y-109846947D01*
X106909577Y-109632999D01*
X106926000Y-109466252D01*
X106926000Y-106418252D01*
X106931491Y-106362500D01*
X106909577Y-106140001D01*
X106844676Y-105926053D01*
X106739284Y-105728877D01*
X106632989Y-105599356D01*
X106632987Y-105599354D01*
X106597449Y-105556051D01*
X106554146Y-105520513D01*
X103315643Y-102282012D01*
X103186122Y-102175717D01*
X102988946Y-102070324D01*
X102774998Y-102005423D01*
X102552500Y-101983509D01*
X102330002Y-102005423D01*
X102116054Y-102070324D01*
X101918878Y-102175717D01*
X101746052Y-102317552D01*
X101604217Y-102490378D01*
X101498824Y-102687554D01*
X101433923Y-102901502D01*
X101412009Y-103124000D01*
X99770000Y-103124000D01*
X99770000Y-83248500D01*
X101031013Y-83248500D01*
X101052927Y-83470998D01*
X101117828Y-83684946D01*
X101223221Y-83882122D01*
X101329516Y-84011643D01*
X104592500Y-87274628D01*
X104592501Y-89273246D01*
X104608924Y-89439993D01*
X104673825Y-89653941D01*
X104779217Y-89851117D01*
X104921052Y-90023943D01*
X105093878Y-90165778D01*
X105291054Y-90271170D01*
X105505002Y-90336071D01*
X105727500Y-90357985D01*
X105949999Y-90336071D01*
X106163947Y-90271170D01*
X106361123Y-90165778D01*
X106533949Y-90023943D01*
X106675784Y-89851117D01*
X106781176Y-89653941D01*
X106846077Y-89439993D01*
X106862500Y-89273246D01*
X106862500Y-86860248D01*
X106867991Y-86804496D01*
X106846077Y-86581997D01*
X106781176Y-86368049D01*
X106675784Y-86170873D01*
X106581985Y-86056579D01*
X106533949Y-85998047D01*
X106490641Y-85962505D01*
X102934647Y-82406512D01*
X102805126Y-82300217D01*
X102607950Y-82194824D01*
X102394002Y-82129923D01*
X102171504Y-82108009D01*
X101949006Y-82129923D01*
X101735058Y-82194824D01*
X101537882Y-82300217D01*
X101365056Y-82442052D01*
X101223221Y-82614878D01*
X101117828Y-82812054D01*
X101052927Y-83026002D01*
X101031013Y-83248500D01*
X99770000Y-83248500D01*
X99770000Y-79222600D01*
X135395169Y-79222600D01*
X135426738Y-79543116D01*
X135520228Y-79851314D01*
X135672050Y-80135352D01*
X135825165Y-80321923D01*
X135887001Y-80383759D01*
X135887002Y-99544872D01*
X135879090Y-99625201D01*
X135910659Y-99945717D01*
X136004149Y-100253915D01*
X136107963Y-100448137D01*
X136155971Y-100537953D01*
X136360288Y-100786915D01*
X136422682Y-100838120D01*
X136823380Y-101238819D01*
X136874586Y-101301214D01*
X137123548Y-101505531D01*
X137407585Y-101657352D01*
X137561684Y-101704097D01*
X137715783Y-101750843D01*
X138036300Y-101782411D01*
X138356816Y-101750843D01*
X138665015Y-101657352D01*
X138816836Y-101576201D01*
X138949051Y-101505531D01*
X139198014Y-101301214D01*
X139402331Y-101052252D01*
X139554152Y-100768215D01*
X139647643Y-100460016D01*
X139671300Y-100219822D01*
X139671300Y-100219821D01*
X139679211Y-100139500D01*
X139671300Y-100059178D01*
X139671300Y-99254622D01*
X139679211Y-99174300D01*
X139667954Y-99060000D01*
X166251089Y-99060000D01*
X166282658Y-99380516D01*
X166376148Y-99688714D01*
X166527970Y-99972752D01*
X166681085Y-100159323D01*
X166767000Y-100245238D01*
X166767001Y-118961587D01*
X166635971Y-119121247D01*
X166484149Y-119405285D01*
X166390659Y-119713483D01*
X166359090Y-120033999D01*
X166390659Y-120354515D01*
X166484149Y-120662713D01*
X166635971Y-120946751D01*
X166840288Y-121195712D01*
X167089249Y-121400029D01*
X167373287Y-121551851D01*
X167681485Y-121645341D01*
X168002001Y-121676910D01*
X168322517Y-121645341D01*
X168630715Y-121551851D01*
X168914753Y-121400029D01*
X169101324Y-121246914D01*
X169501313Y-120846925D01*
X169563714Y-120795714D01*
X169768031Y-120546752D01*
X169919852Y-120262715D01*
X170013343Y-119954516D01*
X170037000Y-119714322D01*
X170037000Y-119714320D01*
X170044911Y-119634001D01*
X170037000Y-119553681D01*
X170037000Y-99648319D01*
X170044911Y-99567999D01*
X170026445Y-99380516D01*
X170013343Y-99247484D01*
X169919852Y-98939285D01*
X169768031Y-98655248D01*
X169563714Y-98406286D01*
X169501314Y-98355076D01*
X168993323Y-97847085D01*
X168806752Y-97693970D01*
X168522714Y-97542148D01*
X168214516Y-97448658D01*
X167894000Y-97417089D01*
X167573484Y-97448658D01*
X167265286Y-97542148D01*
X166981248Y-97693970D01*
X166732287Y-97898287D01*
X166527970Y-98147248D01*
X166376148Y-98431286D01*
X166282658Y-98739484D01*
X166251089Y-99060000D01*
X139667954Y-99060000D01*
X139647643Y-98853784D01*
X139633251Y-98806339D01*
X139554152Y-98545585D01*
X139402331Y-98261548D01*
X139198014Y-98012586D01*
X139157001Y-97978928D01*
X139157001Y-97218500D01*
X172786009Y-97218500D01*
X172791500Y-97274252D01*
X172791501Y-104703752D01*
X172807924Y-104870499D01*
X172872825Y-105084447D01*
X172978217Y-105281623D01*
X173120052Y-105454449D01*
X173292878Y-105596284D01*
X173490054Y-105701676D01*
X173704002Y-105766577D01*
X173926500Y-105788491D01*
X174148999Y-105766577D01*
X174362947Y-105701676D01*
X174560123Y-105596284D01*
X174732949Y-105454449D01*
X174874784Y-105281623D01*
X174980176Y-105084447D01*
X175045077Y-104870499D01*
X175061500Y-104703752D01*
X175061500Y-97688631D01*
X177173000Y-95577132D01*
X177173001Y-102526867D01*
X176827608Y-102872261D01*
X176658377Y-102962716D01*
X176485551Y-103104551D01*
X176450004Y-103147865D01*
X176018012Y-103579857D01*
X175911717Y-103709378D01*
X175806324Y-103906554D01*
X175741423Y-104120502D01*
X175719509Y-104343000D01*
X175741423Y-104565498D01*
X175806324Y-104779446D01*
X175911717Y-104976622D01*
X176053552Y-105149448D01*
X176226378Y-105291283D01*
X176423554Y-105396676D01*
X176637502Y-105461577D01*
X176860000Y-105483491D01*
X177082498Y-105461577D01*
X177296446Y-105396676D01*
X177493622Y-105291283D01*
X177623143Y-105184988D01*
X177858392Y-104949739D01*
X178027623Y-104859284D01*
X178200449Y-104717449D01*
X178235995Y-104674136D01*
X179071140Y-103838992D01*
X179114449Y-103803449D01*
X179256284Y-103630623D01*
X179361676Y-103433447D01*
X179411471Y-103269295D01*
X179426577Y-103219500D01*
X179433633Y-103147857D01*
X179443000Y-103052752D01*
X179443000Y-103052745D01*
X179448490Y-102997001D01*
X179443000Y-102941257D01*
X179443000Y-93670248D01*
X179426577Y-93503501D01*
X179361676Y-93289553D01*
X179256284Y-93092377D01*
X179114449Y-92919551D01*
X178941623Y-92777716D01*
X178744446Y-92672324D01*
X178530498Y-92607423D01*
X178308000Y-92585509D01*
X178085501Y-92607423D01*
X177871553Y-92672324D01*
X177674377Y-92777716D01*
X177501551Y-92919551D01*
X177359716Y-93092377D01*
X177254324Y-93289554D01*
X177189423Y-93503502D01*
X177173000Y-93670249D01*
X177173000Y-93674413D01*
X177163622Y-93666717D01*
X176966446Y-93561324D01*
X176752498Y-93496423D01*
X176529999Y-93474509D01*
X176307501Y-93496423D01*
X176093553Y-93561324D01*
X175896377Y-93666717D01*
X175766856Y-93773012D01*
X173163365Y-96376504D01*
X173120051Y-96412051D01*
X172978216Y-96584877D01*
X172872825Y-96782053D01*
X172872824Y-96782054D01*
X172807923Y-96996002D01*
X172786009Y-97218500D01*
X139157001Y-97218500D01*
X139157001Y-88087012D01*
X175719521Y-88087012D01*
X175741435Y-88309510D01*
X175806336Y-88523458D01*
X175911729Y-88720634D01*
X176053564Y-88893460D01*
X176226390Y-89035295D01*
X176423566Y-89140688D01*
X176637514Y-89205589D01*
X176860012Y-89227503D01*
X177082510Y-89205589D01*
X177296458Y-89140688D01*
X177493634Y-89035295D01*
X177623155Y-88929000D01*
X179217139Y-87335016D01*
X179260448Y-87299474D01*
X179402283Y-87126648D01*
X179507675Y-86929472D01*
X179572576Y-86715524D01*
X179588999Y-86548777D01*
X179594490Y-86493026D01*
X179588999Y-86437274D01*
X179588999Y-71702750D01*
X179594490Y-71646998D01*
X179572576Y-71424500D01*
X179507675Y-71210553D01*
X179507675Y-71210552D01*
X179402283Y-71013376D01*
X179260448Y-70840550D01*
X179217134Y-70805003D01*
X178817143Y-70405012D01*
X178687622Y-70298717D01*
X178490446Y-70193324D01*
X178276498Y-70128423D01*
X178054000Y-70106509D01*
X177831502Y-70128423D01*
X177617554Y-70193324D01*
X177420378Y-70298717D01*
X177247552Y-70440552D01*
X177105717Y-70613378D01*
X177000324Y-70810554D01*
X176935423Y-71024502D01*
X176913509Y-71247000D01*
X176935423Y-71469498D01*
X177000324Y-71683446D01*
X177105717Y-71880622D01*
X177212012Y-72010143D01*
X177318999Y-72117130D01*
X177319000Y-86022892D01*
X176018024Y-87323869D01*
X175911729Y-87453390D01*
X175806336Y-87650566D01*
X175741435Y-87864514D01*
X175719521Y-88087012D01*
X139157001Y-88087012D01*
X139157001Y-79786843D01*
X139164912Y-79706521D01*
X139133344Y-79386004D01*
X139091481Y-79248000D01*
X159075589Y-79248000D01*
X159107158Y-79568516D01*
X159200648Y-79876714D01*
X159352470Y-80160752D01*
X159556787Y-80409713D01*
X159805748Y-80614030D01*
X160089786Y-80765852D01*
X160397984Y-80859342D01*
X160718500Y-80890911D01*
X161039016Y-80859342D01*
X161347214Y-80765852D01*
X161631252Y-80614030D01*
X161817823Y-80460915D01*
X162217813Y-80060925D01*
X162280213Y-80009715D01*
X162484530Y-79760753D01*
X162636351Y-79476716D01*
X162729842Y-79168517D01*
X162753499Y-78928323D01*
X162753499Y-78928321D01*
X162761410Y-78848002D01*
X162753499Y-78767682D01*
X162753499Y-75628500D01*
X173548009Y-75628500D01*
X173553501Y-75684261D01*
X173553500Y-84066251D01*
X173569923Y-84232998D01*
X173634824Y-84446946D01*
X173740216Y-84644123D01*
X173882051Y-84816949D01*
X174054877Y-84958784D01*
X174252053Y-85064176D01*
X174466001Y-85129077D01*
X174688500Y-85150991D01*
X174910998Y-85129077D01*
X175124946Y-85064176D01*
X175322123Y-84958784D01*
X175494949Y-84816949D01*
X175636784Y-84644123D01*
X175742176Y-84446947D01*
X175807077Y-84232999D01*
X175823500Y-84066252D01*
X175823500Y-76098631D01*
X176990988Y-74931144D01*
X177097283Y-74801623D01*
X177202676Y-74604447D01*
X177267577Y-74390499D01*
X177289491Y-74168000D01*
X177267577Y-73945502D01*
X177202676Y-73731554D01*
X177097283Y-73534378D01*
X176955448Y-73361552D01*
X176782622Y-73219717D01*
X176585446Y-73114324D01*
X176371498Y-73049423D01*
X176149000Y-73027509D01*
X175926501Y-73049423D01*
X175712553Y-73114324D01*
X175515377Y-73219717D01*
X175385856Y-73326012D01*
X173925360Y-74786509D01*
X173882052Y-74822051D01*
X173740217Y-74994877D01*
X173691936Y-75085205D01*
X173634824Y-75192054D01*
X173569923Y-75406002D01*
X173548009Y-75628500D01*
X162753499Y-75628500D01*
X162753499Y-67021751D01*
X167431000Y-67021751D01*
X167447423Y-67188498D01*
X167512324Y-67402446D01*
X167617716Y-67599623D01*
X167759551Y-67772449D01*
X167808987Y-67813021D01*
X167814012Y-67819143D01*
X168322004Y-68327135D01*
X168357551Y-68370449D01*
X168530377Y-68512284D01*
X168727553Y-68617676D01*
X168941501Y-68682577D01*
X169108248Y-68699000D01*
X169108257Y-68699000D01*
X169163999Y-68704490D01*
X169219741Y-68699000D01*
X176839752Y-68699000D01*
X177006499Y-68682577D01*
X177220447Y-68617676D01*
X177417623Y-68512284D01*
X177590449Y-68370449D01*
X177732284Y-68197623D01*
X177837676Y-68000447D01*
X177902577Y-67786499D01*
X177924491Y-67564000D01*
X177902577Y-67341501D01*
X177837676Y-67127553D01*
X177732284Y-66930377D01*
X177590449Y-66757551D01*
X177417623Y-66615716D01*
X177220447Y-66510324D01*
X177006499Y-66445423D01*
X176839752Y-66429000D01*
X169701000Y-66429000D01*
X169701000Y-64262000D01*
X172468509Y-64262000D01*
X172490423Y-64484498D01*
X172555324Y-64698446D01*
X172660717Y-64895622D01*
X172802552Y-65068448D01*
X172975378Y-65210283D01*
X173172554Y-65315676D01*
X173386502Y-65380577D01*
X173609000Y-65402491D01*
X173831498Y-65380577D01*
X174045446Y-65315676D01*
X174242622Y-65210283D01*
X174372143Y-65103988D01*
X174753135Y-64722996D01*
X174796449Y-64687449D01*
X174938284Y-64514623D01*
X175043676Y-64317447D01*
X175108577Y-64103499D01*
X175125000Y-63936752D01*
X175125000Y-63936743D01*
X175130490Y-63881001D01*
X175125000Y-63825259D01*
X175125000Y-57874131D01*
X178133988Y-54865144D01*
X178240283Y-54735623D01*
X178345675Y-54538447D01*
X178410577Y-54324500D01*
X178432490Y-54102001D01*
X178410577Y-53879502D01*
X178345675Y-53665554D01*
X178240283Y-53468378D01*
X178098448Y-53295552D01*
X177925622Y-53153717D01*
X177728446Y-53048325D01*
X177514498Y-52983423D01*
X177291999Y-52961510D01*
X177069500Y-52983423D01*
X176855553Y-53048325D01*
X176658377Y-53153717D01*
X176528856Y-53260012D01*
X173226865Y-56562004D01*
X173183551Y-56597551D01*
X173041716Y-56770377D01*
X172971285Y-56902146D01*
X172936324Y-56967554D01*
X172871423Y-57181502D01*
X172849509Y-57404000D01*
X172855000Y-57459752D01*
X172855001Y-63410868D01*
X172767012Y-63498857D01*
X172660717Y-63628378D01*
X172555324Y-63825554D01*
X172490423Y-64039502D01*
X172468509Y-64262000D01*
X169701000Y-64262000D01*
X169701000Y-55734248D01*
X169684577Y-55567501D01*
X169619676Y-55353553D01*
X169514284Y-55156377D01*
X169372449Y-54983551D01*
X169199623Y-54841716D01*
X169002447Y-54736324D01*
X168788499Y-54671423D01*
X168566000Y-54649509D01*
X168343502Y-54671423D01*
X168129554Y-54736324D01*
X167932378Y-54841716D01*
X167759552Y-54983551D01*
X167617717Y-55156377D01*
X167512325Y-55353553D01*
X167447424Y-55567501D01*
X167431001Y-55734248D01*
X167431000Y-67021751D01*
X162753499Y-67021751D01*
X162753499Y-57630321D01*
X162761410Y-57549999D01*
X162729842Y-57229483D01*
X162723047Y-57207083D01*
X162636351Y-56921284D01*
X162484530Y-56637247D01*
X162280213Y-56388285D01*
X162217812Y-56337074D01*
X162185425Y-56304687D01*
X162134214Y-56242286D01*
X161885251Y-56037969D01*
X161601214Y-55886148D01*
X161293015Y-55792657D01*
X160972500Y-55761089D01*
X160651984Y-55792657D01*
X160343785Y-55886148D01*
X160059748Y-56037969D01*
X159810786Y-56242286D01*
X159606469Y-56491249D01*
X159454648Y-56775286D01*
X159361157Y-57083485D01*
X159343941Y-57258285D01*
X159329589Y-57404000D01*
X159337500Y-57484319D01*
X159337500Y-58500322D01*
X159361157Y-58740516D01*
X159454648Y-59048715D01*
X159483500Y-59102693D01*
X159483499Y-78175589D01*
X159352470Y-78335248D01*
X159200648Y-78619286D01*
X159107158Y-78927484D01*
X159075589Y-79248000D01*
X139091481Y-79248000D01*
X139067370Y-79168517D01*
X139039853Y-79077806D01*
X138888032Y-78793769D01*
X138683715Y-78544807D01*
X138621320Y-78493601D01*
X138137403Y-78009685D01*
X137950832Y-77856570D01*
X137666794Y-77704748D01*
X137358596Y-77611258D01*
X137038080Y-77579689D01*
X136717564Y-77611258D01*
X136409366Y-77704748D01*
X136125328Y-77856570D01*
X135876367Y-78060887D01*
X135672050Y-78309848D01*
X135520228Y-78593886D01*
X135426738Y-78902084D01*
X135395169Y-79222600D01*
X99770000Y-79222600D01*
X99770000Y-62687000D01*
X101399509Y-62687000D01*
X101421423Y-62909498D01*
X101486324Y-63123446D01*
X101591717Y-63320622D01*
X101698012Y-63450143D01*
X104656000Y-66408132D01*
X104656001Y-68826252D01*
X104672424Y-68992999D01*
X104737325Y-69206947D01*
X104842717Y-69404123D01*
X104984552Y-69576949D01*
X105157378Y-69718784D01*
X105354554Y-69824176D01*
X105568502Y-69889077D01*
X105791000Y-69910991D01*
X106013499Y-69889077D01*
X106227447Y-69824176D01*
X106424623Y-69718784D01*
X106597449Y-69576949D01*
X106739284Y-69404123D01*
X106844676Y-69206947D01*
X106909577Y-68992999D01*
X106926000Y-68826252D01*
X106926000Y-65993741D01*
X106931490Y-65937999D01*
X106926000Y-65882257D01*
X106926000Y-65882248D01*
X106909577Y-65715501D01*
X106844676Y-65501553D01*
X106739284Y-65304377D01*
X106597449Y-65131551D01*
X106554141Y-65096009D01*
X103303143Y-61845012D01*
X103173622Y-61738717D01*
X102976446Y-61633324D01*
X102762498Y-61568423D01*
X102540000Y-61546509D01*
X102317502Y-61568423D01*
X102103554Y-61633324D01*
X101906378Y-61738717D01*
X101733552Y-61880552D01*
X101591717Y-62053378D01*
X101486324Y-62250554D01*
X101421423Y-62464502D01*
X101399509Y-62687000D01*
X99770000Y-62687000D01*
X99770000Y-58419998D01*
X100973089Y-58419998D01*
X101004658Y-58740514D01*
X101098148Y-59048712D01*
X101249970Y-59332750D01*
X101454287Y-59581712D01*
X101543230Y-59654705D01*
X101703250Y-59786030D01*
X101987288Y-59937852D01*
X102295486Y-60031343D01*
X102616002Y-60062911D01*
X102936518Y-60031343D01*
X103244716Y-59937852D01*
X103528754Y-59786030D01*
X103777715Y-59581713D01*
X103982032Y-59332752D01*
X104133854Y-59048714D01*
X104227345Y-58740516D01*
X104258913Y-58420000D01*
X104251000Y-58339658D01*
X104251000Y-48679293D01*
X104452589Y-48813990D01*
X104722842Y-48925932D01*
X105009740Y-48983000D01*
X105302260Y-48983000D01*
X105589158Y-48925932D01*
X105859411Y-48813990D01*
X106102632Y-48651475D01*
X106309475Y-48444632D01*
X106431195Y-48262466D01*
X106500822Y-48379355D01*
X106695731Y-48595588D01*
X106929080Y-48769641D01*
X107191901Y-48894825D01*
X107339110Y-48939476D01*
X107569000Y-48818155D01*
X107569000Y-47625000D01*
X107823000Y-47625000D01*
X107823000Y-48818155D01*
X108052890Y-48939476D01*
X108200099Y-48894825D01*
X108462920Y-48769641D01*
X108696269Y-48595588D01*
X108891178Y-48379355D01*
X108966000Y-48253745D01*
X109040822Y-48379355D01*
X109235731Y-48595588D01*
X109469080Y-48769641D01*
X109731901Y-48894825D01*
X109879110Y-48939476D01*
X110109000Y-48818155D01*
X110109000Y-47625000D01*
X110363000Y-47625000D01*
X110363000Y-48818155D01*
X110592890Y-48939476D01*
X110740099Y-48894825D01*
X111002920Y-48769641D01*
X111236269Y-48595588D01*
X111431178Y-48379355D01*
X111580157Y-48129252D01*
X111677481Y-47854891D01*
X111556814Y-47625000D01*
X110363000Y-47625000D01*
X110109000Y-47625000D01*
X107823000Y-47625000D01*
X107569000Y-47625000D01*
X107549000Y-47625000D01*
X107549000Y-47371000D01*
X107569000Y-47371000D01*
X107569000Y-46177845D01*
X107823000Y-46177845D01*
X107823000Y-47371000D01*
X110109000Y-47371000D01*
X110109000Y-46177845D01*
X110363000Y-46177845D01*
X110363000Y-47371000D01*
X111556814Y-47371000D01*
X111677481Y-47141109D01*
X111655110Y-47078042D01*
X117695000Y-47078042D01*
X117695000Y-47409958D01*
X117759754Y-47735496D01*
X117886772Y-48042147D01*
X118071175Y-48318125D01*
X118305875Y-48552825D01*
X118581853Y-48737228D01*
X118888504Y-48864246D01*
X119214042Y-48929000D01*
X119545958Y-48929000D01*
X119871496Y-48864246D01*
X120178147Y-48737228D01*
X120454125Y-48552825D01*
X120688825Y-48318125D01*
X120873228Y-48042147D01*
X121000246Y-47735496D01*
X121065000Y-47409958D01*
X121065000Y-47332042D01*
X158589000Y-47332042D01*
X158589000Y-47663958D01*
X158653754Y-47989496D01*
X158780772Y-48296147D01*
X158965175Y-48572125D01*
X159199875Y-48806825D01*
X159475853Y-48991228D01*
X159782504Y-49118246D01*
X160108042Y-49183000D01*
X160439958Y-49183000D01*
X160765496Y-49118246D01*
X161072147Y-48991228D01*
X161348125Y-48806825D01*
X161582825Y-48572125D01*
X161767228Y-48296147D01*
X161894246Y-47989496D01*
X161959000Y-47663958D01*
X161959000Y-47332042D01*
X161894246Y-47006504D01*
X161767228Y-46699853D01*
X161582825Y-46423875D01*
X161348125Y-46189175D01*
X161072147Y-46004772D01*
X160765496Y-45877754D01*
X160439958Y-45813000D01*
X160108042Y-45813000D01*
X159782504Y-45877754D01*
X159475853Y-46004772D01*
X159199875Y-46189175D01*
X158965175Y-46423875D01*
X158780772Y-46699853D01*
X158653754Y-47006504D01*
X158589000Y-47332042D01*
X121065000Y-47332042D01*
X121065000Y-47078042D01*
X121000246Y-46752504D01*
X120873228Y-46445853D01*
X120688825Y-46169875D01*
X120454125Y-45935175D01*
X120178147Y-45750772D01*
X119871496Y-45623754D01*
X119545958Y-45559000D01*
X119214042Y-45559000D01*
X118888504Y-45623754D01*
X118581853Y-45750772D01*
X118305875Y-45935175D01*
X118071175Y-46169875D01*
X117886772Y-46445853D01*
X117759754Y-46752504D01*
X117695000Y-47078042D01*
X111655110Y-47078042D01*
X111580157Y-46866748D01*
X111431178Y-46616645D01*
X111236269Y-46400412D01*
X111002920Y-46226359D01*
X110740099Y-46101175D01*
X110592890Y-46056524D01*
X110363000Y-46177845D01*
X110109000Y-46177845D01*
X109879110Y-46056524D01*
X109731901Y-46101175D01*
X109469080Y-46226359D01*
X109235731Y-46400412D01*
X109040822Y-46616645D01*
X108966000Y-46742255D01*
X108891178Y-46616645D01*
X108696269Y-46400412D01*
X108462920Y-46226359D01*
X108200099Y-46101175D01*
X108052890Y-46056524D01*
X107823000Y-46177845D01*
X107569000Y-46177845D01*
X107339110Y-46056524D01*
X107191901Y-46101175D01*
X106929080Y-46226359D01*
X106695731Y-46400412D01*
X106500822Y-46616645D01*
X106431195Y-46733534D01*
X106309475Y-46551368D01*
X106102632Y-46344525D01*
X105859411Y-46182010D01*
X105589158Y-46070068D01*
X105302260Y-46013000D01*
X105009740Y-46013000D01*
X104722842Y-46070068D01*
X104452589Y-46182010D01*
X104209368Y-46344525D01*
X104077513Y-46476380D01*
X104055502Y-46403820D01*
X103996537Y-46293506D01*
X103917185Y-46196815D01*
X103820494Y-46117463D01*
X103710180Y-46058498D01*
X103590482Y-46022188D01*
X103466000Y-46009928D01*
X103300428Y-46009928D01*
X103244714Y-45980148D01*
X102936515Y-45886657D01*
X102616000Y-45855089D01*
X102295484Y-45886657D01*
X101987285Y-45980148D01*
X101931571Y-46009928D01*
X101766000Y-46009928D01*
X101641518Y-46022188D01*
X101521820Y-46058498D01*
X101411506Y-46117463D01*
X101314815Y-46196815D01*
X101235463Y-46293506D01*
X101176498Y-46403820D01*
X101140188Y-46523518D01*
X101127928Y-46648000D01*
X101127928Y-46813572D01*
X101098148Y-46869286D01*
X101004657Y-47177485D01*
X100981000Y-47417679D01*
X100981001Y-58339669D01*
X100973089Y-58419998D01*
X99770000Y-58419998D01*
X99770000Y-46770720D01*
X99808191Y-46381215D01*
X99911228Y-46039940D01*
X100078590Y-45725178D01*
X100303903Y-45448917D01*
X100578582Y-45221683D01*
X100892164Y-45052130D01*
X101232708Y-44946714D01*
X101620072Y-44906000D01*
X178527280Y-44906000D01*
X178916785Y-44944191D01*
G37*
G04 #@! TD.AperFunction*
M02*
