G04 #@! TF.GenerationSoftware,KiCad,Pcbnew,5.99.0+really5.1.10+dfsg1-1*
G04 #@! TF.CreationDate,2022-01-28T19:42:34+02:00*
G04 #@! TF.ProjectId,RGBmatrix,5247426d-6174-4726-9978-2e6b69636164,rev?*
G04 #@! TF.SameCoordinates,Original*
G04 #@! TF.FileFunction,Legend,Top*
G04 #@! TF.FilePolarity,Positive*
%FSLAX46Y46*%
G04 Gerber Fmt 4.6, Leading zero omitted, Abs format (unit mm)*
G04 Created by KiCad (PCBNEW 5.99.0+really5.1.10+dfsg1-1) date 2022-01-28 19:42:34*
%MOMM*%
%LPD*%
G01*
G04 APERTURE LIST*
%ADD10C,0.250000*%
%ADD11C,0.120000*%
%ADD12R,1.000000X1.500000*%
%ADD13C,2.100000*%
%ADD14O,1.700000X1.700000*%
%ADD15R,1.700000X1.700000*%
G04 APERTURE END LIST*
D10*
X169886523Y-47188380D02*
X169886523Y-46521714D01*
X169886523Y-46712190D02*
X169934142Y-46616952D01*
X169981761Y-46569333D01*
X170077000Y-46521714D01*
X170172238Y-46521714D01*
X170886523Y-47140761D02*
X170791285Y-47188380D01*
X170600809Y-47188380D01*
X170505571Y-47140761D01*
X170457952Y-47045523D01*
X170457952Y-46664571D01*
X170505571Y-46569333D01*
X170600809Y-46521714D01*
X170791285Y-46521714D01*
X170886523Y-46569333D01*
X170934142Y-46664571D01*
X170934142Y-46759809D01*
X170457952Y-46855047D01*
X171267476Y-46521714D02*
X171505571Y-47188380D01*
X171743666Y-46521714D01*
X172838904Y-46902666D02*
X173315095Y-46902666D01*
X172743666Y-47188380D02*
X173077000Y-46188380D01*
X173410333Y-47188380D01*
X104457619Y-45918380D02*
X104457619Y-44918380D01*
X104695714Y-44918380D01*
X104838571Y-44966000D01*
X104933809Y-45061238D01*
X104981428Y-45156476D01*
X105029047Y-45346952D01*
X105029047Y-45489809D01*
X104981428Y-45680285D01*
X104933809Y-45775523D01*
X104838571Y-45870761D01*
X104695714Y-45918380D01*
X104457619Y-45918380D01*
X105457619Y-45918380D02*
X105457619Y-45251714D01*
X105457619Y-44918380D02*
X105410000Y-44966000D01*
X105457619Y-45013619D01*
X105505238Y-44966000D01*
X105457619Y-44918380D01*
X105457619Y-45013619D01*
X105933809Y-45251714D02*
X105933809Y-45918380D01*
X105933809Y-45346952D02*
X105981428Y-45299333D01*
X106076666Y-45251714D01*
X106219523Y-45251714D01*
X106314761Y-45299333D01*
X106362380Y-45394571D01*
X106362380Y-45918380D01*
X108275523Y-45251714D02*
X108275523Y-46061238D01*
X108227904Y-46156476D01*
X108180285Y-46204095D01*
X108085047Y-46251714D01*
X107942190Y-46251714D01*
X107846952Y-46204095D01*
X108275523Y-45870761D02*
X108180285Y-45918380D01*
X107989809Y-45918380D01*
X107894571Y-45870761D01*
X107846952Y-45823142D01*
X107799333Y-45727904D01*
X107799333Y-45442190D01*
X107846952Y-45346952D01*
X107894571Y-45299333D01*
X107989809Y-45251714D01*
X108180285Y-45251714D01*
X108275523Y-45299333D01*
X108751714Y-45251714D02*
X108751714Y-45918380D01*
X108751714Y-45346952D02*
X108799333Y-45299333D01*
X108894571Y-45251714D01*
X109037428Y-45251714D01*
X109132666Y-45299333D01*
X109180285Y-45394571D01*
X109180285Y-45918380D01*
X110085047Y-45918380D02*
X110085047Y-44918380D01*
X110085047Y-45870761D02*
X109989809Y-45918380D01*
X109799333Y-45918380D01*
X109704095Y-45870761D01*
X109656476Y-45823142D01*
X109608857Y-45727904D01*
X109608857Y-45442190D01*
X109656476Y-45346952D01*
X109704095Y-45299333D01*
X109799333Y-45251714D01*
X109989809Y-45251714D01*
X110085047Y-45299333D01*
X101481047Y-44918380D02*
X101004857Y-44918380D01*
X100957238Y-45394571D01*
X101004857Y-45346952D01*
X101100095Y-45299333D01*
X101338190Y-45299333D01*
X101433428Y-45346952D01*
X101481047Y-45394571D01*
X101528666Y-45489809D01*
X101528666Y-45727904D01*
X101481047Y-45823142D01*
X101433428Y-45870761D01*
X101338190Y-45918380D01*
X101100095Y-45918380D01*
X101004857Y-45870761D01*
X100957238Y-45823142D01*
X101814380Y-44918380D02*
X102147714Y-45918380D01*
X102481047Y-44918380D01*
X102814380Y-45918380D02*
X102814380Y-45251714D01*
X102814380Y-44918380D02*
X102766761Y-44966000D01*
X102814380Y-45013619D01*
X102862000Y-44966000D01*
X102814380Y-44918380D01*
X102814380Y-45013619D01*
X103290571Y-45251714D02*
X103290571Y-45918380D01*
X103290571Y-45346952D02*
X103338190Y-45299333D01*
X103433428Y-45251714D01*
X103576285Y-45251714D01*
X103671523Y-45299333D01*
X103719142Y-45394571D01*
X103719142Y-45918380D01*
X166061047Y-130770380D02*
X166251523Y-130770380D01*
X166346761Y-130818000D01*
X166442000Y-130913238D01*
X166489619Y-131103714D01*
X166489619Y-131437047D01*
X166442000Y-131627523D01*
X166346761Y-131722761D01*
X166251523Y-131770380D01*
X166061047Y-131770380D01*
X165965809Y-131722761D01*
X165870571Y-131627523D01*
X165822952Y-131437047D01*
X165822952Y-131103714D01*
X165870571Y-130913238D01*
X165965809Y-130818000D01*
X166061047Y-130770380D01*
X166918190Y-131770380D02*
X166918190Y-130770380D01*
X166918190Y-131246571D02*
X167489619Y-131246571D01*
X167489619Y-131770380D02*
X167489619Y-130770380D01*
X167870571Y-130770380D02*
X168489619Y-130770380D01*
X168156285Y-131151333D01*
X168299142Y-131151333D01*
X168394380Y-131198952D01*
X168442000Y-131246571D01*
X168489619Y-131341809D01*
X168489619Y-131579904D01*
X168442000Y-131675142D01*
X168394380Y-131722761D01*
X168299142Y-131770380D01*
X168013428Y-131770380D01*
X167918190Y-131722761D01*
X167870571Y-131675142D01*
X168918190Y-131770380D02*
X168918190Y-130770380D01*
X168918190Y-131246571D02*
X169489619Y-131246571D01*
X169489619Y-131770380D02*
X169489619Y-130770380D01*
X169870571Y-130770380D02*
X170537238Y-130770380D01*
X169870571Y-131770380D01*
X170537238Y-131770380D01*
X171251523Y-131246571D02*
X171394380Y-131294190D01*
X171442000Y-131341809D01*
X171489619Y-131437047D01*
X171489619Y-131579904D01*
X171442000Y-131675142D01*
X171394380Y-131722761D01*
X171299142Y-131770380D01*
X170918190Y-131770380D01*
X170918190Y-130770380D01*
X171251523Y-130770380D01*
X171346761Y-130818000D01*
X171394380Y-130865619D01*
X171442000Y-130960857D01*
X171442000Y-131056095D01*
X171394380Y-131151333D01*
X171346761Y-131198952D01*
X171251523Y-131246571D01*
X170918190Y-131246571D01*
X172632476Y-130865619D02*
X172680095Y-130818000D01*
X172775333Y-130770380D01*
X173013428Y-130770380D01*
X173108666Y-130818000D01*
X173156285Y-130865619D01*
X173203904Y-130960857D01*
X173203904Y-131056095D01*
X173156285Y-131198952D01*
X172584857Y-131770380D01*
X173203904Y-131770380D01*
X173822952Y-130770380D02*
X173918190Y-130770380D01*
X174013428Y-130818000D01*
X174061047Y-130865619D01*
X174108666Y-130960857D01*
X174156285Y-131151333D01*
X174156285Y-131389428D01*
X174108666Y-131579904D01*
X174061047Y-131675142D01*
X174013428Y-131722761D01*
X173918190Y-131770380D01*
X173822952Y-131770380D01*
X173727714Y-131722761D01*
X173680095Y-131675142D01*
X173632476Y-131579904D01*
X173584857Y-131389428D01*
X173584857Y-131151333D01*
X173632476Y-130960857D01*
X173680095Y-130865619D01*
X173727714Y-130818000D01*
X173822952Y-130770380D01*
X174537238Y-130865619D02*
X174584857Y-130818000D01*
X174680095Y-130770380D01*
X174918190Y-130770380D01*
X175013428Y-130818000D01*
X175061047Y-130865619D01*
X175108666Y-130960857D01*
X175108666Y-131056095D01*
X175061047Y-131198952D01*
X174489619Y-131770380D01*
X175108666Y-131770380D01*
X175489619Y-130865619D02*
X175537238Y-130818000D01*
X175632476Y-130770380D01*
X175870571Y-130770380D01*
X175965809Y-130818000D01*
X176013428Y-130865619D01*
X176061047Y-130960857D01*
X176061047Y-131056095D01*
X176013428Y-131198952D01*
X175442000Y-131770380D01*
X176061047Y-131770380D01*
X133279428Y-131024380D02*
X133517523Y-132024380D01*
X133708000Y-131310095D01*
X133898476Y-132024380D01*
X134136571Y-131024380D01*
X134469904Y-131976761D02*
X134612761Y-132024380D01*
X134850857Y-132024380D01*
X134946095Y-131976761D01*
X134993714Y-131929142D01*
X135041333Y-131833904D01*
X135041333Y-131738666D01*
X134993714Y-131643428D01*
X134946095Y-131595809D01*
X134850857Y-131548190D01*
X134660380Y-131500571D01*
X134565142Y-131452952D01*
X134517523Y-131405333D01*
X134469904Y-131310095D01*
X134469904Y-131214857D01*
X134517523Y-131119619D01*
X134565142Y-131072000D01*
X134660380Y-131024380D01*
X134898476Y-131024380D01*
X135041333Y-131072000D01*
X135422285Y-131119619D02*
X135469904Y-131072000D01*
X135565142Y-131024380D01*
X135803238Y-131024380D01*
X135898476Y-131072000D01*
X135946095Y-131119619D01*
X135993714Y-131214857D01*
X135993714Y-131310095D01*
X135946095Y-131452952D01*
X135374666Y-132024380D01*
X135993714Y-132024380D01*
X136565142Y-131452952D02*
X136469904Y-131405333D01*
X136422285Y-131357714D01*
X136374666Y-131262476D01*
X136374666Y-131214857D01*
X136422285Y-131119619D01*
X136469904Y-131072000D01*
X136565142Y-131024380D01*
X136755619Y-131024380D01*
X136850857Y-131072000D01*
X136898476Y-131119619D01*
X136946095Y-131214857D01*
X136946095Y-131262476D01*
X136898476Y-131357714D01*
X136850857Y-131405333D01*
X136755619Y-131452952D01*
X136565142Y-131452952D01*
X136469904Y-131500571D01*
X136422285Y-131548190D01*
X136374666Y-131643428D01*
X136374666Y-131833904D01*
X136422285Y-131929142D01*
X136469904Y-131976761D01*
X136565142Y-132024380D01*
X136755619Y-132024380D01*
X136850857Y-131976761D01*
X136898476Y-131929142D01*
X136946095Y-131833904D01*
X136946095Y-131643428D01*
X136898476Y-131548190D01*
X136850857Y-131500571D01*
X136755619Y-131452952D01*
X137898476Y-132024380D02*
X137327047Y-132024380D01*
X137612761Y-132024380D02*
X137612761Y-131024380D01*
X137517523Y-131167238D01*
X137422285Y-131262476D01*
X137327047Y-131310095D01*
X138231809Y-131024380D02*
X138850857Y-131024380D01*
X138517523Y-131405333D01*
X138660380Y-131405333D01*
X138755619Y-131452952D01*
X138803238Y-131500571D01*
X138850857Y-131595809D01*
X138850857Y-131833904D01*
X138803238Y-131929142D01*
X138755619Y-131976761D01*
X138660380Y-132024380D01*
X138374666Y-132024380D01*
X138279428Y-131976761D01*
X138231809Y-131929142D01*
X139612761Y-131500571D02*
X139755619Y-131548190D01*
X139803238Y-131595809D01*
X139850857Y-131691047D01*
X139850857Y-131833904D01*
X139803238Y-131929142D01*
X139755619Y-131976761D01*
X139660380Y-132024380D01*
X139279428Y-132024380D01*
X139279428Y-131024380D01*
X139612761Y-131024380D01*
X139708000Y-131072000D01*
X139755619Y-131119619D01*
X139803238Y-131214857D01*
X139803238Y-131310095D01*
X139755619Y-131405333D01*
X139708000Y-131452952D01*
X139612761Y-131500571D01*
X139279428Y-131500571D01*
X141184190Y-131452952D02*
X141088952Y-131405333D01*
X141041333Y-131357714D01*
X140993714Y-131262476D01*
X140993714Y-131214857D01*
X141041333Y-131119619D01*
X141088952Y-131072000D01*
X141184190Y-131024380D01*
X141374666Y-131024380D01*
X141469904Y-131072000D01*
X141517523Y-131119619D01*
X141565142Y-131214857D01*
X141565142Y-131262476D01*
X141517523Y-131357714D01*
X141469904Y-131405333D01*
X141374666Y-131452952D01*
X141184190Y-131452952D01*
X141088952Y-131500571D01*
X141041333Y-131548190D01*
X140993714Y-131643428D01*
X140993714Y-131833904D01*
X141041333Y-131929142D01*
X141088952Y-131976761D01*
X141184190Y-132024380D01*
X141374666Y-132024380D01*
X141469904Y-131976761D01*
X141517523Y-131929142D01*
X141565142Y-131833904D01*
X141565142Y-131643428D01*
X141517523Y-131548190D01*
X141469904Y-131500571D01*
X141374666Y-131452952D01*
X141898476Y-132024380D02*
X142422285Y-131357714D01*
X141898476Y-131357714D02*
X142422285Y-132024380D01*
X142946095Y-131452952D02*
X142850857Y-131405333D01*
X142803238Y-131357714D01*
X142755619Y-131262476D01*
X142755619Y-131214857D01*
X142803238Y-131119619D01*
X142850857Y-131072000D01*
X142946095Y-131024380D01*
X143136571Y-131024380D01*
X143231809Y-131072000D01*
X143279428Y-131119619D01*
X143327047Y-131214857D01*
X143327047Y-131262476D01*
X143279428Y-131357714D01*
X143231809Y-131405333D01*
X143136571Y-131452952D01*
X142946095Y-131452952D01*
X142850857Y-131500571D01*
X142803238Y-131548190D01*
X142755619Y-131643428D01*
X142755619Y-131833904D01*
X142803238Y-131929142D01*
X142850857Y-131976761D01*
X142946095Y-132024380D01*
X143136571Y-132024380D01*
X143231809Y-131976761D01*
X143279428Y-131929142D01*
X143327047Y-131833904D01*
X143327047Y-131643428D01*
X143279428Y-131548190D01*
X143231809Y-131500571D01*
X143136571Y-131452952D01*
X145088952Y-132024380D02*
X144755619Y-131548190D01*
X144517523Y-132024380D02*
X144517523Y-131024380D01*
X144898476Y-131024380D01*
X144993714Y-131072000D01*
X145041333Y-131119619D01*
X145088952Y-131214857D01*
X145088952Y-131357714D01*
X145041333Y-131452952D01*
X144993714Y-131500571D01*
X144898476Y-131548190D01*
X144517523Y-131548190D01*
X146041333Y-131072000D02*
X145946095Y-131024380D01*
X145803238Y-131024380D01*
X145660380Y-131072000D01*
X145565142Y-131167238D01*
X145517523Y-131262476D01*
X145469904Y-131452952D01*
X145469904Y-131595809D01*
X145517523Y-131786285D01*
X145565142Y-131881523D01*
X145660380Y-131976761D01*
X145803238Y-132024380D01*
X145898476Y-132024380D01*
X146041333Y-131976761D01*
X146088952Y-131929142D01*
X146088952Y-131595809D01*
X145898476Y-131595809D01*
X146850857Y-131500571D02*
X146993714Y-131548190D01*
X147041333Y-131595809D01*
X147088952Y-131691047D01*
X147088952Y-131833904D01*
X147041333Y-131929142D01*
X146993714Y-131976761D01*
X146898476Y-132024380D01*
X146517523Y-132024380D01*
X146517523Y-131024380D01*
X146850857Y-131024380D01*
X146946095Y-131072000D01*
X146993714Y-131119619D01*
X147041333Y-131214857D01*
X147041333Y-131310095D01*
X146993714Y-131405333D01*
X146946095Y-131452952D01*
X146850857Y-131500571D01*
X146517523Y-131500571D01*
D11*
X109497600Y-121153458D02*
X109497600Y-120678942D01*
X110542600Y-121153458D02*
X110542600Y-120678942D01*
X119683000Y-121229658D02*
X119683000Y-120755142D01*
X120728000Y-121229658D02*
X120728000Y-120755142D01*
X129804900Y-121153458D02*
X129804900Y-120678942D01*
X130849900Y-121153458D02*
X130849900Y-120678942D01*
X139914100Y-121216958D02*
X139914100Y-120742442D01*
X140959100Y-121216958D02*
X140959100Y-120742442D01*
X150239200Y-121166158D02*
X150239200Y-120691642D01*
X151284200Y-121166158D02*
X151284200Y-120691642D01*
X160386500Y-121204258D02*
X160386500Y-120729742D01*
X161431500Y-121204258D02*
X161431500Y-120729742D01*
X170533800Y-121230158D02*
X170533800Y-120755642D01*
X171578800Y-121230158D02*
X171578800Y-120755642D01*
X176195258Y-120029500D02*
X175720742Y-120029500D01*
X176195258Y-118984500D02*
X175720742Y-118984500D01*
X169800800Y-117974842D02*
X169800800Y-118449358D01*
X168755800Y-117974842D02*
X168755800Y-118449358D01*
X159475700Y-118114542D02*
X159475700Y-118589058D01*
X158430700Y-118114542D02*
X158430700Y-118589058D01*
X149506200Y-118151642D02*
X149506200Y-118626158D01*
X148461200Y-118151642D02*
X148461200Y-118626158D01*
X138952500Y-118152642D02*
X138952500Y-118627158D01*
X137907500Y-118152642D02*
X137907500Y-118627158D01*
X128863620Y-118083062D02*
X128863620Y-118557578D01*
X127818620Y-118083062D02*
X127818620Y-118557578D01*
X118784900Y-118089142D02*
X118784900Y-118563658D01*
X117739900Y-118089142D02*
X117739900Y-118563658D01*
X108764600Y-118139442D02*
X108764600Y-118613958D01*
X107719600Y-118139442D02*
X107719600Y-118613958D01*
X100979500Y-117935742D02*
X100979500Y-118410258D01*
X99934500Y-117935742D02*
X99934500Y-118410258D01*
X109647460Y-100533738D02*
X109647460Y-100059222D01*
X110692460Y-100533738D02*
X110692460Y-100059222D01*
X119873500Y-100655658D02*
X119873500Y-100181142D01*
X120918500Y-100655658D02*
X120918500Y-100181142D01*
X129843000Y-100694258D02*
X129843000Y-100219742D01*
X130888000Y-100694258D02*
X130888000Y-100219742D01*
X140485600Y-100516958D02*
X140485600Y-100042442D01*
X141530600Y-100516958D02*
X141530600Y-100042442D01*
X150315400Y-100554058D02*
X150315400Y-100079542D01*
X151360400Y-100554058D02*
X151360400Y-100079542D01*
X160538900Y-100592158D02*
X160538900Y-100117642D01*
X161583900Y-100592158D02*
X161583900Y-100117642D01*
X170762400Y-100593158D02*
X170762400Y-100118642D01*
X171807400Y-100593158D02*
X171807400Y-100118642D01*
X176323258Y-99582500D02*
X175848742Y-99582500D01*
X176323258Y-98537500D02*
X175848742Y-98537500D01*
X169722060Y-97303822D02*
X169722060Y-97778338D01*
X168677060Y-97303822D02*
X168677060Y-97778338D01*
X159539200Y-97477042D02*
X159539200Y-97951558D01*
X158494200Y-97477042D02*
X158494200Y-97951558D01*
X149264900Y-97527342D02*
X149264900Y-98001858D01*
X148219900Y-97527342D02*
X148219900Y-98001858D01*
X139079500Y-97311942D02*
X139079500Y-97786458D01*
X138034500Y-97311942D02*
X138034500Y-97786458D01*
X128957600Y-97629442D02*
X128957600Y-98103958D01*
X127912600Y-97629442D02*
X127912600Y-98103958D01*
X119064300Y-97644182D02*
X119064300Y-98118698D01*
X118019300Y-97644182D02*
X118019300Y-98118698D01*
X108459800Y-97591342D02*
X108459800Y-98065858D01*
X107414800Y-97591342D02*
X107414800Y-98065858D01*
X102976142Y-98359700D02*
X103450658Y-98359700D01*
X102976142Y-99404700D02*
X103450658Y-99404700D01*
X109345200Y-80806558D02*
X109345200Y-80332042D01*
X110390200Y-80806558D02*
X110390200Y-80332042D01*
X119543300Y-80742058D02*
X119543300Y-80267542D01*
X120588300Y-80742058D02*
X120588300Y-80267542D01*
X129792200Y-80628758D02*
X129792200Y-80154242D01*
X130837200Y-80628758D02*
X130837200Y-80154242D01*
X140003000Y-80640458D02*
X140003000Y-80165942D01*
X141048000Y-80640458D02*
X141048000Y-80165942D01*
X150607500Y-80564258D02*
X150607500Y-80089742D01*
X151652500Y-80564258D02*
X151652500Y-80089742D01*
X160424600Y-80907658D02*
X160424600Y-80433142D01*
X161469600Y-80907658D02*
X161469600Y-80433142D01*
X170607460Y-80597778D02*
X170607460Y-80123262D01*
X171652460Y-80597778D02*
X171652460Y-80123262D01*
X176259258Y-79643500D02*
X175784742Y-79643500D01*
X176259258Y-78598500D02*
X175784742Y-78598500D01*
X169391860Y-77606622D02*
X169391860Y-78081138D01*
X168346860Y-77606622D02*
X168346860Y-78081138D01*
X159145500Y-77613742D02*
X159145500Y-78088258D01*
X158100500Y-77613742D02*
X158100500Y-78088258D01*
X149074400Y-77588342D02*
X149074400Y-78062858D01*
X148029400Y-77588342D02*
X148029400Y-78062858D01*
X138728980Y-77388182D02*
X138728980Y-77862698D01*
X137683980Y-77388182D02*
X137683980Y-77862698D01*
X129046500Y-77677742D02*
X129046500Y-78152258D01*
X128001500Y-77677742D02*
X128001500Y-78152258D01*
X118642660Y-77652342D02*
X118642660Y-78126858D01*
X117597660Y-77652342D02*
X117597660Y-78126858D01*
X108434400Y-77677742D02*
X108434400Y-78152258D01*
X107389400Y-77677742D02*
X107389400Y-78152258D01*
X103000542Y-77938100D02*
X103475058Y-77938100D01*
X103000542Y-78983100D02*
X103475058Y-78983100D01*
X108434600Y-122376020D02*
X108434600Y-122657180D01*
X107414600Y-122376020D02*
X107414600Y-122657180D01*
X118874000Y-122274420D02*
X118874000Y-122555580D01*
X117854000Y-122274420D02*
X117854000Y-122555580D01*
X129039080Y-122467460D02*
X129039080Y-122748620D01*
X128019080Y-122467460D02*
X128019080Y-122748620D01*
X139270200Y-122422340D02*
X139270200Y-122703500D01*
X138250200Y-122422340D02*
X138250200Y-122703500D01*
X148922200Y-122587140D02*
X148922200Y-122868300D01*
X147902200Y-122587140D02*
X147902200Y-122868300D01*
X159498760Y-122492860D02*
X159498760Y-122774020D01*
X158478760Y-122492860D02*
X158478760Y-122774020D01*
X169582560Y-122569060D02*
X169582560Y-122850220D01*
X168562560Y-122569060D02*
X168562560Y-122850220D01*
X179580000Y-122655420D02*
X179580000Y-122936580D01*
X178560000Y-122655420D02*
X178560000Y-122936580D01*
X171143200Y-116845660D02*
X171143200Y-116564500D01*
X172163200Y-116845660D02*
X172163200Y-116564500D01*
X160866360Y-116934860D02*
X160866360Y-116653700D01*
X161886360Y-116934860D02*
X161886360Y-116653700D01*
X150620000Y-116993580D02*
X150620000Y-116712420D01*
X151640000Y-116993580D02*
X151640000Y-116712420D01*
X140617480Y-116970420D02*
X140617480Y-116689260D01*
X141637480Y-116970420D02*
X141637480Y-116689260D01*
X129964720Y-116622440D02*
X129964720Y-116341280D01*
X130984720Y-116622440D02*
X130984720Y-116341280D01*
X120018080Y-116802780D02*
X120018080Y-116521620D01*
X121038080Y-116802780D02*
X121038080Y-116521620D01*
X110015560Y-117118040D02*
X110015560Y-116836880D01*
X111035560Y-117118040D02*
X111035560Y-116836880D01*
X99947000Y-114313580D02*
X99947000Y-114032420D01*
X100967000Y-114313580D02*
X100967000Y-114032420D01*
X108587000Y-101784540D02*
X108587000Y-102065700D01*
X107567000Y-101784540D02*
X107567000Y-102065700D01*
X118660640Y-102330940D02*
X118660640Y-102612100D01*
X117640640Y-102330940D02*
X117640640Y-102612100D01*
X129084800Y-101855660D02*
X129084800Y-102136820D01*
X128064800Y-101855660D02*
X128064800Y-102136820D01*
X138942540Y-101746740D02*
X138942540Y-102027900D01*
X137922540Y-101746740D02*
X137922540Y-102027900D01*
X149333680Y-102005520D02*
X149333680Y-102286680D01*
X148313680Y-102005520D02*
X148313680Y-102286680D01*
X159544480Y-101871200D02*
X159544480Y-102152360D01*
X158524480Y-101871200D02*
X158524480Y-102152360D01*
X169536840Y-101908700D02*
X169536840Y-102189860D01*
X168516840Y-101908700D02*
X168516840Y-102189860D01*
X179453000Y-102361420D02*
X179453000Y-102642580D01*
X178433000Y-102361420D02*
X178433000Y-102642580D01*
X170940000Y-96152580D02*
X170940000Y-95871420D01*
X171960000Y-96152580D02*
X171960000Y-95871420D01*
X160734280Y-96282420D02*
X160734280Y-96001260D01*
X161754280Y-96282420D02*
X161754280Y-96001260D01*
X150604760Y-96350400D02*
X150604760Y-96069240D01*
X151624760Y-96350400D02*
X151624760Y-96069240D01*
X140434600Y-96457380D02*
X140434600Y-96176220D01*
X141454600Y-96457380D02*
X141454600Y-96176220D01*
X130046000Y-96406580D02*
X130046000Y-96125420D01*
X131066000Y-96406580D02*
X131066000Y-96125420D01*
X120013000Y-96406580D02*
X120013000Y-96125420D01*
X121033000Y-96406580D02*
X121033000Y-96125420D01*
X109853000Y-96165580D02*
X109853000Y-95884420D01*
X110873000Y-96165580D02*
X110873000Y-95884420D01*
X100007960Y-98207440D02*
X100007960Y-97926280D01*
X101027960Y-98207440D02*
X101027960Y-97926280D01*
X108343160Y-81962380D02*
X108343160Y-82243540D01*
X107323160Y-81962380D02*
X107323160Y-82243540D01*
X118752080Y-81855700D02*
X118752080Y-82136860D01*
X117732080Y-81855700D02*
X117732080Y-82136860D01*
X128907000Y-81761420D02*
X128907000Y-82042580D01*
X127887000Y-81761420D02*
X127887000Y-82042580D01*
X139102560Y-81782340D02*
X139102560Y-82063500D01*
X138082560Y-81782340D02*
X138082560Y-82063500D01*
X149135560Y-81863020D02*
X149135560Y-82144180D01*
X148115560Y-81863020D02*
X148115560Y-82144180D01*
X159351440Y-82038880D02*
X159351440Y-82320040D01*
X158331440Y-82038880D02*
X158331440Y-82320040D01*
X169420000Y-81901420D02*
X169420000Y-82182580D01*
X168400000Y-81901420D02*
X168400000Y-82182580D01*
X178433000Y-79248580D02*
X178433000Y-78967420D01*
X179453000Y-79248580D02*
X179453000Y-78967420D01*
X170980640Y-76297100D02*
X170980640Y-76015940D01*
X172000640Y-76297100D02*
X172000640Y-76015940D01*
X160780000Y-76327580D02*
X160780000Y-76046420D01*
X161800000Y-76327580D02*
X161800000Y-76046420D01*
X150366000Y-76607580D02*
X150366000Y-76326420D01*
X151386000Y-76607580D02*
X151386000Y-76326420D01*
X140617480Y-76211340D02*
X140617480Y-75930180D01*
X141637480Y-76211340D02*
X141637480Y-75930180D01*
X130300000Y-76340580D02*
X130300000Y-76059420D01*
X131320000Y-76340580D02*
X131320000Y-76059420D01*
X120048560Y-76467580D02*
X120048560Y-76186420D01*
X121068560Y-76467580D02*
X121068560Y-76186420D01*
X109840300Y-76327580D02*
X109840300Y-76046420D01*
X110860300Y-76327580D02*
X110860300Y-76046420D01*
X100074000Y-75311580D02*
X100074000Y-75030420D01*
X101094000Y-75311580D02*
X101094000Y-75030420D01*
X109053100Y-60460658D02*
X109053100Y-59986142D01*
X110098100Y-60460658D02*
X110098100Y-59986142D01*
X119289300Y-60384458D02*
X119289300Y-59909942D01*
X120334300Y-60384458D02*
X120334300Y-59909942D01*
X130058900Y-60321458D02*
X130058900Y-59846942D01*
X131103900Y-60321458D02*
X131103900Y-59846942D01*
X139571200Y-60359558D02*
X139571200Y-59885042D01*
X140616200Y-60359558D02*
X140616200Y-59885042D01*
X149934400Y-60625758D02*
X149934400Y-60151242D01*
X150979400Y-60625758D02*
X150979400Y-60151242D01*
X159751500Y-60435258D02*
X159751500Y-59960742D01*
X160796500Y-60435258D02*
X160796500Y-59960742D01*
X170673500Y-59927258D02*
X170673500Y-59452742D01*
X171718500Y-59927258D02*
X171718500Y-59452742D01*
X176577258Y-58942500D02*
X176102742Y-58942500D01*
X176577258Y-57897500D02*
X176102742Y-57897500D01*
X108460000Y-61454420D02*
X108460000Y-61735580D01*
X107440000Y-61454420D02*
X107440000Y-61735580D01*
X118645400Y-61416620D02*
X118645400Y-61697780D01*
X117625400Y-61416620D02*
X117625400Y-61697780D01*
X129059400Y-61416620D02*
X129059400Y-61697780D01*
X128039400Y-61416620D02*
X128039400Y-61697780D01*
X138774900Y-61365520D02*
X138774900Y-61646680D01*
X137754900Y-61365520D02*
X137754900Y-61646680D01*
X148998400Y-61365820D02*
X148998400Y-61646980D01*
X147978400Y-61365820D02*
X147978400Y-61646980D01*
X159006000Y-61340420D02*
X159006000Y-61621580D01*
X157986000Y-61340420D02*
X157986000Y-61621580D01*
X169420000Y-61340420D02*
X169420000Y-61621580D01*
X168400000Y-61340420D02*
X168400000Y-61621580D01*
X179707000Y-61467420D02*
X179707000Y-61748580D01*
X178687000Y-61467420D02*
X178687000Y-61748580D01*
X101094000Y-48119420D02*
X101094000Y-48400580D01*
X100074000Y-48119420D02*
X100074000Y-48400580D01*
X170514540Y-56404742D02*
X170514540Y-56879258D01*
X169469540Y-56404742D02*
X169469540Y-56879258D01*
X159841460Y-56808102D02*
X159841460Y-57282618D01*
X158796460Y-56808102D02*
X158796460Y-57282618D01*
X149981180Y-56609982D02*
X149981180Y-57084498D01*
X148936180Y-56609982D02*
X148936180Y-57084498D01*
X139785620Y-56826382D02*
X139785620Y-57300898D01*
X138740620Y-56826382D02*
X138740620Y-57300898D01*
X171107640Y-55451620D02*
X171107640Y-55170460D01*
X172127640Y-55451620D02*
X172127640Y-55170460D01*
X160998440Y-55342100D02*
X160998440Y-55060940D01*
X162018440Y-55342100D02*
X162018440Y-55060940D01*
X150701280Y-55352860D02*
X150701280Y-55071700D01*
X151721280Y-55352860D02*
X151721280Y-55071700D01*
X140429520Y-55357340D02*
X140429520Y-55076180D01*
X141449520Y-55357340D02*
X141449520Y-55076180D01*
X130452400Y-55182080D02*
X130452400Y-54900920D01*
X131472400Y-55182080D02*
X131472400Y-54900920D01*
X109776800Y-55664980D02*
X109776800Y-55383820D01*
X110796800Y-55664980D02*
X110796800Y-55383820D01*
X101094000Y-58025420D02*
X101094000Y-58306580D01*
X100074000Y-58025420D02*
X100074000Y-58306580D01*
X120216200Y-55601480D02*
X120216200Y-55320320D01*
X121236200Y-55601480D02*
X121236200Y-55320320D01*
X129859300Y-56798442D02*
X129859300Y-57272958D01*
X128814300Y-56798442D02*
X128814300Y-57272958D01*
X109021140Y-56927982D02*
X109021140Y-57402498D01*
X107976140Y-56927982D02*
X107976140Y-57402498D01*
X100061500Y-55164258D02*
X100061500Y-54689742D01*
X101106500Y-55164258D02*
X101106500Y-54689742D01*
X119612940Y-56831462D02*
X119612940Y-57305978D01*
X118567940Y-56831462D02*
X118567940Y-57305978D01*
X131870000Y-120810000D02*
X131870000Y-128110000D01*
X136220000Y-120810000D02*
X137370000Y-120810000D01*
X137370000Y-120810000D02*
X137370000Y-128110000D01*
X121710000Y-120810000D02*
X121710000Y-128110000D01*
X126060000Y-120810000D02*
X127210000Y-120810000D01*
X127210000Y-120810000D02*
X127210000Y-128110000D01*
X111550000Y-120810000D02*
X111550000Y-128110000D01*
X115900000Y-120810000D02*
X117050000Y-120810000D01*
X117050000Y-120810000D02*
X117050000Y-128110000D01*
X142030000Y-120810000D02*
X142030000Y-128110000D01*
X146380000Y-120810000D02*
X147530000Y-120810000D01*
X147530000Y-120810000D02*
X147530000Y-128110000D01*
X101390000Y-120810000D02*
X101390000Y-128110000D01*
X105740000Y-120810000D02*
X106890000Y-120810000D01*
X106890000Y-120810000D02*
X106890000Y-128110000D01*
X152190000Y-120810000D02*
X152190000Y-128110000D01*
X156540000Y-120810000D02*
X157690000Y-120810000D01*
X157690000Y-120810000D02*
X157690000Y-128110000D01*
X162350000Y-120810000D02*
X162350000Y-128110000D01*
X166700000Y-120810000D02*
X167850000Y-120810000D01*
X167850000Y-120810000D02*
X167850000Y-128110000D01*
X172510000Y-120810000D02*
X172510000Y-128110000D01*
X176860000Y-120810000D02*
X178010000Y-120810000D01*
X178010000Y-120810000D02*
X178010000Y-128110000D01*
X178010000Y-117950000D02*
X178010000Y-110650000D01*
X173660000Y-117950000D02*
X172510000Y-117950000D01*
X172510000Y-117950000D02*
X172510000Y-110650000D01*
X167850000Y-117950000D02*
X167850000Y-110650000D01*
X163500000Y-117950000D02*
X162350000Y-117950000D01*
X162350000Y-117950000D02*
X162350000Y-110650000D01*
X157690000Y-117950000D02*
X157690000Y-110650000D01*
X153340000Y-117950000D02*
X152190000Y-117950000D01*
X152190000Y-117950000D02*
X152190000Y-110650000D01*
X147530000Y-117950000D02*
X147530000Y-110650000D01*
X143180000Y-117950000D02*
X142030000Y-117950000D01*
X142030000Y-117950000D02*
X142030000Y-110650000D01*
X137370000Y-117950000D02*
X137370000Y-110650000D01*
X133020000Y-117950000D02*
X131870000Y-117950000D01*
X131870000Y-117950000D02*
X131870000Y-110650000D01*
X127210000Y-117950000D02*
X127210000Y-110650000D01*
X122860000Y-117950000D02*
X121710000Y-117950000D01*
X121710000Y-117950000D02*
X121710000Y-110650000D01*
X117050000Y-117950000D02*
X117050000Y-110650000D01*
X112700000Y-117950000D02*
X111550000Y-117950000D01*
X111550000Y-117950000D02*
X111550000Y-110650000D01*
X106890000Y-117950000D02*
X106890000Y-110650000D01*
X102540000Y-117950000D02*
X101390000Y-117950000D01*
X101390000Y-117950000D02*
X101390000Y-110650000D01*
X101390000Y-100490000D02*
X101390000Y-107790000D01*
X105740000Y-100490000D02*
X106890000Y-100490000D01*
X106890000Y-100490000D02*
X106890000Y-107790000D01*
X111550000Y-100490000D02*
X111550000Y-107790000D01*
X115900000Y-100490000D02*
X117050000Y-100490000D01*
X117050000Y-100490000D02*
X117050000Y-107790000D01*
X121710000Y-100490000D02*
X121710000Y-107790000D01*
X126060000Y-100490000D02*
X127210000Y-100490000D01*
X127210000Y-100490000D02*
X127210000Y-107790000D01*
X131870000Y-100490000D02*
X131870000Y-107790000D01*
X136220000Y-100490000D02*
X137370000Y-100490000D01*
X137370000Y-100490000D02*
X137370000Y-107790000D01*
X142030000Y-100490000D02*
X142030000Y-107790000D01*
X146380000Y-100490000D02*
X147530000Y-100490000D01*
X147530000Y-100490000D02*
X147530000Y-107790000D01*
X152190000Y-100490000D02*
X152190000Y-107790000D01*
X156540000Y-100490000D02*
X157690000Y-100490000D01*
X157690000Y-100490000D02*
X157690000Y-107790000D01*
X162350000Y-100580000D02*
X162350000Y-107880000D01*
X166700000Y-100580000D02*
X167850000Y-100580000D01*
X167850000Y-100580000D02*
X167850000Y-107880000D01*
X172510000Y-100490000D02*
X172510000Y-107790000D01*
X176860000Y-100490000D02*
X178010000Y-100490000D01*
X178010000Y-100490000D02*
X178010000Y-107790000D01*
X178010000Y-97630000D02*
X178010000Y-90330000D01*
X173660000Y-97630000D02*
X172510000Y-97630000D01*
X172510000Y-97630000D02*
X172510000Y-90330000D01*
X167850000Y-97630000D02*
X167850000Y-90330000D01*
X163500000Y-97630000D02*
X162350000Y-97630000D01*
X162350000Y-97630000D02*
X162350000Y-90330000D01*
X157690000Y-97630000D02*
X157690000Y-90330000D01*
X153340000Y-97630000D02*
X152190000Y-97630000D01*
X152190000Y-97630000D02*
X152190000Y-90330000D01*
X147530000Y-97630000D02*
X147530000Y-90330000D01*
X143180000Y-97630000D02*
X142030000Y-97630000D01*
X142030000Y-97630000D02*
X142030000Y-90330000D01*
X137370000Y-97630000D02*
X137370000Y-90330000D01*
X133020000Y-97630000D02*
X131870000Y-97630000D01*
X131870000Y-97630000D02*
X131870000Y-90330000D01*
X127210000Y-97630000D02*
X127210000Y-90330000D01*
X122860000Y-97630000D02*
X121710000Y-97630000D01*
X121710000Y-97630000D02*
X121710000Y-90330000D01*
X117050000Y-97630000D02*
X117050000Y-90330000D01*
X112700000Y-97630000D02*
X111550000Y-97630000D01*
X111550000Y-97630000D02*
X111550000Y-90330000D01*
X106890000Y-97630000D02*
X106890000Y-90330000D01*
X102540000Y-97630000D02*
X101390000Y-97630000D01*
X101390000Y-97630000D02*
X101390000Y-90330000D01*
X101390000Y-80170000D02*
X101390000Y-87470000D01*
X105740000Y-80170000D02*
X106890000Y-80170000D01*
X106890000Y-80170000D02*
X106890000Y-87470000D01*
X111550000Y-80170000D02*
X111550000Y-87470000D01*
X115900000Y-80170000D02*
X117050000Y-80170000D01*
X117050000Y-80170000D02*
X117050000Y-87470000D01*
X121710000Y-80170000D02*
X121710000Y-87470000D01*
X126060000Y-80170000D02*
X127210000Y-80170000D01*
X127210000Y-80170000D02*
X127210000Y-87470000D01*
X131870000Y-80170000D02*
X131870000Y-87470000D01*
X136220000Y-80170000D02*
X137370000Y-80170000D01*
X137370000Y-80170000D02*
X137370000Y-87470000D01*
X142030000Y-80170000D02*
X142030000Y-87470000D01*
X146380000Y-80170000D02*
X147530000Y-80170000D01*
X147530000Y-80170000D02*
X147530000Y-87470000D01*
X152190000Y-80170000D02*
X152190000Y-87470000D01*
X156540000Y-80170000D02*
X157690000Y-80170000D01*
X157690000Y-80170000D02*
X157690000Y-87470000D01*
X162350000Y-80170000D02*
X162350000Y-87470000D01*
X166700000Y-80170000D02*
X167850000Y-80170000D01*
X167850000Y-80170000D02*
X167850000Y-87470000D01*
X172510000Y-80170000D02*
X172510000Y-87470000D01*
X176860000Y-80170000D02*
X178010000Y-80170000D01*
X178010000Y-80170000D02*
X178010000Y-87470000D01*
X178010000Y-77310000D02*
X178010000Y-70010000D01*
X173660000Y-77310000D02*
X172510000Y-77310000D01*
X172510000Y-77310000D02*
X172510000Y-70010000D01*
X167850000Y-77310000D02*
X167850000Y-70010000D01*
X163500000Y-77310000D02*
X162350000Y-77310000D01*
X162350000Y-77310000D02*
X162350000Y-70010000D01*
X157690000Y-77310000D02*
X157690000Y-70010000D01*
X153340000Y-77310000D02*
X152190000Y-77310000D01*
X152190000Y-77310000D02*
X152190000Y-70010000D01*
X147530000Y-77310000D02*
X147530000Y-70010000D01*
X143180000Y-77310000D02*
X142030000Y-77310000D01*
X142030000Y-77310000D02*
X142030000Y-70010000D01*
X137370000Y-77310000D02*
X137370000Y-70010000D01*
X133020000Y-77310000D02*
X131870000Y-77310000D01*
X131870000Y-77310000D02*
X131870000Y-70010000D01*
X127210000Y-77310000D02*
X127210000Y-70010000D01*
X122860000Y-77310000D02*
X121710000Y-77310000D01*
X121710000Y-77310000D02*
X121710000Y-70010000D01*
X117050000Y-77310000D02*
X117050000Y-70010000D01*
X112700000Y-77310000D02*
X111550000Y-77310000D01*
X111550000Y-77310000D02*
X111550000Y-70010000D01*
X106890000Y-77310000D02*
X106890000Y-70010000D01*
X102540000Y-77310000D02*
X101390000Y-77310000D01*
X101390000Y-77310000D02*
X101390000Y-70010000D01*
X101390000Y-59850000D02*
X101390000Y-67150000D01*
X105740000Y-59850000D02*
X106890000Y-59850000D01*
X106890000Y-59850000D02*
X106890000Y-67150000D01*
X111550000Y-59850000D02*
X111550000Y-67150000D01*
X115900000Y-59850000D02*
X117050000Y-59850000D01*
X117050000Y-59850000D02*
X117050000Y-67150000D01*
X121964000Y-59850000D02*
X121964000Y-67150000D01*
X126314000Y-59850000D02*
X127464000Y-59850000D01*
X127464000Y-59850000D02*
X127464000Y-67150000D01*
X131870000Y-59850000D02*
X131870000Y-67150000D01*
X136220000Y-59850000D02*
X137370000Y-59850000D01*
X137370000Y-59850000D02*
X137370000Y-67150000D01*
X142030000Y-59850000D02*
X142030000Y-67150000D01*
X146380000Y-59850000D02*
X147530000Y-59850000D01*
X147530000Y-59850000D02*
X147530000Y-67150000D01*
X152190000Y-59850000D02*
X152190000Y-67150000D01*
X156540000Y-59850000D02*
X157690000Y-59850000D01*
X157690000Y-59850000D02*
X157690000Y-67150000D01*
X162350000Y-59850000D02*
X162350000Y-67150000D01*
X166700000Y-59850000D02*
X167850000Y-59850000D01*
X167850000Y-59850000D02*
X167850000Y-67150000D01*
X172510000Y-59850000D02*
X172510000Y-67150000D01*
X176860000Y-59850000D02*
X178010000Y-59850000D01*
X178010000Y-59850000D02*
X178010000Y-67150000D01*
X178010000Y-56990000D02*
X178010000Y-49690000D01*
X173660000Y-56990000D02*
X172510000Y-56990000D01*
X172510000Y-56990000D02*
X172510000Y-49690000D01*
X167850000Y-56990000D02*
X167850000Y-49690000D01*
X163500000Y-56990000D02*
X162350000Y-56990000D01*
X162350000Y-56990000D02*
X162350000Y-49690000D01*
X157690000Y-56990000D02*
X157690000Y-49690000D01*
X153340000Y-56990000D02*
X152190000Y-56990000D01*
X152190000Y-56990000D02*
X152190000Y-49690000D01*
X147530000Y-56990000D02*
X147530000Y-49690000D01*
X143180000Y-56990000D02*
X142030000Y-56990000D01*
X142030000Y-56990000D02*
X142030000Y-49690000D01*
X106890000Y-56990000D02*
X106890000Y-49690000D01*
X102540000Y-56990000D02*
X101390000Y-56990000D01*
X101390000Y-56990000D02*
X101390000Y-49690000D01*
X137370000Y-56990000D02*
X137370000Y-49690000D01*
X133020000Y-56990000D02*
X131870000Y-56990000D01*
X131870000Y-56990000D02*
X131870000Y-49690000D01*
X127464000Y-56990000D02*
X127464000Y-49690000D01*
X123114000Y-56990000D02*
X121964000Y-56990000D01*
X121964000Y-56990000D02*
X121964000Y-49690000D01*
X117050000Y-56990000D02*
X117050000Y-49690000D01*
X112700000Y-56990000D02*
X111550000Y-56990000D01*
X111550000Y-56990000D02*
X111550000Y-49690000D01*
%LPC*%
G36*
G01*
X110295100Y-120491200D02*
X109745100Y-120491200D01*
G75*
G02*
X109545100Y-120291200I0J200000D01*
G01*
X109545100Y-119891200D01*
G75*
G02*
X109745100Y-119691200I200000J0D01*
G01*
X110295100Y-119691200D01*
G75*
G02*
X110495100Y-119891200I0J-200000D01*
G01*
X110495100Y-120291200D01*
G75*
G02*
X110295100Y-120491200I-200000J0D01*
G01*
G37*
G36*
G01*
X110295100Y-122141200D02*
X109745100Y-122141200D01*
G75*
G02*
X109545100Y-121941200I0J200000D01*
G01*
X109545100Y-121541200D01*
G75*
G02*
X109745100Y-121341200I200000J0D01*
G01*
X110295100Y-121341200D01*
G75*
G02*
X110495100Y-121541200I0J-200000D01*
G01*
X110495100Y-121941200D01*
G75*
G02*
X110295100Y-122141200I-200000J0D01*
G01*
G37*
G36*
G01*
X120480500Y-120567400D02*
X119930500Y-120567400D01*
G75*
G02*
X119730500Y-120367400I0J200000D01*
G01*
X119730500Y-119967400D01*
G75*
G02*
X119930500Y-119767400I200000J0D01*
G01*
X120480500Y-119767400D01*
G75*
G02*
X120680500Y-119967400I0J-200000D01*
G01*
X120680500Y-120367400D01*
G75*
G02*
X120480500Y-120567400I-200000J0D01*
G01*
G37*
G36*
G01*
X120480500Y-122217400D02*
X119930500Y-122217400D01*
G75*
G02*
X119730500Y-122017400I0J200000D01*
G01*
X119730500Y-121617400D01*
G75*
G02*
X119930500Y-121417400I200000J0D01*
G01*
X120480500Y-121417400D01*
G75*
G02*
X120680500Y-121617400I0J-200000D01*
G01*
X120680500Y-122017400D01*
G75*
G02*
X120480500Y-122217400I-200000J0D01*
G01*
G37*
G36*
G01*
X130602400Y-120491200D02*
X130052400Y-120491200D01*
G75*
G02*
X129852400Y-120291200I0J200000D01*
G01*
X129852400Y-119891200D01*
G75*
G02*
X130052400Y-119691200I200000J0D01*
G01*
X130602400Y-119691200D01*
G75*
G02*
X130802400Y-119891200I0J-200000D01*
G01*
X130802400Y-120291200D01*
G75*
G02*
X130602400Y-120491200I-200000J0D01*
G01*
G37*
G36*
G01*
X130602400Y-122141200D02*
X130052400Y-122141200D01*
G75*
G02*
X129852400Y-121941200I0J200000D01*
G01*
X129852400Y-121541200D01*
G75*
G02*
X130052400Y-121341200I200000J0D01*
G01*
X130602400Y-121341200D01*
G75*
G02*
X130802400Y-121541200I0J-200000D01*
G01*
X130802400Y-121941200D01*
G75*
G02*
X130602400Y-122141200I-200000J0D01*
G01*
G37*
G36*
G01*
X140711600Y-120554700D02*
X140161600Y-120554700D01*
G75*
G02*
X139961600Y-120354700I0J200000D01*
G01*
X139961600Y-119954700D01*
G75*
G02*
X140161600Y-119754700I200000J0D01*
G01*
X140711600Y-119754700D01*
G75*
G02*
X140911600Y-119954700I0J-200000D01*
G01*
X140911600Y-120354700D01*
G75*
G02*
X140711600Y-120554700I-200000J0D01*
G01*
G37*
G36*
G01*
X140711600Y-122204700D02*
X140161600Y-122204700D01*
G75*
G02*
X139961600Y-122004700I0J200000D01*
G01*
X139961600Y-121604700D01*
G75*
G02*
X140161600Y-121404700I200000J0D01*
G01*
X140711600Y-121404700D01*
G75*
G02*
X140911600Y-121604700I0J-200000D01*
G01*
X140911600Y-122004700D01*
G75*
G02*
X140711600Y-122204700I-200000J0D01*
G01*
G37*
G36*
G01*
X151036700Y-120503900D02*
X150486700Y-120503900D01*
G75*
G02*
X150286700Y-120303900I0J200000D01*
G01*
X150286700Y-119903900D01*
G75*
G02*
X150486700Y-119703900I200000J0D01*
G01*
X151036700Y-119703900D01*
G75*
G02*
X151236700Y-119903900I0J-200000D01*
G01*
X151236700Y-120303900D01*
G75*
G02*
X151036700Y-120503900I-200000J0D01*
G01*
G37*
G36*
G01*
X151036700Y-122153900D02*
X150486700Y-122153900D01*
G75*
G02*
X150286700Y-121953900I0J200000D01*
G01*
X150286700Y-121553900D01*
G75*
G02*
X150486700Y-121353900I200000J0D01*
G01*
X151036700Y-121353900D01*
G75*
G02*
X151236700Y-121553900I0J-200000D01*
G01*
X151236700Y-121953900D01*
G75*
G02*
X151036700Y-122153900I-200000J0D01*
G01*
G37*
G36*
G01*
X161184000Y-120542000D02*
X160634000Y-120542000D01*
G75*
G02*
X160434000Y-120342000I0J200000D01*
G01*
X160434000Y-119942000D01*
G75*
G02*
X160634000Y-119742000I200000J0D01*
G01*
X161184000Y-119742000D01*
G75*
G02*
X161384000Y-119942000I0J-200000D01*
G01*
X161384000Y-120342000D01*
G75*
G02*
X161184000Y-120542000I-200000J0D01*
G01*
G37*
G36*
G01*
X161184000Y-122192000D02*
X160634000Y-122192000D01*
G75*
G02*
X160434000Y-121992000I0J200000D01*
G01*
X160434000Y-121592000D01*
G75*
G02*
X160634000Y-121392000I200000J0D01*
G01*
X161184000Y-121392000D01*
G75*
G02*
X161384000Y-121592000I0J-200000D01*
G01*
X161384000Y-121992000D01*
G75*
G02*
X161184000Y-122192000I-200000J0D01*
G01*
G37*
G36*
G01*
X171331300Y-120567900D02*
X170781300Y-120567900D01*
G75*
G02*
X170581300Y-120367900I0J200000D01*
G01*
X170581300Y-119967900D01*
G75*
G02*
X170781300Y-119767900I200000J0D01*
G01*
X171331300Y-119767900D01*
G75*
G02*
X171531300Y-119967900I0J-200000D01*
G01*
X171531300Y-120367900D01*
G75*
G02*
X171331300Y-120567900I-200000J0D01*
G01*
G37*
G36*
G01*
X171331300Y-122217900D02*
X170781300Y-122217900D01*
G75*
G02*
X170581300Y-122017900I0J200000D01*
G01*
X170581300Y-121617900D01*
G75*
G02*
X170781300Y-121417900I200000J0D01*
G01*
X171331300Y-121417900D01*
G75*
G02*
X171531300Y-121617900I0J-200000D01*
G01*
X171531300Y-122017900D01*
G75*
G02*
X171331300Y-122217900I-200000J0D01*
G01*
G37*
G36*
G01*
X175533000Y-119232000D02*
X175533000Y-119782000D01*
G75*
G02*
X175333000Y-119982000I-200000J0D01*
G01*
X174933000Y-119982000D01*
G75*
G02*
X174733000Y-119782000I0J200000D01*
G01*
X174733000Y-119232000D01*
G75*
G02*
X174933000Y-119032000I200000J0D01*
G01*
X175333000Y-119032000D01*
G75*
G02*
X175533000Y-119232000I0J-200000D01*
G01*
G37*
G36*
G01*
X177183000Y-119232000D02*
X177183000Y-119782000D01*
G75*
G02*
X176983000Y-119982000I-200000J0D01*
G01*
X176583000Y-119982000D01*
G75*
G02*
X176383000Y-119782000I0J200000D01*
G01*
X176383000Y-119232000D01*
G75*
G02*
X176583000Y-119032000I200000J0D01*
G01*
X176983000Y-119032000D01*
G75*
G02*
X177183000Y-119232000I0J-200000D01*
G01*
G37*
G36*
G01*
X169003300Y-118637100D02*
X169553300Y-118637100D01*
G75*
G02*
X169753300Y-118837100I0J-200000D01*
G01*
X169753300Y-119237100D01*
G75*
G02*
X169553300Y-119437100I-200000J0D01*
G01*
X169003300Y-119437100D01*
G75*
G02*
X168803300Y-119237100I0J200000D01*
G01*
X168803300Y-118837100D01*
G75*
G02*
X169003300Y-118637100I200000J0D01*
G01*
G37*
G36*
G01*
X169003300Y-116987100D02*
X169553300Y-116987100D01*
G75*
G02*
X169753300Y-117187100I0J-200000D01*
G01*
X169753300Y-117587100D01*
G75*
G02*
X169553300Y-117787100I-200000J0D01*
G01*
X169003300Y-117787100D01*
G75*
G02*
X168803300Y-117587100I0J200000D01*
G01*
X168803300Y-117187100D01*
G75*
G02*
X169003300Y-116987100I200000J0D01*
G01*
G37*
G36*
G01*
X158678200Y-118776800D02*
X159228200Y-118776800D01*
G75*
G02*
X159428200Y-118976800I0J-200000D01*
G01*
X159428200Y-119376800D01*
G75*
G02*
X159228200Y-119576800I-200000J0D01*
G01*
X158678200Y-119576800D01*
G75*
G02*
X158478200Y-119376800I0J200000D01*
G01*
X158478200Y-118976800D01*
G75*
G02*
X158678200Y-118776800I200000J0D01*
G01*
G37*
G36*
G01*
X158678200Y-117126800D02*
X159228200Y-117126800D01*
G75*
G02*
X159428200Y-117326800I0J-200000D01*
G01*
X159428200Y-117726800D01*
G75*
G02*
X159228200Y-117926800I-200000J0D01*
G01*
X158678200Y-117926800D01*
G75*
G02*
X158478200Y-117726800I0J200000D01*
G01*
X158478200Y-117326800D01*
G75*
G02*
X158678200Y-117126800I200000J0D01*
G01*
G37*
G36*
G01*
X148708700Y-118813900D02*
X149258700Y-118813900D01*
G75*
G02*
X149458700Y-119013900I0J-200000D01*
G01*
X149458700Y-119413900D01*
G75*
G02*
X149258700Y-119613900I-200000J0D01*
G01*
X148708700Y-119613900D01*
G75*
G02*
X148508700Y-119413900I0J200000D01*
G01*
X148508700Y-119013900D01*
G75*
G02*
X148708700Y-118813900I200000J0D01*
G01*
G37*
G36*
G01*
X148708700Y-117163900D02*
X149258700Y-117163900D01*
G75*
G02*
X149458700Y-117363900I0J-200000D01*
G01*
X149458700Y-117763900D01*
G75*
G02*
X149258700Y-117963900I-200000J0D01*
G01*
X148708700Y-117963900D01*
G75*
G02*
X148508700Y-117763900I0J200000D01*
G01*
X148508700Y-117363900D01*
G75*
G02*
X148708700Y-117163900I200000J0D01*
G01*
G37*
G36*
G01*
X138155000Y-118814900D02*
X138705000Y-118814900D01*
G75*
G02*
X138905000Y-119014900I0J-200000D01*
G01*
X138905000Y-119414900D01*
G75*
G02*
X138705000Y-119614900I-200000J0D01*
G01*
X138155000Y-119614900D01*
G75*
G02*
X137955000Y-119414900I0J200000D01*
G01*
X137955000Y-119014900D01*
G75*
G02*
X138155000Y-118814900I200000J0D01*
G01*
G37*
G36*
G01*
X138155000Y-117164900D02*
X138705000Y-117164900D01*
G75*
G02*
X138905000Y-117364900I0J-200000D01*
G01*
X138905000Y-117764900D01*
G75*
G02*
X138705000Y-117964900I-200000J0D01*
G01*
X138155000Y-117964900D01*
G75*
G02*
X137955000Y-117764900I0J200000D01*
G01*
X137955000Y-117364900D01*
G75*
G02*
X138155000Y-117164900I200000J0D01*
G01*
G37*
G36*
G01*
X128066120Y-118745320D02*
X128616120Y-118745320D01*
G75*
G02*
X128816120Y-118945320I0J-200000D01*
G01*
X128816120Y-119345320D01*
G75*
G02*
X128616120Y-119545320I-200000J0D01*
G01*
X128066120Y-119545320D01*
G75*
G02*
X127866120Y-119345320I0J200000D01*
G01*
X127866120Y-118945320D01*
G75*
G02*
X128066120Y-118745320I200000J0D01*
G01*
G37*
G36*
G01*
X128066120Y-117095320D02*
X128616120Y-117095320D01*
G75*
G02*
X128816120Y-117295320I0J-200000D01*
G01*
X128816120Y-117695320D01*
G75*
G02*
X128616120Y-117895320I-200000J0D01*
G01*
X128066120Y-117895320D01*
G75*
G02*
X127866120Y-117695320I0J200000D01*
G01*
X127866120Y-117295320D01*
G75*
G02*
X128066120Y-117095320I200000J0D01*
G01*
G37*
G36*
G01*
X117987400Y-118751400D02*
X118537400Y-118751400D01*
G75*
G02*
X118737400Y-118951400I0J-200000D01*
G01*
X118737400Y-119351400D01*
G75*
G02*
X118537400Y-119551400I-200000J0D01*
G01*
X117987400Y-119551400D01*
G75*
G02*
X117787400Y-119351400I0J200000D01*
G01*
X117787400Y-118951400D01*
G75*
G02*
X117987400Y-118751400I200000J0D01*
G01*
G37*
G36*
G01*
X117987400Y-117101400D02*
X118537400Y-117101400D01*
G75*
G02*
X118737400Y-117301400I0J-200000D01*
G01*
X118737400Y-117701400D01*
G75*
G02*
X118537400Y-117901400I-200000J0D01*
G01*
X117987400Y-117901400D01*
G75*
G02*
X117787400Y-117701400I0J200000D01*
G01*
X117787400Y-117301400D01*
G75*
G02*
X117987400Y-117101400I200000J0D01*
G01*
G37*
G36*
G01*
X107967100Y-118801700D02*
X108517100Y-118801700D01*
G75*
G02*
X108717100Y-119001700I0J-200000D01*
G01*
X108717100Y-119401700D01*
G75*
G02*
X108517100Y-119601700I-200000J0D01*
G01*
X107967100Y-119601700D01*
G75*
G02*
X107767100Y-119401700I0J200000D01*
G01*
X107767100Y-119001700D01*
G75*
G02*
X107967100Y-118801700I200000J0D01*
G01*
G37*
G36*
G01*
X107967100Y-117151700D02*
X108517100Y-117151700D01*
G75*
G02*
X108717100Y-117351700I0J-200000D01*
G01*
X108717100Y-117751700D01*
G75*
G02*
X108517100Y-117951700I-200000J0D01*
G01*
X107967100Y-117951700D01*
G75*
G02*
X107767100Y-117751700I0J200000D01*
G01*
X107767100Y-117351700D01*
G75*
G02*
X107967100Y-117151700I200000J0D01*
G01*
G37*
G36*
G01*
X100182000Y-118598000D02*
X100732000Y-118598000D01*
G75*
G02*
X100932000Y-118798000I0J-200000D01*
G01*
X100932000Y-119198000D01*
G75*
G02*
X100732000Y-119398000I-200000J0D01*
G01*
X100182000Y-119398000D01*
G75*
G02*
X99982000Y-119198000I0J200000D01*
G01*
X99982000Y-118798000D01*
G75*
G02*
X100182000Y-118598000I200000J0D01*
G01*
G37*
G36*
G01*
X100182000Y-116948000D02*
X100732000Y-116948000D01*
G75*
G02*
X100932000Y-117148000I0J-200000D01*
G01*
X100932000Y-117548000D01*
G75*
G02*
X100732000Y-117748000I-200000J0D01*
G01*
X100182000Y-117748000D01*
G75*
G02*
X99982000Y-117548000I0J200000D01*
G01*
X99982000Y-117148000D01*
G75*
G02*
X100182000Y-116948000I200000J0D01*
G01*
G37*
G36*
G01*
X110444960Y-99871480D02*
X109894960Y-99871480D01*
G75*
G02*
X109694960Y-99671480I0J200000D01*
G01*
X109694960Y-99271480D01*
G75*
G02*
X109894960Y-99071480I200000J0D01*
G01*
X110444960Y-99071480D01*
G75*
G02*
X110644960Y-99271480I0J-200000D01*
G01*
X110644960Y-99671480D01*
G75*
G02*
X110444960Y-99871480I-200000J0D01*
G01*
G37*
G36*
G01*
X110444960Y-101521480D02*
X109894960Y-101521480D01*
G75*
G02*
X109694960Y-101321480I0J200000D01*
G01*
X109694960Y-100921480D01*
G75*
G02*
X109894960Y-100721480I200000J0D01*
G01*
X110444960Y-100721480D01*
G75*
G02*
X110644960Y-100921480I0J-200000D01*
G01*
X110644960Y-101321480D01*
G75*
G02*
X110444960Y-101521480I-200000J0D01*
G01*
G37*
G36*
G01*
X120671000Y-99993400D02*
X120121000Y-99993400D01*
G75*
G02*
X119921000Y-99793400I0J200000D01*
G01*
X119921000Y-99393400D01*
G75*
G02*
X120121000Y-99193400I200000J0D01*
G01*
X120671000Y-99193400D01*
G75*
G02*
X120871000Y-99393400I0J-200000D01*
G01*
X120871000Y-99793400D01*
G75*
G02*
X120671000Y-99993400I-200000J0D01*
G01*
G37*
G36*
G01*
X120671000Y-101643400D02*
X120121000Y-101643400D01*
G75*
G02*
X119921000Y-101443400I0J200000D01*
G01*
X119921000Y-101043400D01*
G75*
G02*
X120121000Y-100843400I200000J0D01*
G01*
X120671000Y-100843400D01*
G75*
G02*
X120871000Y-101043400I0J-200000D01*
G01*
X120871000Y-101443400D01*
G75*
G02*
X120671000Y-101643400I-200000J0D01*
G01*
G37*
G36*
G01*
X130640500Y-100032000D02*
X130090500Y-100032000D01*
G75*
G02*
X129890500Y-99832000I0J200000D01*
G01*
X129890500Y-99432000D01*
G75*
G02*
X130090500Y-99232000I200000J0D01*
G01*
X130640500Y-99232000D01*
G75*
G02*
X130840500Y-99432000I0J-200000D01*
G01*
X130840500Y-99832000D01*
G75*
G02*
X130640500Y-100032000I-200000J0D01*
G01*
G37*
G36*
G01*
X130640500Y-101682000D02*
X130090500Y-101682000D01*
G75*
G02*
X129890500Y-101482000I0J200000D01*
G01*
X129890500Y-101082000D01*
G75*
G02*
X130090500Y-100882000I200000J0D01*
G01*
X130640500Y-100882000D01*
G75*
G02*
X130840500Y-101082000I0J-200000D01*
G01*
X130840500Y-101482000D01*
G75*
G02*
X130640500Y-101682000I-200000J0D01*
G01*
G37*
G36*
G01*
X141283100Y-99854700D02*
X140733100Y-99854700D01*
G75*
G02*
X140533100Y-99654700I0J200000D01*
G01*
X140533100Y-99254700D01*
G75*
G02*
X140733100Y-99054700I200000J0D01*
G01*
X141283100Y-99054700D01*
G75*
G02*
X141483100Y-99254700I0J-200000D01*
G01*
X141483100Y-99654700D01*
G75*
G02*
X141283100Y-99854700I-200000J0D01*
G01*
G37*
G36*
G01*
X141283100Y-101504700D02*
X140733100Y-101504700D01*
G75*
G02*
X140533100Y-101304700I0J200000D01*
G01*
X140533100Y-100904700D01*
G75*
G02*
X140733100Y-100704700I200000J0D01*
G01*
X141283100Y-100704700D01*
G75*
G02*
X141483100Y-100904700I0J-200000D01*
G01*
X141483100Y-101304700D01*
G75*
G02*
X141283100Y-101504700I-200000J0D01*
G01*
G37*
G36*
G01*
X151112900Y-99891800D02*
X150562900Y-99891800D01*
G75*
G02*
X150362900Y-99691800I0J200000D01*
G01*
X150362900Y-99291800D01*
G75*
G02*
X150562900Y-99091800I200000J0D01*
G01*
X151112900Y-99091800D01*
G75*
G02*
X151312900Y-99291800I0J-200000D01*
G01*
X151312900Y-99691800D01*
G75*
G02*
X151112900Y-99891800I-200000J0D01*
G01*
G37*
G36*
G01*
X151112900Y-101541800D02*
X150562900Y-101541800D01*
G75*
G02*
X150362900Y-101341800I0J200000D01*
G01*
X150362900Y-100941800D01*
G75*
G02*
X150562900Y-100741800I200000J0D01*
G01*
X151112900Y-100741800D01*
G75*
G02*
X151312900Y-100941800I0J-200000D01*
G01*
X151312900Y-101341800D01*
G75*
G02*
X151112900Y-101541800I-200000J0D01*
G01*
G37*
G36*
G01*
X161336400Y-99929900D02*
X160786400Y-99929900D01*
G75*
G02*
X160586400Y-99729900I0J200000D01*
G01*
X160586400Y-99329900D01*
G75*
G02*
X160786400Y-99129900I200000J0D01*
G01*
X161336400Y-99129900D01*
G75*
G02*
X161536400Y-99329900I0J-200000D01*
G01*
X161536400Y-99729900D01*
G75*
G02*
X161336400Y-99929900I-200000J0D01*
G01*
G37*
G36*
G01*
X161336400Y-101579900D02*
X160786400Y-101579900D01*
G75*
G02*
X160586400Y-101379900I0J200000D01*
G01*
X160586400Y-100979900D01*
G75*
G02*
X160786400Y-100779900I200000J0D01*
G01*
X161336400Y-100779900D01*
G75*
G02*
X161536400Y-100979900I0J-200000D01*
G01*
X161536400Y-101379900D01*
G75*
G02*
X161336400Y-101579900I-200000J0D01*
G01*
G37*
G36*
G01*
X171559900Y-99930900D02*
X171009900Y-99930900D01*
G75*
G02*
X170809900Y-99730900I0J200000D01*
G01*
X170809900Y-99330900D01*
G75*
G02*
X171009900Y-99130900I200000J0D01*
G01*
X171559900Y-99130900D01*
G75*
G02*
X171759900Y-99330900I0J-200000D01*
G01*
X171759900Y-99730900D01*
G75*
G02*
X171559900Y-99930900I-200000J0D01*
G01*
G37*
G36*
G01*
X171559900Y-101580900D02*
X171009900Y-101580900D01*
G75*
G02*
X170809900Y-101380900I0J200000D01*
G01*
X170809900Y-100980900D01*
G75*
G02*
X171009900Y-100780900I200000J0D01*
G01*
X171559900Y-100780900D01*
G75*
G02*
X171759900Y-100980900I0J-200000D01*
G01*
X171759900Y-101380900D01*
G75*
G02*
X171559900Y-101580900I-200000J0D01*
G01*
G37*
G36*
G01*
X175661000Y-98785000D02*
X175661000Y-99335000D01*
G75*
G02*
X175461000Y-99535000I-200000J0D01*
G01*
X175061000Y-99535000D01*
G75*
G02*
X174861000Y-99335000I0J200000D01*
G01*
X174861000Y-98785000D01*
G75*
G02*
X175061000Y-98585000I200000J0D01*
G01*
X175461000Y-98585000D01*
G75*
G02*
X175661000Y-98785000I0J-200000D01*
G01*
G37*
G36*
G01*
X177311000Y-98785000D02*
X177311000Y-99335000D01*
G75*
G02*
X177111000Y-99535000I-200000J0D01*
G01*
X176711000Y-99535000D01*
G75*
G02*
X176511000Y-99335000I0J200000D01*
G01*
X176511000Y-98785000D01*
G75*
G02*
X176711000Y-98585000I200000J0D01*
G01*
X177111000Y-98585000D01*
G75*
G02*
X177311000Y-98785000I0J-200000D01*
G01*
G37*
G36*
G01*
X168924560Y-97966080D02*
X169474560Y-97966080D01*
G75*
G02*
X169674560Y-98166080I0J-200000D01*
G01*
X169674560Y-98566080D01*
G75*
G02*
X169474560Y-98766080I-200000J0D01*
G01*
X168924560Y-98766080D01*
G75*
G02*
X168724560Y-98566080I0J200000D01*
G01*
X168724560Y-98166080D01*
G75*
G02*
X168924560Y-97966080I200000J0D01*
G01*
G37*
G36*
G01*
X168924560Y-96316080D02*
X169474560Y-96316080D01*
G75*
G02*
X169674560Y-96516080I0J-200000D01*
G01*
X169674560Y-96916080D01*
G75*
G02*
X169474560Y-97116080I-200000J0D01*
G01*
X168924560Y-97116080D01*
G75*
G02*
X168724560Y-96916080I0J200000D01*
G01*
X168724560Y-96516080D01*
G75*
G02*
X168924560Y-96316080I200000J0D01*
G01*
G37*
G36*
G01*
X158741700Y-98139300D02*
X159291700Y-98139300D01*
G75*
G02*
X159491700Y-98339300I0J-200000D01*
G01*
X159491700Y-98739300D01*
G75*
G02*
X159291700Y-98939300I-200000J0D01*
G01*
X158741700Y-98939300D01*
G75*
G02*
X158541700Y-98739300I0J200000D01*
G01*
X158541700Y-98339300D01*
G75*
G02*
X158741700Y-98139300I200000J0D01*
G01*
G37*
G36*
G01*
X158741700Y-96489300D02*
X159291700Y-96489300D01*
G75*
G02*
X159491700Y-96689300I0J-200000D01*
G01*
X159491700Y-97089300D01*
G75*
G02*
X159291700Y-97289300I-200000J0D01*
G01*
X158741700Y-97289300D01*
G75*
G02*
X158541700Y-97089300I0J200000D01*
G01*
X158541700Y-96689300D01*
G75*
G02*
X158741700Y-96489300I200000J0D01*
G01*
G37*
G36*
G01*
X148467400Y-98189600D02*
X149017400Y-98189600D01*
G75*
G02*
X149217400Y-98389600I0J-200000D01*
G01*
X149217400Y-98789600D01*
G75*
G02*
X149017400Y-98989600I-200000J0D01*
G01*
X148467400Y-98989600D01*
G75*
G02*
X148267400Y-98789600I0J200000D01*
G01*
X148267400Y-98389600D01*
G75*
G02*
X148467400Y-98189600I200000J0D01*
G01*
G37*
G36*
G01*
X148467400Y-96539600D02*
X149017400Y-96539600D01*
G75*
G02*
X149217400Y-96739600I0J-200000D01*
G01*
X149217400Y-97139600D01*
G75*
G02*
X149017400Y-97339600I-200000J0D01*
G01*
X148467400Y-97339600D01*
G75*
G02*
X148267400Y-97139600I0J200000D01*
G01*
X148267400Y-96739600D01*
G75*
G02*
X148467400Y-96539600I200000J0D01*
G01*
G37*
G36*
G01*
X138282000Y-97974200D02*
X138832000Y-97974200D01*
G75*
G02*
X139032000Y-98174200I0J-200000D01*
G01*
X139032000Y-98574200D01*
G75*
G02*
X138832000Y-98774200I-200000J0D01*
G01*
X138282000Y-98774200D01*
G75*
G02*
X138082000Y-98574200I0J200000D01*
G01*
X138082000Y-98174200D01*
G75*
G02*
X138282000Y-97974200I200000J0D01*
G01*
G37*
G36*
G01*
X138282000Y-96324200D02*
X138832000Y-96324200D01*
G75*
G02*
X139032000Y-96524200I0J-200000D01*
G01*
X139032000Y-96924200D01*
G75*
G02*
X138832000Y-97124200I-200000J0D01*
G01*
X138282000Y-97124200D01*
G75*
G02*
X138082000Y-96924200I0J200000D01*
G01*
X138082000Y-96524200D01*
G75*
G02*
X138282000Y-96324200I200000J0D01*
G01*
G37*
G36*
G01*
X128160100Y-98291700D02*
X128710100Y-98291700D01*
G75*
G02*
X128910100Y-98491700I0J-200000D01*
G01*
X128910100Y-98891700D01*
G75*
G02*
X128710100Y-99091700I-200000J0D01*
G01*
X128160100Y-99091700D01*
G75*
G02*
X127960100Y-98891700I0J200000D01*
G01*
X127960100Y-98491700D01*
G75*
G02*
X128160100Y-98291700I200000J0D01*
G01*
G37*
G36*
G01*
X128160100Y-96641700D02*
X128710100Y-96641700D01*
G75*
G02*
X128910100Y-96841700I0J-200000D01*
G01*
X128910100Y-97241700D01*
G75*
G02*
X128710100Y-97441700I-200000J0D01*
G01*
X128160100Y-97441700D01*
G75*
G02*
X127960100Y-97241700I0J200000D01*
G01*
X127960100Y-96841700D01*
G75*
G02*
X128160100Y-96641700I200000J0D01*
G01*
G37*
G36*
G01*
X118266800Y-98306440D02*
X118816800Y-98306440D01*
G75*
G02*
X119016800Y-98506440I0J-200000D01*
G01*
X119016800Y-98906440D01*
G75*
G02*
X118816800Y-99106440I-200000J0D01*
G01*
X118266800Y-99106440D01*
G75*
G02*
X118066800Y-98906440I0J200000D01*
G01*
X118066800Y-98506440D01*
G75*
G02*
X118266800Y-98306440I200000J0D01*
G01*
G37*
G36*
G01*
X118266800Y-96656440D02*
X118816800Y-96656440D01*
G75*
G02*
X119016800Y-96856440I0J-200000D01*
G01*
X119016800Y-97256440D01*
G75*
G02*
X118816800Y-97456440I-200000J0D01*
G01*
X118266800Y-97456440D01*
G75*
G02*
X118066800Y-97256440I0J200000D01*
G01*
X118066800Y-96856440D01*
G75*
G02*
X118266800Y-96656440I200000J0D01*
G01*
G37*
G36*
G01*
X107662300Y-98253600D02*
X108212300Y-98253600D01*
G75*
G02*
X108412300Y-98453600I0J-200000D01*
G01*
X108412300Y-98853600D01*
G75*
G02*
X108212300Y-99053600I-200000J0D01*
G01*
X107662300Y-99053600D01*
G75*
G02*
X107462300Y-98853600I0J200000D01*
G01*
X107462300Y-98453600D01*
G75*
G02*
X107662300Y-98253600I200000J0D01*
G01*
G37*
G36*
G01*
X107662300Y-96603600D02*
X108212300Y-96603600D01*
G75*
G02*
X108412300Y-96803600I0J-200000D01*
G01*
X108412300Y-97203600D01*
G75*
G02*
X108212300Y-97403600I-200000J0D01*
G01*
X107662300Y-97403600D01*
G75*
G02*
X107462300Y-97203600I0J200000D01*
G01*
X107462300Y-96803600D01*
G75*
G02*
X107662300Y-96603600I200000J0D01*
G01*
G37*
G36*
G01*
X103638400Y-99157200D02*
X103638400Y-98607200D01*
G75*
G02*
X103838400Y-98407200I200000J0D01*
G01*
X104238400Y-98407200D01*
G75*
G02*
X104438400Y-98607200I0J-200000D01*
G01*
X104438400Y-99157200D01*
G75*
G02*
X104238400Y-99357200I-200000J0D01*
G01*
X103838400Y-99357200D01*
G75*
G02*
X103638400Y-99157200I0J200000D01*
G01*
G37*
G36*
G01*
X101988400Y-99157200D02*
X101988400Y-98607200D01*
G75*
G02*
X102188400Y-98407200I200000J0D01*
G01*
X102588400Y-98407200D01*
G75*
G02*
X102788400Y-98607200I0J-200000D01*
G01*
X102788400Y-99157200D01*
G75*
G02*
X102588400Y-99357200I-200000J0D01*
G01*
X102188400Y-99357200D01*
G75*
G02*
X101988400Y-99157200I0J200000D01*
G01*
G37*
G36*
G01*
X110142700Y-80144300D02*
X109592700Y-80144300D01*
G75*
G02*
X109392700Y-79944300I0J200000D01*
G01*
X109392700Y-79544300D01*
G75*
G02*
X109592700Y-79344300I200000J0D01*
G01*
X110142700Y-79344300D01*
G75*
G02*
X110342700Y-79544300I0J-200000D01*
G01*
X110342700Y-79944300D01*
G75*
G02*
X110142700Y-80144300I-200000J0D01*
G01*
G37*
G36*
G01*
X110142700Y-81794300D02*
X109592700Y-81794300D01*
G75*
G02*
X109392700Y-81594300I0J200000D01*
G01*
X109392700Y-81194300D01*
G75*
G02*
X109592700Y-80994300I200000J0D01*
G01*
X110142700Y-80994300D01*
G75*
G02*
X110342700Y-81194300I0J-200000D01*
G01*
X110342700Y-81594300D01*
G75*
G02*
X110142700Y-81794300I-200000J0D01*
G01*
G37*
G36*
G01*
X120340800Y-80079800D02*
X119790800Y-80079800D01*
G75*
G02*
X119590800Y-79879800I0J200000D01*
G01*
X119590800Y-79479800D01*
G75*
G02*
X119790800Y-79279800I200000J0D01*
G01*
X120340800Y-79279800D01*
G75*
G02*
X120540800Y-79479800I0J-200000D01*
G01*
X120540800Y-79879800D01*
G75*
G02*
X120340800Y-80079800I-200000J0D01*
G01*
G37*
G36*
G01*
X120340800Y-81729800D02*
X119790800Y-81729800D01*
G75*
G02*
X119590800Y-81529800I0J200000D01*
G01*
X119590800Y-81129800D01*
G75*
G02*
X119790800Y-80929800I200000J0D01*
G01*
X120340800Y-80929800D01*
G75*
G02*
X120540800Y-81129800I0J-200000D01*
G01*
X120540800Y-81529800D01*
G75*
G02*
X120340800Y-81729800I-200000J0D01*
G01*
G37*
G36*
G01*
X130589700Y-79966500D02*
X130039700Y-79966500D01*
G75*
G02*
X129839700Y-79766500I0J200000D01*
G01*
X129839700Y-79366500D01*
G75*
G02*
X130039700Y-79166500I200000J0D01*
G01*
X130589700Y-79166500D01*
G75*
G02*
X130789700Y-79366500I0J-200000D01*
G01*
X130789700Y-79766500D01*
G75*
G02*
X130589700Y-79966500I-200000J0D01*
G01*
G37*
G36*
G01*
X130589700Y-81616500D02*
X130039700Y-81616500D01*
G75*
G02*
X129839700Y-81416500I0J200000D01*
G01*
X129839700Y-81016500D01*
G75*
G02*
X130039700Y-80816500I200000J0D01*
G01*
X130589700Y-80816500D01*
G75*
G02*
X130789700Y-81016500I0J-200000D01*
G01*
X130789700Y-81416500D01*
G75*
G02*
X130589700Y-81616500I-200000J0D01*
G01*
G37*
G36*
G01*
X140800500Y-79978200D02*
X140250500Y-79978200D01*
G75*
G02*
X140050500Y-79778200I0J200000D01*
G01*
X140050500Y-79378200D01*
G75*
G02*
X140250500Y-79178200I200000J0D01*
G01*
X140800500Y-79178200D01*
G75*
G02*
X141000500Y-79378200I0J-200000D01*
G01*
X141000500Y-79778200D01*
G75*
G02*
X140800500Y-79978200I-200000J0D01*
G01*
G37*
G36*
G01*
X140800500Y-81628200D02*
X140250500Y-81628200D01*
G75*
G02*
X140050500Y-81428200I0J200000D01*
G01*
X140050500Y-81028200D01*
G75*
G02*
X140250500Y-80828200I200000J0D01*
G01*
X140800500Y-80828200D01*
G75*
G02*
X141000500Y-81028200I0J-200000D01*
G01*
X141000500Y-81428200D01*
G75*
G02*
X140800500Y-81628200I-200000J0D01*
G01*
G37*
G36*
G01*
X151405000Y-79902000D02*
X150855000Y-79902000D01*
G75*
G02*
X150655000Y-79702000I0J200000D01*
G01*
X150655000Y-79302000D01*
G75*
G02*
X150855000Y-79102000I200000J0D01*
G01*
X151405000Y-79102000D01*
G75*
G02*
X151605000Y-79302000I0J-200000D01*
G01*
X151605000Y-79702000D01*
G75*
G02*
X151405000Y-79902000I-200000J0D01*
G01*
G37*
G36*
G01*
X151405000Y-81552000D02*
X150855000Y-81552000D01*
G75*
G02*
X150655000Y-81352000I0J200000D01*
G01*
X150655000Y-80952000D01*
G75*
G02*
X150855000Y-80752000I200000J0D01*
G01*
X151405000Y-80752000D01*
G75*
G02*
X151605000Y-80952000I0J-200000D01*
G01*
X151605000Y-81352000D01*
G75*
G02*
X151405000Y-81552000I-200000J0D01*
G01*
G37*
G36*
G01*
X161222100Y-80245400D02*
X160672100Y-80245400D01*
G75*
G02*
X160472100Y-80045400I0J200000D01*
G01*
X160472100Y-79645400D01*
G75*
G02*
X160672100Y-79445400I200000J0D01*
G01*
X161222100Y-79445400D01*
G75*
G02*
X161422100Y-79645400I0J-200000D01*
G01*
X161422100Y-80045400D01*
G75*
G02*
X161222100Y-80245400I-200000J0D01*
G01*
G37*
G36*
G01*
X161222100Y-81895400D02*
X160672100Y-81895400D01*
G75*
G02*
X160472100Y-81695400I0J200000D01*
G01*
X160472100Y-81295400D01*
G75*
G02*
X160672100Y-81095400I200000J0D01*
G01*
X161222100Y-81095400D01*
G75*
G02*
X161422100Y-81295400I0J-200000D01*
G01*
X161422100Y-81695400D01*
G75*
G02*
X161222100Y-81895400I-200000J0D01*
G01*
G37*
G36*
G01*
X171404960Y-79935520D02*
X170854960Y-79935520D01*
G75*
G02*
X170654960Y-79735520I0J200000D01*
G01*
X170654960Y-79335520D01*
G75*
G02*
X170854960Y-79135520I200000J0D01*
G01*
X171404960Y-79135520D01*
G75*
G02*
X171604960Y-79335520I0J-200000D01*
G01*
X171604960Y-79735520D01*
G75*
G02*
X171404960Y-79935520I-200000J0D01*
G01*
G37*
G36*
G01*
X171404960Y-81585520D02*
X170854960Y-81585520D01*
G75*
G02*
X170654960Y-81385520I0J200000D01*
G01*
X170654960Y-80985520D01*
G75*
G02*
X170854960Y-80785520I200000J0D01*
G01*
X171404960Y-80785520D01*
G75*
G02*
X171604960Y-80985520I0J-200000D01*
G01*
X171604960Y-81385520D01*
G75*
G02*
X171404960Y-81585520I-200000J0D01*
G01*
G37*
G36*
G01*
X175597000Y-78846000D02*
X175597000Y-79396000D01*
G75*
G02*
X175397000Y-79596000I-200000J0D01*
G01*
X174997000Y-79596000D01*
G75*
G02*
X174797000Y-79396000I0J200000D01*
G01*
X174797000Y-78846000D01*
G75*
G02*
X174997000Y-78646000I200000J0D01*
G01*
X175397000Y-78646000D01*
G75*
G02*
X175597000Y-78846000I0J-200000D01*
G01*
G37*
G36*
G01*
X177247000Y-78846000D02*
X177247000Y-79396000D01*
G75*
G02*
X177047000Y-79596000I-200000J0D01*
G01*
X176647000Y-79596000D01*
G75*
G02*
X176447000Y-79396000I0J200000D01*
G01*
X176447000Y-78846000D01*
G75*
G02*
X176647000Y-78646000I200000J0D01*
G01*
X177047000Y-78646000D01*
G75*
G02*
X177247000Y-78846000I0J-200000D01*
G01*
G37*
G36*
G01*
X168594360Y-78268880D02*
X169144360Y-78268880D01*
G75*
G02*
X169344360Y-78468880I0J-200000D01*
G01*
X169344360Y-78868880D01*
G75*
G02*
X169144360Y-79068880I-200000J0D01*
G01*
X168594360Y-79068880D01*
G75*
G02*
X168394360Y-78868880I0J200000D01*
G01*
X168394360Y-78468880D01*
G75*
G02*
X168594360Y-78268880I200000J0D01*
G01*
G37*
G36*
G01*
X168594360Y-76618880D02*
X169144360Y-76618880D01*
G75*
G02*
X169344360Y-76818880I0J-200000D01*
G01*
X169344360Y-77218880D01*
G75*
G02*
X169144360Y-77418880I-200000J0D01*
G01*
X168594360Y-77418880D01*
G75*
G02*
X168394360Y-77218880I0J200000D01*
G01*
X168394360Y-76818880D01*
G75*
G02*
X168594360Y-76618880I200000J0D01*
G01*
G37*
G36*
G01*
X158348000Y-78276000D02*
X158898000Y-78276000D01*
G75*
G02*
X159098000Y-78476000I0J-200000D01*
G01*
X159098000Y-78876000D01*
G75*
G02*
X158898000Y-79076000I-200000J0D01*
G01*
X158348000Y-79076000D01*
G75*
G02*
X158148000Y-78876000I0J200000D01*
G01*
X158148000Y-78476000D01*
G75*
G02*
X158348000Y-78276000I200000J0D01*
G01*
G37*
G36*
G01*
X158348000Y-76626000D02*
X158898000Y-76626000D01*
G75*
G02*
X159098000Y-76826000I0J-200000D01*
G01*
X159098000Y-77226000D01*
G75*
G02*
X158898000Y-77426000I-200000J0D01*
G01*
X158348000Y-77426000D01*
G75*
G02*
X158148000Y-77226000I0J200000D01*
G01*
X158148000Y-76826000D01*
G75*
G02*
X158348000Y-76626000I200000J0D01*
G01*
G37*
G36*
G01*
X148276900Y-78250600D02*
X148826900Y-78250600D01*
G75*
G02*
X149026900Y-78450600I0J-200000D01*
G01*
X149026900Y-78850600D01*
G75*
G02*
X148826900Y-79050600I-200000J0D01*
G01*
X148276900Y-79050600D01*
G75*
G02*
X148076900Y-78850600I0J200000D01*
G01*
X148076900Y-78450600D01*
G75*
G02*
X148276900Y-78250600I200000J0D01*
G01*
G37*
G36*
G01*
X148276900Y-76600600D02*
X148826900Y-76600600D01*
G75*
G02*
X149026900Y-76800600I0J-200000D01*
G01*
X149026900Y-77200600D01*
G75*
G02*
X148826900Y-77400600I-200000J0D01*
G01*
X148276900Y-77400600D01*
G75*
G02*
X148076900Y-77200600I0J200000D01*
G01*
X148076900Y-76800600D01*
G75*
G02*
X148276900Y-76600600I200000J0D01*
G01*
G37*
G36*
G01*
X137931480Y-78050440D02*
X138481480Y-78050440D01*
G75*
G02*
X138681480Y-78250440I0J-200000D01*
G01*
X138681480Y-78650440D01*
G75*
G02*
X138481480Y-78850440I-200000J0D01*
G01*
X137931480Y-78850440D01*
G75*
G02*
X137731480Y-78650440I0J200000D01*
G01*
X137731480Y-78250440D01*
G75*
G02*
X137931480Y-78050440I200000J0D01*
G01*
G37*
G36*
G01*
X137931480Y-76400440D02*
X138481480Y-76400440D01*
G75*
G02*
X138681480Y-76600440I0J-200000D01*
G01*
X138681480Y-77000440D01*
G75*
G02*
X138481480Y-77200440I-200000J0D01*
G01*
X137931480Y-77200440D01*
G75*
G02*
X137731480Y-77000440I0J200000D01*
G01*
X137731480Y-76600440D01*
G75*
G02*
X137931480Y-76400440I200000J0D01*
G01*
G37*
G36*
G01*
X128249000Y-78340000D02*
X128799000Y-78340000D01*
G75*
G02*
X128999000Y-78540000I0J-200000D01*
G01*
X128999000Y-78940000D01*
G75*
G02*
X128799000Y-79140000I-200000J0D01*
G01*
X128249000Y-79140000D01*
G75*
G02*
X128049000Y-78940000I0J200000D01*
G01*
X128049000Y-78540000D01*
G75*
G02*
X128249000Y-78340000I200000J0D01*
G01*
G37*
G36*
G01*
X128249000Y-76690000D02*
X128799000Y-76690000D01*
G75*
G02*
X128999000Y-76890000I0J-200000D01*
G01*
X128999000Y-77290000D01*
G75*
G02*
X128799000Y-77490000I-200000J0D01*
G01*
X128249000Y-77490000D01*
G75*
G02*
X128049000Y-77290000I0J200000D01*
G01*
X128049000Y-76890000D01*
G75*
G02*
X128249000Y-76690000I200000J0D01*
G01*
G37*
G36*
G01*
X117845160Y-78314600D02*
X118395160Y-78314600D01*
G75*
G02*
X118595160Y-78514600I0J-200000D01*
G01*
X118595160Y-78914600D01*
G75*
G02*
X118395160Y-79114600I-200000J0D01*
G01*
X117845160Y-79114600D01*
G75*
G02*
X117645160Y-78914600I0J200000D01*
G01*
X117645160Y-78514600D01*
G75*
G02*
X117845160Y-78314600I200000J0D01*
G01*
G37*
G36*
G01*
X117845160Y-76664600D02*
X118395160Y-76664600D01*
G75*
G02*
X118595160Y-76864600I0J-200000D01*
G01*
X118595160Y-77264600D01*
G75*
G02*
X118395160Y-77464600I-200000J0D01*
G01*
X117845160Y-77464600D01*
G75*
G02*
X117645160Y-77264600I0J200000D01*
G01*
X117645160Y-76864600D01*
G75*
G02*
X117845160Y-76664600I200000J0D01*
G01*
G37*
G36*
G01*
X107636900Y-78340000D02*
X108186900Y-78340000D01*
G75*
G02*
X108386900Y-78540000I0J-200000D01*
G01*
X108386900Y-78940000D01*
G75*
G02*
X108186900Y-79140000I-200000J0D01*
G01*
X107636900Y-79140000D01*
G75*
G02*
X107436900Y-78940000I0J200000D01*
G01*
X107436900Y-78540000D01*
G75*
G02*
X107636900Y-78340000I200000J0D01*
G01*
G37*
G36*
G01*
X107636900Y-76690000D02*
X108186900Y-76690000D01*
G75*
G02*
X108386900Y-76890000I0J-200000D01*
G01*
X108386900Y-77290000D01*
G75*
G02*
X108186900Y-77490000I-200000J0D01*
G01*
X107636900Y-77490000D01*
G75*
G02*
X107436900Y-77290000I0J200000D01*
G01*
X107436900Y-76890000D01*
G75*
G02*
X107636900Y-76690000I200000J0D01*
G01*
G37*
G36*
G01*
X103662800Y-78735600D02*
X103662800Y-78185600D01*
G75*
G02*
X103862800Y-77985600I200000J0D01*
G01*
X104262800Y-77985600D01*
G75*
G02*
X104462800Y-78185600I0J-200000D01*
G01*
X104462800Y-78735600D01*
G75*
G02*
X104262800Y-78935600I-200000J0D01*
G01*
X103862800Y-78935600D01*
G75*
G02*
X103662800Y-78735600I0J200000D01*
G01*
G37*
G36*
G01*
X102012800Y-78735600D02*
X102012800Y-78185600D01*
G75*
G02*
X102212800Y-77985600I200000J0D01*
G01*
X102612800Y-77985600D01*
G75*
G02*
X102812800Y-78185600I0J-200000D01*
G01*
X102812800Y-78735600D01*
G75*
G02*
X102612800Y-78935600I-200000J0D01*
G01*
X102212800Y-78935600D01*
G75*
G02*
X102012800Y-78735600I0J200000D01*
G01*
G37*
G36*
G01*
X107674600Y-122841600D02*
X108174600Y-122841600D01*
G75*
G02*
X108399600Y-123066600I0J-225000D01*
G01*
X108399600Y-123516600D01*
G75*
G02*
X108174600Y-123741600I-225000J0D01*
G01*
X107674600Y-123741600D01*
G75*
G02*
X107449600Y-123516600I0J225000D01*
G01*
X107449600Y-123066600D01*
G75*
G02*
X107674600Y-122841600I225000J0D01*
G01*
G37*
G36*
G01*
X107674600Y-121291600D02*
X108174600Y-121291600D01*
G75*
G02*
X108399600Y-121516600I0J-225000D01*
G01*
X108399600Y-121966600D01*
G75*
G02*
X108174600Y-122191600I-225000J0D01*
G01*
X107674600Y-122191600D01*
G75*
G02*
X107449600Y-121966600I0J225000D01*
G01*
X107449600Y-121516600D01*
G75*
G02*
X107674600Y-121291600I225000J0D01*
G01*
G37*
G36*
G01*
X118114000Y-122740000D02*
X118614000Y-122740000D01*
G75*
G02*
X118839000Y-122965000I0J-225000D01*
G01*
X118839000Y-123415000D01*
G75*
G02*
X118614000Y-123640000I-225000J0D01*
G01*
X118114000Y-123640000D01*
G75*
G02*
X117889000Y-123415000I0J225000D01*
G01*
X117889000Y-122965000D01*
G75*
G02*
X118114000Y-122740000I225000J0D01*
G01*
G37*
G36*
G01*
X118114000Y-121190000D02*
X118614000Y-121190000D01*
G75*
G02*
X118839000Y-121415000I0J-225000D01*
G01*
X118839000Y-121865000D01*
G75*
G02*
X118614000Y-122090000I-225000J0D01*
G01*
X118114000Y-122090000D01*
G75*
G02*
X117889000Y-121865000I0J225000D01*
G01*
X117889000Y-121415000D01*
G75*
G02*
X118114000Y-121190000I225000J0D01*
G01*
G37*
G36*
G01*
X128279080Y-122933040D02*
X128779080Y-122933040D01*
G75*
G02*
X129004080Y-123158040I0J-225000D01*
G01*
X129004080Y-123608040D01*
G75*
G02*
X128779080Y-123833040I-225000J0D01*
G01*
X128279080Y-123833040D01*
G75*
G02*
X128054080Y-123608040I0J225000D01*
G01*
X128054080Y-123158040D01*
G75*
G02*
X128279080Y-122933040I225000J0D01*
G01*
G37*
G36*
G01*
X128279080Y-121383040D02*
X128779080Y-121383040D01*
G75*
G02*
X129004080Y-121608040I0J-225000D01*
G01*
X129004080Y-122058040D01*
G75*
G02*
X128779080Y-122283040I-225000J0D01*
G01*
X128279080Y-122283040D01*
G75*
G02*
X128054080Y-122058040I0J225000D01*
G01*
X128054080Y-121608040D01*
G75*
G02*
X128279080Y-121383040I225000J0D01*
G01*
G37*
G36*
G01*
X138510200Y-122887920D02*
X139010200Y-122887920D01*
G75*
G02*
X139235200Y-123112920I0J-225000D01*
G01*
X139235200Y-123562920D01*
G75*
G02*
X139010200Y-123787920I-225000J0D01*
G01*
X138510200Y-123787920D01*
G75*
G02*
X138285200Y-123562920I0J225000D01*
G01*
X138285200Y-123112920D01*
G75*
G02*
X138510200Y-122887920I225000J0D01*
G01*
G37*
G36*
G01*
X138510200Y-121337920D02*
X139010200Y-121337920D01*
G75*
G02*
X139235200Y-121562920I0J-225000D01*
G01*
X139235200Y-122012920D01*
G75*
G02*
X139010200Y-122237920I-225000J0D01*
G01*
X138510200Y-122237920D01*
G75*
G02*
X138285200Y-122012920I0J225000D01*
G01*
X138285200Y-121562920D01*
G75*
G02*
X138510200Y-121337920I225000J0D01*
G01*
G37*
G36*
G01*
X148162200Y-123052720D02*
X148662200Y-123052720D01*
G75*
G02*
X148887200Y-123277720I0J-225000D01*
G01*
X148887200Y-123727720D01*
G75*
G02*
X148662200Y-123952720I-225000J0D01*
G01*
X148162200Y-123952720D01*
G75*
G02*
X147937200Y-123727720I0J225000D01*
G01*
X147937200Y-123277720D01*
G75*
G02*
X148162200Y-123052720I225000J0D01*
G01*
G37*
G36*
G01*
X148162200Y-121502720D02*
X148662200Y-121502720D01*
G75*
G02*
X148887200Y-121727720I0J-225000D01*
G01*
X148887200Y-122177720D01*
G75*
G02*
X148662200Y-122402720I-225000J0D01*
G01*
X148162200Y-122402720D01*
G75*
G02*
X147937200Y-122177720I0J225000D01*
G01*
X147937200Y-121727720D01*
G75*
G02*
X148162200Y-121502720I225000J0D01*
G01*
G37*
G36*
G01*
X158738760Y-122958440D02*
X159238760Y-122958440D01*
G75*
G02*
X159463760Y-123183440I0J-225000D01*
G01*
X159463760Y-123633440D01*
G75*
G02*
X159238760Y-123858440I-225000J0D01*
G01*
X158738760Y-123858440D01*
G75*
G02*
X158513760Y-123633440I0J225000D01*
G01*
X158513760Y-123183440D01*
G75*
G02*
X158738760Y-122958440I225000J0D01*
G01*
G37*
G36*
G01*
X158738760Y-121408440D02*
X159238760Y-121408440D01*
G75*
G02*
X159463760Y-121633440I0J-225000D01*
G01*
X159463760Y-122083440D01*
G75*
G02*
X159238760Y-122308440I-225000J0D01*
G01*
X158738760Y-122308440D01*
G75*
G02*
X158513760Y-122083440I0J225000D01*
G01*
X158513760Y-121633440D01*
G75*
G02*
X158738760Y-121408440I225000J0D01*
G01*
G37*
G36*
G01*
X168822560Y-123034640D02*
X169322560Y-123034640D01*
G75*
G02*
X169547560Y-123259640I0J-225000D01*
G01*
X169547560Y-123709640D01*
G75*
G02*
X169322560Y-123934640I-225000J0D01*
G01*
X168822560Y-123934640D01*
G75*
G02*
X168597560Y-123709640I0J225000D01*
G01*
X168597560Y-123259640D01*
G75*
G02*
X168822560Y-123034640I225000J0D01*
G01*
G37*
G36*
G01*
X168822560Y-121484640D02*
X169322560Y-121484640D01*
G75*
G02*
X169547560Y-121709640I0J-225000D01*
G01*
X169547560Y-122159640D01*
G75*
G02*
X169322560Y-122384640I-225000J0D01*
G01*
X168822560Y-122384640D01*
G75*
G02*
X168597560Y-122159640I0J225000D01*
G01*
X168597560Y-121709640D01*
G75*
G02*
X168822560Y-121484640I225000J0D01*
G01*
G37*
G36*
G01*
X178820000Y-123121000D02*
X179320000Y-123121000D01*
G75*
G02*
X179545000Y-123346000I0J-225000D01*
G01*
X179545000Y-123796000D01*
G75*
G02*
X179320000Y-124021000I-225000J0D01*
G01*
X178820000Y-124021000D01*
G75*
G02*
X178595000Y-123796000I0J225000D01*
G01*
X178595000Y-123346000D01*
G75*
G02*
X178820000Y-123121000I225000J0D01*
G01*
G37*
G36*
G01*
X178820000Y-121571000D02*
X179320000Y-121571000D01*
G75*
G02*
X179545000Y-121796000I0J-225000D01*
G01*
X179545000Y-122246000D01*
G75*
G02*
X179320000Y-122471000I-225000J0D01*
G01*
X178820000Y-122471000D01*
G75*
G02*
X178595000Y-122246000I0J225000D01*
G01*
X178595000Y-121796000D01*
G75*
G02*
X178820000Y-121571000I225000J0D01*
G01*
G37*
G36*
G01*
X171903200Y-116380080D02*
X171403200Y-116380080D01*
G75*
G02*
X171178200Y-116155080I0J225000D01*
G01*
X171178200Y-115705080D01*
G75*
G02*
X171403200Y-115480080I225000J0D01*
G01*
X171903200Y-115480080D01*
G75*
G02*
X172128200Y-115705080I0J-225000D01*
G01*
X172128200Y-116155080D01*
G75*
G02*
X171903200Y-116380080I-225000J0D01*
G01*
G37*
G36*
G01*
X171903200Y-117930080D02*
X171403200Y-117930080D01*
G75*
G02*
X171178200Y-117705080I0J225000D01*
G01*
X171178200Y-117255080D01*
G75*
G02*
X171403200Y-117030080I225000J0D01*
G01*
X171903200Y-117030080D01*
G75*
G02*
X172128200Y-117255080I0J-225000D01*
G01*
X172128200Y-117705080D01*
G75*
G02*
X171903200Y-117930080I-225000J0D01*
G01*
G37*
G36*
G01*
X161626360Y-116469280D02*
X161126360Y-116469280D01*
G75*
G02*
X160901360Y-116244280I0J225000D01*
G01*
X160901360Y-115794280D01*
G75*
G02*
X161126360Y-115569280I225000J0D01*
G01*
X161626360Y-115569280D01*
G75*
G02*
X161851360Y-115794280I0J-225000D01*
G01*
X161851360Y-116244280D01*
G75*
G02*
X161626360Y-116469280I-225000J0D01*
G01*
G37*
G36*
G01*
X161626360Y-118019280D02*
X161126360Y-118019280D01*
G75*
G02*
X160901360Y-117794280I0J225000D01*
G01*
X160901360Y-117344280D01*
G75*
G02*
X161126360Y-117119280I225000J0D01*
G01*
X161626360Y-117119280D01*
G75*
G02*
X161851360Y-117344280I0J-225000D01*
G01*
X161851360Y-117794280D01*
G75*
G02*
X161626360Y-118019280I-225000J0D01*
G01*
G37*
G36*
G01*
X151380000Y-116528000D02*
X150880000Y-116528000D01*
G75*
G02*
X150655000Y-116303000I0J225000D01*
G01*
X150655000Y-115853000D01*
G75*
G02*
X150880000Y-115628000I225000J0D01*
G01*
X151380000Y-115628000D01*
G75*
G02*
X151605000Y-115853000I0J-225000D01*
G01*
X151605000Y-116303000D01*
G75*
G02*
X151380000Y-116528000I-225000J0D01*
G01*
G37*
G36*
G01*
X151380000Y-118078000D02*
X150880000Y-118078000D01*
G75*
G02*
X150655000Y-117853000I0J225000D01*
G01*
X150655000Y-117403000D01*
G75*
G02*
X150880000Y-117178000I225000J0D01*
G01*
X151380000Y-117178000D01*
G75*
G02*
X151605000Y-117403000I0J-225000D01*
G01*
X151605000Y-117853000D01*
G75*
G02*
X151380000Y-118078000I-225000J0D01*
G01*
G37*
G36*
G01*
X141377480Y-116504840D02*
X140877480Y-116504840D01*
G75*
G02*
X140652480Y-116279840I0J225000D01*
G01*
X140652480Y-115829840D01*
G75*
G02*
X140877480Y-115604840I225000J0D01*
G01*
X141377480Y-115604840D01*
G75*
G02*
X141602480Y-115829840I0J-225000D01*
G01*
X141602480Y-116279840D01*
G75*
G02*
X141377480Y-116504840I-225000J0D01*
G01*
G37*
G36*
G01*
X141377480Y-118054840D02*
X140877480Y-118054840D01*
G75*
G02*
X140652480Y-117829840I0J225000D01*
G01*
X140652480Y-117379840D01*
G75*
G02*
X140877480Y-117154840I225000J0D01*
G01*
X141377480Y-117154840D01*
G75*
G02*
X141602480Y-117379840I0J-225000D01*
G01*
X141602480Y-117829840D01*
G75*
G02*
X141377480Y-118054840I-225000J0D01*
G01*
G37*
G36*
G01*
X130724720Y-116156860D02*
X130224720Y-116156860D01*
G75*
G02*
X129999720Y-115931860I0J225000D01*
G01*
X129999720Y-115481860D01*
G75*
G02*
X130224720Y-115256860I225000J0D01*
G01*
X130724720Y-115256860D01*
G75*
G02*
X130949720Y-115481860I0J-225000D01*
G01*
X130949720Y-115931860D01*
G75*
G02*
X130724720Y-116156860I-225000J0D01*
G01*
G37*
G36*
G01*
X130724720Y-117706860D02*
X130224720Y-117706860D01*
G75*
G02*
X129999720Y-117481860I0J225000D01*
G01*
X129999720Y-117031860D01*
G75*
G02*
X130224720Y-116806860I225000J0D01*
G01*
X130724720Y-116806860D01*
G75*
G02*
X130949720Y-117031860I0J-225000D01*
G01*
X130949720Y-117481860D01*
G75*
G02*
X130724720Y-117706860I-225000J0D01*
G01*
G37*
G36*
G01*
X120778080Y-116337200D02*
X120278080Y-116337200D01*
G75*
G02*
X120053080Y-116112200I0J225000D01*
G01*
X120053080Y-115662200D01*
G75*
G02*
X120278080Y-115437200I225000J0D01*
G01*
X120778080Y-115437200D01*
G75*
G02*
X121003080Y-115662200I0J-225000D01*
G01*
X121003080Y-116112200D01*
G75*
G02*
X120778080Y-116337200I-225000J0D01*
G01*
G37*
G36*
G01*
X120778080Y-117887200D02*
X120278080Y-117887200D01*
G75*
G02*
X120053080Y-117662200I0J225000D01*
G01*
X120053080Y-117212200D01*
G75*
G02*
X120278080Y-116987200I225000J0D01*
G01*
X120778080Y-116987200D01*
G75*
G02*
X121003080Y-117212200I0J-225000D01*
G01*
X121003080Y-117662200D01*
G75*
G02*
X120778080Y-117887200I-225000J0D01*
G01*
G37*
G36*
G01*
X110775560Y-116652460D02*
X110275560Y-116652460D01*
G75*
G02*
X110050560Y-116427460I0J225000D01*
G01*
X110050560Y-115977460D01*
G75*
G02*
X110275560Y-115752460I225000J0D01*
G01*
X110775560Y-115752460D01*
G75*
G02*
X111000560Y-115977460I0J-225000D01*
G01*
X111000560Y-116427460D01*
G75*
G02*
X110775560Y-116652460I-225000J0D01*
G01*
G37*
G36*
G01*
X110775560Y-118202460D02*
X110275560Y-118202460D01*
G75*
G02*
X110050560Y-117977460I0J225000D01*
G01*
X110050560Y-117527460D01*
G75*
G02*
X110275560Y-117302460I225000J0D01*
G01*
X110775560Y-117302460D01*
G75*
G02*
X111000560Y-117527460I0J-225000D01*
G01*
X111000560Y-117977460D01*
G75*
G02*
X110775560Y-118202460I-225000J0D01*
G01*
G37*
G36*
G01*
X100707000Y-113848000D02*
X100207000Y-113848000D01*
G75*
G02*
X99982000Y-113623000I0J225000D01*
G01*
X99982000Y-113173000D01*
G75*
G02*
X100207000Y-112948000I225000J0D01*
G01*
X100707000Y-112948000D01*
G75*
G02*
X100932000Y-113173000I0J-225000D01*
G01*
X100932000Y-113623000D01*
G75*
G02*
X100707000Y-113848000I-225000J0D01*
G01*
G37*
G36*
G01*
X100707000Y-115398000D02*
X100207000Y-115398000D01*
G75*
G02*
X99982000Y-115173000I0J225000D01*
G01*
X99982000Y-114723000D01*
G75*
G02*
X100207000Y-114498000I225000J0D01*
G01*
X100707000Y-114498000D01*
G75*
G02*
X100932000Y-114723000I0J-225000D01*
G01*
X100932000Y-115173000D01*
G75*
G02*
X100707000Y-115398000I-225000J0D01*
G01*
G37*
G36*
G01*
X107827000Y-102250120D02*
X108327000Y-102250120D01*
G75*
G02*
X108552000Y-102475120I0J-225000D01*
G01*
X108552000Y-102925120D01*
G75*
G02*
X108327000Y-103150120I-225000J0D01*
G01*
X107827000Y-103150120D01*
G75*
G02*
X107602000Y-102925120I0J225000D01*
G01*
X107602000Y-102475120D01*
G75*
G02*
X107827000Y-102250120I225000J0D01*
G01*
G37*
G36*
G01*
X107827000Y-100700120D02*
X108327000Y-100700120D01*
G75*
G02*
X108552000Y-100925120I0J-225000D01*
G01*
X108552000Y-101375120D01*
G75*
G02*
X108327000Y-101600120I-225000J0D01*
G01*
X107827000Y-101600120D01*
G75*
G02*
X107602000Y-101375120I0J225000D01*
G01*
X107602000Y-100925120D01*
G75*
G02*
X107827000Y-100700120I225000J0D01*
G01*
G37*
G36*
G01*
X117900640Y-102796520D02*
X118400640Y-102796520D01*
G75*
G02*
X118625640Y-103021520I0J-225000D01*
G01*
X118625640Y-103471520D01*
G75*
G02*
X118400640Y-103696520I-225000J0D01*
G01*
X117900640Y-103696520D01*
G75*
G02*
X117675640Y-103471520I0J225000D01*
G01*
X117675640Y-103021520D01*
G75*
G02*
X117900640Y-102796520I225000J0D01*
G01*
G37*
G36*
G01*
X117900640Y-101246520D02*
X118400640Y-101246520D01*
G75*
G02*
X118625640Y-101471520I0J-225000D01*
G01*
X118625640Y-101921520D01*
G75*
G02*
X118400640Y-102146520I-225000J0D01*
G01*
X117900640Y-102146520D01*
G75*
G02*
X117675640Y-101921520I0J225000D01*
G01*
X117675640Y-101471520D01*
G75*
G02*
X117900640Y-101246520I225000J0D01*
G01*
G37*
G36*
G01*
X128324800Y-102321240D02*
X128824800Y-102321240D01*
G75*
G02*
X129049800Y-102546240I0J-225000D01*
G01*
X129049800Y-102996240D01*
G75*
G02*
X128824800Y-103221240I-225000J0D01*
G01*
X128324800Y-103221240D01*
G75*
G02*
X128099800Y-102996240I0J225000D01*
G01*
X128099800Y-102546240D01*
G75*
G02*
X128324800Y-102321240I225000J0D01*
G01*
G37*
G36*
G01*
X128324800Y-100771240D02*
X128824800Y-100771240D01*
G75*
G02*
X129049800Y-100996240I0J-225000D01*
G01*
X129049800Y-101446240D01*
G75*
G02*
X128824800Y-101671240I-225000J0D01*
G01*
X128324800Y-101671240D01*
G75*
G02*
X128099800Y-101446240I0J225000D01*
G01*
X128099800Y-100996240D01*
G75*
G02*
X128324800Y-100771240I225000J0D01*
G01*
G37*
G36*
G01*
X138182540Y-102212320D02*
X138682540Y-102212320D01*
G75*
G02*
X138907540Y-102437320I0J-225000D01*
G01*
X138907540Y-102887320D01*
G75*
G02*
X138682540Y-103112320I-225000J0D01*
G01*
X138182540Y-103112320D01*
G75*
G02*
X137957540Y-102887320I0J225000D01*
G01*
X137957540Y-102437320D01*
G75*
G02*
X138182540Y-102212320I225000J0D01*
G01*
G37*
G36*
G01*
X138182540Y-100662320D02*
X138682540Y-100662320D01*
G75*
G02*
X138907540Y-100887320I0J-225000D01*
G01*
X138907540Y-101337320D01*
G75*
G02*
X138682540Y-101562320I-225000J0D01*
G01*
X138182540Y-101562320D01*
G75*
G02*
X137957540Y-101337320I0J225000D01*
G01*
X137957540Y-100887320D01*
G75*
G02*
X138182540Y-100662320I225000J0D01*
G01*
G37*
G36*
G01*
X148573680Y-102471100D02*
X149073680Y-102471100D01*
G75*
G02*
X149298680Y-102696100I0J-225000D01*
G01*
X149298680Y-103146100D01*
G75*
G02*
X149073680Y-103371100I-225000J0D01*
G01*
X148573680Y-103371100D01*
G75*
G02*
X148348680Y-103146100I0J225000D01*
G01*
X148348680Y-102696100D01*
G75*
G02*
X148573680Y-102471100I225000J0D01*
G01*
G37*
G36*
G01*
X148573680Y-100921100D02*
X149073680Y-100921100D01*
G75*
G02*
X149298680Y-101146100I0J-225000D01*
G01*
X149298680Y-101596100D01*
G75*
G02*
X149073680Y-101821100I-225000J0D01*
G01*
X148573680Y-101821100D01*
G75*
G02*
X148348680Y-101596100I0J225000D01*
G01*
X148348680Y-101146100D01*
G75*
G02*
X148573680Y-100921100I225000J0D01*
G01*
G37*
G36*
G01*
X158784480Y-102336780D02*
X159284480Y-102336780D01*
G75*
G02*
X159509480Y-102561780I0J-225000D01*
G01*
X159509480Y-103011780D01*
G75*
G02*
X159284480Y-103236780I-225000J0D01*
G01*
X158784480Y-103236780D01*
G75*
G02*
X158559480Y-103011780I0J225000D01*
G01*
X158559480Y-102561780D01*
G75*
G02*
X158784480Y-102336780I225000J0D01*
G01*
G37*
G36*
G01*
X158784480Y-100786780D02*
X159284480Y-100786780D01*
G75*
G02*
X159509480Y-101011780I0J-225000D01*
G01*
X159509480Y-101461780D01*
G75*
G02*
X159284480Y-101686780I-225000J0D01*
G01*
X158784480Y-101686780D01*
G75*
G02*
X158559480Y-101461780I0J225000D01*
G01*
X158559480Y-101011780D01*
G75*
G02*
X158784480Y-100786780I225000J0D01*
G01*
G37*
G36*
G01*
X168776840Y-102374280D02*
X169276840Y-102374280D01*
G75*
G02*
X169501840Y-102599280I0J-225000D01*
G01*
X169501840Y-103049280D01*
G75*
G02*
X169276840Y-103274280I-225000J0D01*
G01*
X168776840Y-103274280D01*
G75*
G02*
X168551840Y-103049280I0J225000D01*
G01*
X168551840Y-102599280D01*
G75*
G02*
X168776840Y-102374280I225000J0D01*
G01*
G37*
G36*
G01*
X168776840Y-100824280D02*
X169276840Y-100824280D01*
G75*
G02*
X169501840Y-101049280I0J-225000D01*
G01*
X169501840Y-101499280D01*
G75*
G02*
X169276840Y-101724280I-225000J0D01*
G01*
X168776840Y-101724280D01*
G75*
G02*
X168551840Y-101499280I0J225000D01*
G01*
X168551840Y-101049280D01*
G75*
G02*
X168776840Y-100824280I225000J0D01*
G01*
G37*
G36*
G01*
X178693000Y-102827000D02*
X179193000Y-102827000D01*
G75*
G02*
X179418000Y-103052000I0J-225000D01*
G01*
X179418000Y-103502000D01*
G75*
G02*
X179193000Y-103727000I-225000J0D01*
G01*
X178693000Y-103727000D01*
G75*
G02*
X178468000Y-103502000I0J225000D01*
G01*
X178468000Y-103052000D01*
G75*
G02*
X178693000Y-102827000I225000J0D01*
G01*
G37*
G36*
G01*
X178693000Y-101277000D02*
X179193000Y-101277000D01*
G75*
G02*
X179418000Y-101502000I0J-225000D01*
G01*
X179418000Y-101952000D01*
G75*
G02*
X179193000Y-102177000I-225000J0D01*
G01*
X178693000Y-102177000D01*
G75*
G02*
X178468000Y-101952000I0J225000D01*
G01*
X178468000Y-101502000D01*
G75*
G02*
X178693000Y-101277000I225000J0D01*
G01*
G37*
G36*
G01*
X171700000Y-95687000D02*
X171200000Y-95687000D01*
G75*
G02*
X170975000Y-95462000I0J225000D01*
G01*
X170975000Y-95012000D01*
G75*
G02*
X171200000Y-94787000I225000J0D01*
G01*
X171700000Y-94787000D01*
G75*
G02*
X171925000Y-95012000I0J-225000D01*
G01*
X171925000Y-95462000D01*
G75*
G02*
X171700000Y-95687000I-225000J0D01*
G01*
G37*
G36*
G01*
X171700000Y-97237000D02*
X171200000Y-97237000D01*
G75*
G02*
X170975000Y-97012000I0J225000D01*
G01*
X170975000Y-96562000D01*
G75*
G02*
X171200000Y-96337000I225000J0D01*
G01*
X171700000Y-96337000D01*
G75*
G02*
X171925000Y-96562000I0J-225000D01*
G01*
X171925000Y-97012000D01*
G75*
G02*
X171700000Y-97237000I-225000J0D01*
G01*
G37*
G36*
G01*
X161494280Y-95816840D02*
X160994280Y-95816840D01*
G75*
G02*
X160769280Y-95591840I0J225000D01*
G01*
X160769280Y-95141840D01*
G75*
G02*
X160994280Y-94916840I225000J0D01*
G01*
X161494280Y-94916840D01*
G75*
G02*
X161719280Y-95141840I0J-225000D01*
G01*
X161719280Y-95591840D01*
G75*
G02*
X161494280Y-95816840I-225000J0D01*
G01*
G37*
G36*
G01*
X161494280Y-97366840D02*
X160994280Y-97366840D01*
G75*
G02*
X160769280Y-97141840I0J225000D01*
G01*
X160769280Y-96691840D01*
G75*
G02*
X160994280Y-96466840I225000J0D01*
G01*
X161494280Y-96466840D01*
G75*
G02*
X161719280Y-96691840I0J-225000D01*
G01*
X161719280Y-97141840D01*
G75*
G02*
X161494280Y-97366840I-225000J0D01*
G01*
G37*
G36*
G01*
X151364760Y-95884820D02*
X150864760Y-95884820D01*
G75*
G02*
X150639760Y-95659820I0J225000D01*
G01*
X150639760Y-95209820D01*
G75*
G02*
X150864760Y-94984820I225000J0D01*
G01*
X151364760Y-94984820D01*
G75*
G02*
X151589760Y-95209820I0J-225000D01*
G01*
X151589760Y-95659820D01*
G75*
G02*
X151364760Y-95884820I-225000J0D01*
G01*
G37*
G36*
G01*
X151364760Y-97434820D02*
X150864760Y-97434820D01*
G75*
G02*
X150639760Y-97209820I0J225000D01*
G01*
X150639760Y-96759820D01*
G75*
G02*
X150864760Y-96534820I225000J0D01*
G01*
X151364760Y-96534820D01*
G75*
G02*
X151589760Y-96759820I0J-225000D01*
G01*
X151589760Y-97209820D01*
G75*
G02*
X151364760Y-97434820I-225000J0D01*
G01*
G37*
G36*
G01*
X141194600Y-95991800D02*
X140694600Y-95991800D01*
G75*
G02*
X140469600Y-95766800I0J225000D01*
G01*
X140469600Y-95316800D01*
G75*
G02*
X140694600Y-95091800I225000J0D01*
G01*
X141194600Y-95091800D01*
G75*
G02*
X141419600Y-95316800I0J-225000D01*
G01*
X141419600Y-95766800D01*
G75*
G02*
X141194600Y-95991800I-225000J0D01*
G01*
G37*
G36*
G01*
X141194600Y-97541800D02*
X140694600Y-97541800D01*
G75*
G02*
X140469600Y-97316800I0J225000D01*
G01*
X140469600Y-96866800D01*
G75*
G02*
X140694600Y-96641800I225000J0D01*
G01*
X141194600Y-96641800D01*
G75*
G02*
X141419600Y-96866800I0J-225000D01*
G01*
X141419600Y-97316800D01*
G75*
G02*
X141194600Y-97541800I-225000J0D01*
G01*
G37*
G36*
G01*
X130806000Y-95941000D02*
X130306000Y-95941000D01*
G75*
G02*
X130081000Y-95716000I0J225000D01*
G01*
X130081000Y-95266000D01*
G75*
G02*
X130306000Y-95041000I225000J0D01*
G01*
X130806000Y-95041000D01*
G75*
G02*
X131031000Y-95266000I0J-225000D01*
G01*
X131031000Y-95716000D01*
G75*
G02*
X130806000Y-95941000I-225000J0D01*
G01*
G37*
G36*
G01*
X130806000Y-97491000D02*
X130306000Y-97491000D01*
G75*
G02*
X130081000Y-97266000I0J225000D01*
G01*
X130081000Y-96816000D01*
G75*
G02*
X130306000Y-96591000I225000J0D01*
G01*
X130806000Y-96591000D01*
G75*
G02*
X131031000Y-96816000I0J-225000D01*
G01*
X131031000Y-97266000D01*
G75*
G02*
X130806000Y-97491000I-225000J0D01*
G01*
G37*
G36*
G01*
X120773000Y-95941000D02*
X120273000Y-95941000D01*
G75*
G02*
X120048000Y-95716000I0J225000D01*
G01*
X120048000Y-95266000D01*
G75*
G02*
X120273000Y-95041000I225000J0D01*
G01*
X120773000Y-95041000D01*
G75*
G02*
X120998000Y-95266000I0J-225000D01*
G01*
X120998000Y-95716000D01*
G75*
G02*
X120773000Y-95941000I-225000J0D01*
G01*
G37*
G36*
G01*
X120773000Y-97491000D02*
X120273000Y-97491000D01*
G75*
G02*
X120048000Y-97266000I0J225000D01*
G01*
X120048000Y-96816000D01*
G75*
G02*
X120273000Y-96591000I225000J0D01*
G01*
X120773000Y-96591000D01*
G75*
G02*
X120998000Y-96816000I0J-225000D01*
G01*
X120998000Y-97266000D01*
G75*
G02*
X120773000Y-97491000I-225000J0D01*
G01*
G37*
G36*
G01*
X110613000Y-95700000D02*
X110113000Y-95700000D01*
G75*
G02*
X109888000Y-95475000I0J225000D01*
G01*
X109888000Y-95025000D01*
G75*
G02*
X110113000Y-94800000I225000J0D01*
G01*
X110613000Y-94800000D01*
G75*
G02*
X110838000Y-95025000I0J-225000D01*
G01*
X110838000Y-95475000D01*
G75*
G02*
X110613000Y-95700000I-225000J0D01*
G01*
G37*
G36*
G01*
X110613000Y-97250000D02*
X110113000Y-97250000D01*
G75*
G02*
X109888000Y-97025000I0J225000D01*
G01*
X109888000Y-96575000D01*
G75*
G02*
X110113000Y-96350000I225000J0D01*
G01*
X110613000Y-96350000D01*
G75*
G02*
X110838000Y-96575000I0J-225000D01*
G01*
X110838000Y-97025000D01*
G75*
G02*
X110613000Y-97250000I-225000J0D01*
G01*
G37*
G36*
G01*
X100767960Y-97741860D02*
X100267960Y-97741860D01*
G75*
G02*
X100042960Y-97516860I0J225000D01*
G01*
X100042960Y-97066860D01*
G75*
G02*
X100267960Y-96841860I225000J0D01*
G01*
X100767960Y-96841860D01*
G75*
G02*
X100992960Y-97066860I0J-225000D01*
G01*
X100992960Y-97516860D01*
G75*
G02*
X100767960Y-97741860I-225000J0D01*
G01*
G37*
G36*
G01*
X100767960Y-99291860D02*
X100267960Y-99291860D01*
G75*
G02*
X100042960Y-99066860I0J225000D01*
G01*
X100042960Y-98616860D01*
G75*
G02*
X100267960Y-98391860I225000J0D01*
G01*
X100767960Y-98391860D01*
G75*
G02*
X100992960Y-98616860I0J-225000D01*
G01*
X100992960Y-99066860D01*
G75*
G02*
X100767960Y-99291860I-225000J0D01*
G01*
G37*
G36*
G01*
X107583160Y-82427960D02*
X108083160Y-82427960D01*
G75*
G02*
X108308160Y-82652960I0J-225000D01*
G01*
X108308160Y-83102960D01*
G75*
G02*
X108083160Y-83327960I-225000J0D01*
G01*
X107583160Y-83327960D01*
G75*
G02*
X107358160Y-83102960I0J225000D01*
G01*
X107358160Y-82652960D01*
G75*
G02*
X107583160Y-82427960I225000J0D01*
G01*
G37*
G36*
G01*
X107583160Y-80877960D02*
X108083160Y-80877960D01*
G75*
G02*
X108308160Y-81102960I0J-225000D01*
G01*
X108308160Y-81552960D01*
G75*
G02*
X108083160Y-81777960I-225000J0D01*
G01*
X107583160Y-81777960D01*
G75*
G02*
X107358160Y-81552960I0J225000D01*
G01*
X107358160Y-81102960D01*
G75*
G02*
X107583160Y-80877960I225000J0D01*
G01*
G37*
G36*
G01*
X117992080Y-82321280D02*
X118492080Y-82321280D01*
G75*
G02*
X118717080Y-82546280I0J-225000D01*
G01*
X118717080Y-82996280D01*
G75*
G02*
X118492080Y-83221280I-225000J0D01*
G01*
X117992080Y-83221280D01*
G75*
G02*
X117767080Y-82996280I0J225000D01*
G01*
X117767080Y-82546280D01*
G75*
G02*
X117992080Y-82321280I225000J0D01*
G01*
G37*
G36*
G01*
X117992080Y-80771280D02*
X118492080Y-80771280D01*
G75*
G02*
X118717080Y-80996280I0J-225000D01*
G01*
X118717080Y-81446280D01*
G75*
G02*
X118492080Y-81671280I-225000J0D01*
G01*
X117992080Y-81671280D01*
G75*
G02*
X117767080Y-81446280I0J225000D01*
G01*
X117767080Y-80996280D01*
G75*
G02*
X117992080Y-80771280I225000J0D01*
G01*
G37*
G36*
G01*
X128147000Y-82227000D02*
X128647000Y-82227000D01*
G75*
G02*
X128872000Y-82452000I0J-225000D01*
G01*
X128872000Y-82902000D01*
G75*
G02*
X128647000Y-83127000I-225000J0D01*
G01*
X128147000Y-83127000D01*
G75*
G02*
X127922000Y-82902000I0J225000D01*
G01*
X127922000Y-82452000D01*
G75*
G02*
X128147000Y-82227000I225000J0D01*
G01*
G37*
G36*
G01*
X128147000Y-80677000D02*
X128647000Y-80677000D01*
G75*
G02*
X128872000Y-80902000I0J-225000D01*
G01*
X128872000Y-81352000D01*
G75*
G02*
X128647000Y-81577000I-225000J0D01*
G01*
X128147000Y-81577000D01*
G75*
G02*
X127922000Y-81352000I0J225000D01*
G01*
X127922000Y-80902000D01*
G75*
G02*
X128147000Y-80677000I225000J0D01*
G01*
G37*
G36*
G01*
X138342560Y-82247920D02*
X138842560Y-82247920D01*
G75*
G02*
X139067560Y-82472920I0J-225000D01*
G01*
X139067560Y-82922920D01*
G75*
G02*
X138842560Y-83147920I-225000J0D01*
G01*
X138342560Y-83147920D01*
G75*
G02*
X138117560Y-82922920I0J225000D01*
G01*
X138117560Y-82472920D01*
G75*
G02*
X138342560Y-82247920I225000J0D01*
G01*
G37*
G36*
G01*
X138342560Y-80697920D02*
X138842560Y-80697920D01*
G75*
G02*
X139067560Y-80922920I0J-225000D01*
G01*
X139067560Y-81372920D01*
G75*
G02*
X138842560Y-81597920I-225000J0D01*
G01*
X138342560Y-81597920D01*
G75*
G02*
X138117560Y-81372920I0J225000D01*
G01*
X138117560Y-80922920D01*
G75*
G02*
X138342560Y-80697920I225000J0D01*
G01*
G37*
G36*
G01*
X148375560Y-82328600D02*
X148875560Y-82328600D01*
G75*
G02*
X149100560Y-82553600I0J-225000D01*
G01*
X149100560Y-83003600D01*
G75*
G02*
X148875560Y-83228600I-225000J0D01*
G01*
X148375560Y-83228600D01*
G75*
G02*
X148150560Y-83003600I0J225000D01*
G01*
X148150560Y-82553600D01*
G75*
G02*
X148375560Y-82328600I225000J0D01*
G01*
G37*
G36*
G01*
X148375560Y-80778600D02*
X148875560Y-80778600D01*
G75*
G02*
X149100560Y-81003600I0J-225000D01*
G01*
X149100560Y-81453600D01*
G75*
G02*
X148875560Y-81678600I-225000J0D01*
G01*
X148375560Y-81678600D01*
G75*
G02*
X148150560Y-81453600I0J225000D01*
G01*
X148150560Y-81003600D01*
G75*
G02*
X148375560Y-80778600I225000J0D01*
G01*
G37*
G36*
G01*
X158591440Y-82504460D02*
X159091440Y-82504460D01*
G75*
G02*
X159316440Y-82729460I0J-225000D01*
G01*
X159316440Y-83179460D01*
G75*
G02*
X159091440Y-83404460I-225000J0D01*
G01*
X158591440Y-83404460D01*
G75*
G02*
X158366440Y-83179460I0J225000D01*
G01*
X158366440Y-82729460D01*
G75*
G02*
X158591440Y-82504460I225000J0D01*
G01*
G37*
G36*
G01*
X158591440Y-80954460D02*
X159091440Y-80954460D01*
G75*
G02*
X159316440Y-81179460I0J-225000D01*
G01*
X159316440Y-81629460D01*
G75*
G02*
X159091440Y-81854460I-225000J0D01*
G01*
X158591440Y-81854460D01*
G75*
G02*
X158366440Y-81629460I0J225000D01*
G01*
X158366440Y-81179460D01*
G75*
G02*
X158591440Y-80954460I225000J0D01*
G01*
G37*
G36*
G01*
X168660000Y-82367000D02*
X169160000Y-82367000D01*
G75*
G02*
X169385000Y-82592000I0J-225000D01*
G01*
X169385000Y-83042000D01*
G75*
G02*
X169160000Y-83267000I-225000J0D01*
G01*
X168660000Y-83267000D01*
G75*
G02*
X168435000Y-83042000I0J225000D01*
G01*
X168435000Y-82592000D01*
G75*
G02*
X168660000Y-82367000I225000J0D01*
G01*
G37*
G36*
G01*
X168660000Y-80817000D02*
X169160000Y-80817000D01*
G75*
G02*
X169385000Y-81042000I0J-225000D01*
G01*
X169385000Y-81492000D01*
G75*
G02*
X169160000Y-81717000I-225000J0D01*
G01*
X168660000Y-81717000D01*
G75*
G02*
X168435000Y-81492000I0J225000D01*
G01*
X168435000Y-81042000D01*
G75*
G02*
X168660000Y-80817000I225000J0D01*
G01*
G37*
G36*
G01*
X179193000Y-78783000D02*
X178693000Y-78783000D01*
G75*
G02*
X178468000Y-78558000I0J225000D01*
G01*
X178468000Y-78108000D01*
G75*
G02*
X178693000Y-77883000I225000J0D01*
G01*
X179193000Y-77883000D01*
G75*
G02*
X179418000Y-78108000I0J-225000D01*
G01*
X179418000Y-78558000D01*
G75*
G02*
X179193000Y-78783000I-225000J0D01*
G01*
G37*
G36*
G01*
X179193000Y-80333000D02*
X178693000Y-80333000D01*
G75*
G02*
X178468000Y-80108000I0J225000D01*
G01*
X178468000Y-79658000D01*
G75*
G02*
X178693000Y-79433000I225000J0D01*
G01*
X179193000Y-79433000D01*
G75*
G02*
X179418000Y-79658000I0J-225000D01*
G01*
X179418000Y-80108000D01*
G75*
G02*
X179193000Y-80333000I-225000J0D01*
G01*
G37*
G36*
G01*
X171740640Y-75831520D02*
X171240640Y-75831520D01*
G75*
G02*
X171015640Y-75606520I0J225000D01*
G01*
X171015640Y-75156520D01*
G75*
G02*
X171240640Y-74931520I225000J0D01*
G01*
X171740640Y-74931520D01*
G75*
G02*
X171965640Y-75156520I0J-225000D01*
G01*
X171965640Y-75606520D01*
G75*
G02*
X171740640Y-75831520I-225000J0D01*
G01*
G37*
G36*
G01*
X171740640Y-77381520D02*
X171240640Y-77381520D01*
G75*
G02*
X171015640Y-77156520I0J225000D01*
G01*
X171015640Y-76706520D01*
G75*
G02*
X171240640Y-76481520I225000J0D01*
G01*
X171740640Y-76481520D01*
G75*
G02*
X171965640Y-76706520I0J-225000D01*
G01*
X171965640Y-77156520D01*
G75*
G02*
X171740640Y-77381520I-225000J0D01*
G01*
G37*
G36*
G01*
X161540000Y-75862000D02*
X161040000Y-75862000D01*
G75*
G02*
X160815000Y-75637000I0J225000D01*
G01*
X160815000Y-75187000D01*
G75*
G02*
X161040000Y-74962000I225000J0D01*
G01*
X161540000Y-74962000D01*
G75*
G02*
X161765000Y-75187000I0J-225000D01*
G01*
X161765000Y-75637000D01*
G75*
G02*
X161540000Y-75862000I-225000J0D01*
G01*
G37*
G36*
G01*
X161540000Y-77412000D02*
X161040000Y-77412000D01*
G75*
G02*
X160815000Y-77187000I0J225000D01*
G01*
X160815000Y-76737000D01*
G75*
G02*
X161040000Y-76512000I225000J0D01*
G01*
X161540000Y-76512000D01*
G75*
G02*
X161765000Y-76737000I0J-225000D01*
G01*
X161765000Y-77187000D01*
G75*
G02*
X161540000Y-77412000I-225000J0D01*
G01*
G37*
G36*
G01*
X151126000Y-76142000D02*
X150626000Y-76142000D01*
G75*
G02*
X150401000Y-75917000I0J225000D01*
G01*
X150401000Y-75467000D01*
G75*
G02*
X150626000Y-75242000I225000J0D01*
G01*
X151126000Y-75242000D01*
G75*
G02*
X151351000Y-75467000I0J-225000D01*
G01*
X151351000Y-75917000D01*
G75*
G02*
X151126000Y-76142000I-225000J0D01*
G01*
G37*
G36*
G01*
X151126000Y-77692000D02*
X150626000Y-77692000D01*
G75*
G02*
X150401000Y-77467000I0J225000D01*
G01*
X150401000Y-77017000D01*
G75*
G02*
X150626000Y-76792000I225000J0D01*
G01*
X151126000Y-76792000D01*
G75*
G02*
X151351000Y-77017000I0J-225000D01*
G01*
X151351000Y-77467000D01*
G75*
G02*
X151126000Y-77692000I-225000J0D01*
G01*
G37*
G36*
G01*
X141377480Y-75745760D02*
X140877480Y-75745760D01*
G75*
G02*
X140652480Y-75520760I0J225000D01*
G01*
X140652480Y-75070760D01*
G75*
G02*
X140877480Y-74845760I225000J0D01*
G01*
X141377480Y-74845760D01*
G75*
G02*
X141602480Y-75070760I0J-225000D01*
G01*
X141602480Y-75520760D01*
G75*
G02*
X141377480Y-75745760I-225000J0D01*
G01*
G37*
G36*
G01*
X141377480Y-77295760D02*
X140877480Y-77295760D01*
G75*
G02*
X140652480Y-77070760I0J225000D01*
G01*
X140652480Y-76620760D01*
G75*
G02*
X140877480Y-76395760I225000J0D01*
G01*
X141377480Y-76395760D01*
G75*
G02*
X141602480Y-76620760I0J-225000D01*
G01*
X141602480Y-77070760D01*
G75*
G02*
X141377480Y-77295760I-225000J0D01*
G01*
G37*
G36*
G01*
X131060000Y-75875000D02*
X130560000Y-75875000D01*
G75*
G02*
X130335000Y-75650000I0J225000D01*
G01*
X130335000Y-75200000D01*
G75*
G02*
X130560000Y-74975000I225000J0D01*
G01*
X131060000Y-74975000D01*
G75*
G02*
X131285000Y-75200000I0J-225000D01*
G01*
X131285000Y-75650000D01*
G75*
G02*
X131060000Y-75875000I-225000J0D01*
G01*
G37*
G36*
G01*
X131060000Y-77425000D02*
X130560000Y-77425000D01*
G75*
G02*
X130335000Y-77200000I0J225000D01*
G01*
X130335000Y-76750000D01*
G75*
G02*
X130560000Y-76525000I225000J0D01*
G01*
X131060000Y-76525000D01*
G75*
G02*
X131285000Y-76750000I0J-225000D01*
G01*
X131285000Y-77200000D01*
G75*
G02*
X131060000Y-77425000I-225000J0D01*
G01*
G37*
G36*
G01*
X120808560Y-76002000D02*
X120308560Y-76002000D01*
G75*
G02*
X120083560Y-75777000I0J225000D01*
G01*
X120083560Y-75327000D01*
G75*
G02*
X120308560Y-75102000I225000J0D01*
G01*
X120808560Y-75102000D01*
G75*
G02*
X121033560Y-75327000I0J-225000D01*
G01*
X121033560Y-75777000D01*
G75*
G02*
X120808560Y-76002000I-225000J0D01*
G01*
G37*
G36*
G01*
X120808560Y-77552000D02*
X120308560Y-77552000D01*
G75*
G02*
X120083560Y-77327000I0J225000D01*
G01*
X120083560Y-76877000D01*
G75*
G02*
X120308560Y-76652000I225000J0D01*
G01*
X120808560Y-76652000D01*
G75*
G02*
X121033560Y-76877000I0J-225000D01*
G01*
X121033560Y-77327000D01*
G75*
G02*
X120808560Y-77552000I-225000J0D01*
G01*
G37*
G36*
G01*
X110600300Y-75862000D02*
X110100300Y-75862000D01*
G75*
G02*
X109875300Y-75637000I0J225000D01*
G01*
X109875300Y-75187000D01*
G75*
G02*
X110100300Y-74962000I225000J0D01*
G01*
X110600300Y-74962000D01*
G75*
G02*
X110825300Y-75187000I0J-225000D01*
G01*
X110825300Y-75637000D01*
G75*
G02*
X110600300Y-75862000I-225000J0D01*
G01*
G37*
G36*
G01*
X110600300Y-77412000D02*
X110100300Y-77412000D01*
G75*
G02*
X109875300Y-77187000I0J225000D01*
G01*
X109875300Y-76737000D01*
G75*
G02*
X110100300Y-76512000I225000J0D01*
G01*
X110600300Y-76512000D01*
G75*
G02*
X110825300Y-76737000I0J-225000D01*
G01*
X110825300Y-77187000D01*
G75*
G02*
X110600300Y-77412000I-225000J0D01*
G01*
G37*
G36*
G01*
X100834000Y-74846000D02*
X100334000Y-74846000D01*
G75*
G02*
X100109000Y-74621000I0J225000D01*
G01*
X100109000Y-74171000D01*
G75*
G02*
X100334000Y-73946000I225000J0D01*
G01*
X100834000Y-73946000D01*
G75*
G02*
X101059000Y-74171000I0J-225000D01*
G01*
X101059000Y-74621000D01*
G75*
G02*
X100834000Y-74846000I-225000J0D01*
G01*
G37*
G36*
G01*
X100834000Y-76396000D02*
X100334000Y-76396000D01*
G75*
G02*
X100109000Y-76171000I0J225000D01*
G01*
X100109000Y-75721000D01*
G75*
G02*
X100334000Y-75496000I225000J0D01*
G01*
X100834000Y-75496000D01*
G75*
G02*
X101059000Y-75721000I0J-225000D01*
G01*
X101059000Y-76171000D01*
G75*
G02*
X100834000Y-76396000I-225000J0D01*
G01*
G37*
G36*
G01*
X109850600Y-59798400D02*
X109300600Y-59798400D01*
G75*
G02*
X109100600Y-59598400I0J200000D01*
G01*
X109100600Y-59198400D01*
G75*
G02*
X109300600Y-58998400I200000J0D01*
G01*
X109850600Y-58998400D01*
G75*
G02*
X110050600Y-59198400I0J-200000D01*
G01*
X110050600Y-59598400D01*
G75*
G02*
X109850600Y-59798400I-200000J0D01*
G01*
G37*
G36*
G01*
X109850600Y-61448400D02*
X109300600Y-61448400D01*
G75*
G02*
X109100600Y-61248400I0J200000D01*
G01*
X109100600Y-60848400D01*
G75*
G02*
X109300600Y-60648400I200000J0D01*
G01*
X109850600Y-60648400D01*
G75*
G02*
X110050600Y-60848400I0J-200000D01*
G01*
X110050600Y-61248400D01*
G75*
G02*
X109850600Y-61448400I-200000J0D01*
G01*
G37*
G36*
G01*
X120086800Y-59722200D02*
X119536800Y-59722200D01*
G75*
G02*
X119336800Y-59522200I0J200000D01*
G01*
X119336800Y-59122200D01*
G75*
G02*
X119536800Y-58922200I200000J0D01*
G01*
X120086800Y-58922200D01*
G75*
G02*
X120286800Y-59122200I0J-200000D01*
G01*
X120286800Y-59522200D01*
G75*
G02*
X120086800Y-59722200I-200000J0D01*
G01*
G37*
G36*
G01*
X120086800Y-61372200D02*
X119536800Y-61372200D01*
G75*
G02*
X119336800Y-61172200I0J200000D01*
G01*
X119336800Y-60772200D01*
G75*
G02*
X119536800Y-60572200I200000J0D01*
G01*
X120086800Y-60572200D01*
G75*
G02*
X120286800Y-60772200I0J-200000D01*
G01*
X120286800Y-61172200D01*
G75*
G02*
X120086800Y-61372200I-200000J0D01*
G01*
G37*
G36*
G01*
X130856400Y-59659200D02*
X130306400Y-59659200D01*
G75*
G02*
X130106400Y-59459200I0J200000D01*
G01*
X130106400Y-59059200D01*
G75*
G02*
X130306400Y-58859200I200000J0D01*
G01*
X130856400Y-58859200D01*
G75*
G02*
X131056400Y-59059200I0J-200000D01*
G01*
X131056400Y-59459200D01*
G75*
G02*
X130856400Y-59659200I-200000J0D01*
G01*
G37*
G36*
G01*
X130856400Y-61309200D02*
X130306400Y-61309200D01*
G75*
G02*
X130106400Y-61109200I0J200000D01*
G01*
X130106400Y-60709200D01*
G75*
G02*
X130306400Y-60509200I200000J0D01*
G01*
X130856400Y-60509200D01*
G75*
G02*
X131056400Y-60709200I0J-200000D01*
G01*
X131056400Y-61109200D01*
G75*
G02*
X130856400Y-61309200I-200000J0D01*
G01*
G37*
G36*
G01*
X140368700Y-59697300D02*
X139818700Y-59697300D01*
G75*
G02*
X139618700Y-59497300I0J200000D01*
G01*
X139618700Y-59097300D01*
G75*
G02*
X139818700Y-58897300I200000J0D01*
G01*
X140368700Y-58897300D01*
G75*
G02*
X140568700Y-59097300I0J-200000D01*
G01*
X140568700Y-59497300D01*
G75*
G02*
X140368700Y-59697300I-200000J0D01*
G01*
G37*
G36*
G01*
X140368700Y-61347300D02*
X139818700Y-61347300D01*
G75*
G02*
X139618700Y-61147300I0J200000D01*
G01*
X139618700Y-60747300D01*
G75*
G02*
X139818700Y-60547300I200000J0D01*
G01*
X140368700Y-60547300D01*
G75*
G02*
X140568700Y-60747300I0J-200000D01*
G01*
X140568700Y-61147300D01*
G75*
G02*
X140368700Y-61347300I-200000J0D01*
G01*
G37*
G36*
G01*
X150731900Y-59963500D02*
X150181900Y-59963500D01*
G75*
G02*
X149981900Y-59763500I0J200000D01*
G01*
X149981900Y-59363500D01*
G75*
G02*
X150181900Y-59163500I200000J0D01*
G01*
X150731900Y-59163500D01*
G75*
G02*
X150931900Y-59363500I0J-200000D01*
G01*
X150931900Y-59763500D01*
G75*
G02*
X150731900Y-59963500I-200000J0D01*
G01*
G37*
G36*
G01*
X150731900Y-61613500D02*
X150181900Y-61613500D01*
G75*
G02*
X149981900Y-61413500I0J200000D01*
G01*
X149981900Y-61013500D01*
G75*
G02*
X150181900Y-60813500I200000J0D01*
G01*
X150731900Y-60813500D01*
G75*
G02*
X150931900Y-61013500I0J-200000D01*
G01*
X150931900Y-61413500D01*
G75*
G02*
X150731900Y-61613500I-200000J0D01*
G01*
G37*
G36*
G01*
X160549000Y-59773000D02*
X159999000Y-59773000D01*
G75*
G02*
X159799000Y-59573000I0J200000D01*
G01*
X159799000Y-59173000D01*
G75*
G02*
X159999000Y-58973000I200000J0D01*
G01*
X160549000Y-58973000D01*
G75*
G02*
X160749000Y-59173000I0J-200000D01*
G01*
X160749000Y-59573000D01*
G75*
G02*
X160549000Y-59773000I-200000J0D01*
G01*
G37*
G36*
G01*
X160549000Y-61423000D02*
X159999000Y-61423000D01*
G75*
G02*
X159799000Y-61223000I0J200000D01*
G01*
X159799000Y-60823000D01*
G75*
G02*
X159999000Y-60623000I200000J0D01*
G01*
X160549000Y-60623000D01*
G75*
G02*
X160749000Y-60823000I0J-200000D01*
G01*
X160749000Y-61223000D01*
G75*
G02*
X160549000Y-61423000I-200000J0D01*
G01*
G37*
G36*
G01*
X171471000Y-59265000D02*
X170921000Y-59265000D01*
G75*
G02*
X170721000Y-59065000I0J200000D01*
G01*
X170721000Y-58665000D01*
G75*
G02*
X170921000Y-58465000I200000J0D01*
G01*
X171471000Y-58465000D01*
G75*
G02*
X171671000Y-58665000I0J-200000D01*
G01*
X171671000Y-59065000D01*
G75*
G02*
X171471000Y-59265000I-200000J0D01*
G01*
G37*
G36*
G01*
X171471000Y-60915000D02*
X170921000Y-60915000D01*
G75*
G02*
X170721000Y-60715000I0J200000D01*
G01*
X170721000Y-60315000D01*
G75*
G02*
X170921000Y-60115000I200000J0D01*
G01*
X171471000Y-60115000D01*
G75*
G02*
X171671000Y-60315000I0J-200000D01*
G01*
X171671000Y-60715000D01*
G75*
G02*
X171471000Y-60915000I-200000J0D01*
G01*
G37*
G36*
G01*
X175915000Y-58145000D02*
X175915000Y-58695000D01*
G75*
G02*
X175715000Y-58895000I-200000J0D01*
G01*
X175315000Y-58895000D01*
G75*
G02*
X175115000Y-58695000I0J200000D01*
G01*
X175115000Y-58145000D01*
G75*
G02*
X175315000Y-57945000I200000J0D01*
G01*
X175715000Y-57945000D01*
G75*
G02*
X175915000Y-58145000I0J-200000D01*
G01*
G37*
G36*
G01*
X177565000Y-58145000D02*
X177565000Y-58695000D01*
G75*
G02*
X177365000Y-58895000I-200000J0D01*
G01*
X176965000Y-58895000D01*
G75*
G02*
X176765000Y-58695000I0J200000D01*
G01*
X176765000Y-58145000D01*
G75*
G02*
X176965000Y-57945000I200000J0D01*
G01*
X177365000Y-57945000D01*
G75*
G02*
X177565000Y-58145000I0J-200000D01*
G01*
G37*
G36*
G01*
X107700000Y-61920000D02*
X108200000Y-61920000D01*
G75*
G02*
X108425000Y-62145000I0J-225000D01*
G01*
X108425000Y-62595000D01*
G75*
G02*
X108200000Y-62820000I-225000J0D01*
G01*
X107700000Y-62820000D01*
G75*
G02*
X107475000Y-62595000I0J225000D01*
G01*
X107475000Y-62145000D01*
G75*
G02*
X107700000Y-61920000I225000J0D01*
G01*
G37*
G36*
G01*
X107700000Y-60370000D02*
X108200000Y-60370000D01*
G75*
G02*
X108425000Y-60595000I0J-225000D01*
G01*
X108425000Y-61045000D01*
G75*
G02*
X108200000Y-61270000I-225000J0D01*
G01*
X107700000Y-61270000D01*
G75*
G02*
X107475000Y-61045000I0J225000D01*
G01*
X107475000Y-60595000D01*
G75*
G02*
X107700000Y-60370000I225000J0D01*
G01*
G37*
G36*
G01*
X117885400Y-61882200D02*
X118385400Y-61882200D01*
G75*
G02*
X118610400Y-62107200I0J-225000D01*
G01*
X118610400Y-62557200D01*
G75*
G02*
X118385400Y-62782200I-225000J0D01*
G01*
X117885400Y-62782200D01*
G75*
G02*
X117660400Y-62557200I0J225000D01*
G01*
X117660400Y-62107200D01*
G75*
G02*
X117885400Y-61882200I225000J0D01*
G01*
G37*
G36*
G01*
X117885400Y-60332200D02*
X118385400Y-60332200D01*
G75*
G02*
X118610400Y-60557200I0J-225000D01*
G01*
X118610400Y-61007200D01*
G75*
G02*
X118385400Y-61232200I-225000J0D01*
G01*
X117885400Y-61232200D01*
G75*
G02*
X117660400Y-61007200I0J225000D01*
G01*
X117660400Y-60557200D01*
G75*
G02*
X117885400Y-60332200I225000J0D01*
G01*
G37*
G36*
G01*
X128299400Y-61882200D02*
X128799400Y-61882200D01*
G75*
G02*
X129024400Y-62107200I0J-225000D01*
G01*
X129024400Y-62557200D01*
G75*
G02*
X128799400Y-62782200I-225000J0D01*
G01*
X128299400Y-62782200D01*
G75*
G02*
X128074400Y-62557200I0J225000D01*
G01*
X128074400Y-62107200D01*
G75*
G02*
X128299400Y-61882200I225000J0D01*
G01*
G37*
G36*
G01*
X128299400Y-60332200D02*
X128799400Y-60332200D01*
G75*
G02*
X129024400Y-60557200I0J-225000D01*
G01*
X129024400Y-61007200D01*
G75*
G02*
X128799400Y-61232200I-225000J0D01*
G01*
X128299400Y-61232200D01*
G75*
G02*
X128074400Y-61007200I0J225000D01*
G01*
X128074400Y-60557200D01*
G75*
G02*
X128299400Y-60332200I225000J0D01*
G01*
G37*
G36*
G01*
X138014900Y-61831100D02*
X138514900Y-61831100D01*
G75*
G02*
X138739900Y-62056100I0J-225000D01*
G01*
X138739900Y-62506100D01*
G75*
G02*
X138514900Y-62731100I-225000J0D01*
G01*
X138014900Y-62731100D01*
G75*
G02*
X137789900Y-62506100I0J225000D01*
G01*
X137789900Y-62056100D01*
G75*
G02*
X138014900Y-61831100I225000J0D01*
G01*
G37*
G36*
G01*
X138014900Y-60281100D02*
X138514900Y-60281100D01*
G75*
G02*
X138739900Y-60506100I0J-225000D01*
G01*
X138739900Y-60956100D01*
G75*
G02*
X138514900Y-61181100I-225000J0D01*
G01*
X138014900Y-61181100D01*
G75*
G02*
X137789900Y-60956100I0J225000D01*
G01*
X137789900Y-60506100D01*
G75*
G02*
X138014900Y-60281100I225000J0D01*
G01*
G37*
G36*
G01*
X148238400Y-61831400D02*
X148738400Y-61831400D01*
G75*
G02*
X148963400Y-62056400I0J-225000D01*
G01*
X148963400Y-62506400D01*
G75*
G02*
X148738400Y-62731400I-225000J0D01*
G01*
X148238400Y-62731400D01*
G75*
G02*
X148013400Y-62506400I0J225000D01*
G01*
X148013400Y-62056400D01*
G75*
G02*
X148238400Y-61831400I225000J0D01*
G01*
G37*
G36*
G01*
X148238400Y-60281400D02*
X148738400Y-60281400D01*
G75*
G02*
X148963400Y-60506400I0J-225000D01*
G01*
X148963400Y-60956400D01*
G75*
G02*
X148738400Y-61181400I-225000J0D01*
G01*
X148238400Y-61181400D01*
G75*
G02*
X148013400Y-60956400I0J225000D01*
G01*
X148013400Y-60506400D01*
G75*
G02*
X148238400Y-60281400I225000J0D01*
G01*
G37*
G36*
G01*
X158246000Y-61806000D02*
X158746000Y-61806000D01*
G75*
G02*
X158971000Y-62031000I0J-225000D01*
G01*
X158971000Y-62481000D01*
G75*
G02*
X158746000Y-62706000I-225000J0D01*
G01*
X158246000Y-62706000D01*
G75*
G02*
X158021000Y-62481000I0J225000D01*
G01*
X158021000Y-62031000D01*
G75*
G02*
X158246000Y-61806000I225000J0D01*
G01*
G37*
G36*
G01*
X158246000Y-60256000D02*
X158746000Y-60256000D01*
G75*
G02*
X158971000Y-60481000I0J-225000D01*
G01*
X158971000Y-60931000D01*
G75*
G02*
X158746000Y-61156000I-225000J0D01*
G01*
X158246000Y-61156000D01*
G75*
G02*
X158021000Y-60931000I0J225000D01*
G01*
X158021000Y-60481000D01*
G75*
G02*
X158246000Y-60256000I225000J0D01*
G01*
G37*
G36*
G01*
X168660000Y-61806000D02*
X169160000Y-61806000D01*
G75*
G02*
X169385000Y-62031000I0J-225000D01*
G01*
X169385000Y-62481000D01*
G75*
G02*
X169160000Y-62706000I-225000J0D01*
G01*
X168660000Y-62706000D01*
G75*
G02*
X168435000Y-62481000I0J225000D01*
G01*
X168435000Y-62031000D01*
G75*
G02*
X168660000Y-61806000I225000J0D01*
G01*
G37*
G36*
G01*
X168660000Y-60256000D02*
X169160000Y-60256000D01*
G75*
G02*
X169385000Y-60481000I0J-225000D01*
G01*
X169385000Y-60931000D01*
G75*
G02*
X169160000Y-61156000I-225000J0D01*
G01*
X168660000Y-61156000D01*
G75*
G02*
X168435000Y-60931000I0J225000D01*
G01*
X168435000Y-60481000D01*
G75*
G02*
X168660000Y-60256000I225000J0D01*
G01*
G37*
G36*
G01*
X178947000Y-61933000D02*
X179447000Y-61933000D01*
G75*
G02*
X179672000Y-62158000I0J-225000D01*
G01*
X179672000Y-62608000D01*
G75*
G02*
X179447000Y-62833000I-225000J0D01*
G01*
X178947000Y-62833000D01*
G75*
G02*
X178722000Y-62608000I0J225000D01*
G01*
X178722000Y-62158000D01*
G75*
G02*
X178947000Y-61933000I225000J0D01*
G01*
G37*
G36*
G01*
X178947000Y-60383000D02*
X179447000Y-60383000D01*
G75*
G02*
X179672000Y-60608000I0J-225000D01*
G01*
X179672000Y-61058000D01*
G75*
G02*
X179447000Y-61283000I-225000J0D01*
G01*
X178947000Y-61283000D01*
G75*
G02*
X178722000Y-61058000I0J225000D01*
G01*
X178722000Y-60608000D01*
G75*
G02*
X178947000Y-60383000I225000J0D01*
G01*
G37*
G36*
G01*
X100334000Y-48585000D02*
X100834000Y-48585000D01*
G75*
G02*
X101059000Y-48810000I0J-225000D01*
G01*
X101059000Y-49260000D01*
G75*
G02*
X100834000Y-49485000I-225000J0D01*
G01*
X100334000Y-49485000D01*
G75*
G02*
X100109000Y-49260000I0J225000D01*
G01*
X100109000Y-48810000D01*
G75*
G02*
X100334000Y-48585000I225000J0D01*
G01*
G37*
G36*
G01*
X100334000Y-47035000D02*
X100834000Y-47035000D01*
G75*
G02*
X101059000Y-47260000I0J-225000D01*
G01*
X101059000Y-47710000D01*
G75*
G02*
X100834000Y-47935000I-225000J0D01*
G01*
X100334000Y-47935000D01*
G75*
G02*
X100109000Y-47710000I0J225000D01*
G01*
X100109000Y-47260000D01*
G75*
G02*
X100334000Y-47035000I225000J0D01*
G01*
G37*
G36*
G01*
X169717040Y-57067000D02*
X170267040Y-57067000D01*
G75*
G02*
X170467040Y-57267000I0J-200000D01*
G01*
X170467040Y-57667000D01*
G75*
G02*
X170267040Y-57867000I-200000J0D01*
G01*
X169717040Y-57867000D01*
G75*
G02*
X169517040Y-57667000I0J200000D01*
G01*
X169517040Y-57267000D01*
G75*
G02*
X169717040Y-57067000I200000J0D01*
G01*
G37*
G36*
G01*
X169717040Y-55417000D02*
X170267040Y-55417000D01*
G75*
G02*
X170467040Y-55617000I0J-200000D01*
G01*
X170467040Y-56017000D01*
G75*
G02*
X170267040Y-56217000I-200000J0D01*
G01*
X169717040Y-56217000D01*
G75*
G02*
X169517040Y-56017000I0J200000D01*
G01*
X169517040Y-55617000D01*
G75*
G02*
X169717040Y-55417000I200000J0D01*
G01*
G37*
G36*
G01*
X159043960Y-57470360D02*
X159593960Y-57470360D01*
G75*
G02*
X159793960Y-57670360I0J-200000D01*
G01*
X159793960Y-58070360D01*
G75*
G02*
X159593960Y-58270360I-200000J0D01*
G01*
X159043960Y-58270360D01*
G75*
G02*
X158843960Y-58070360I0J200000D01*
G01*
X158843960Y-57670360D01*
G75*
G02*
X159043960Y-57470360I200000J0D01*
G01*
G37*
G36*
G01*
X159043960Y-55820360D02*
X159593960Y-55820360D01*
G75*
G02*
X159793960Y-56020360I0J-200000D01*
G01*
X159793960Y-56420360D01*
G75*
G02*
X159593960Y-56620360I-200000J0D01*
G01*
X159043960Y-56620360D01*
G75*
G02*
X158843960Y-56420360I0J200000D01*
G01*
X158843960Y-56020360D01*
G75*
G02*
X159043960Y-55820360I200000J0D01*
G01*
G37*
G36*
G01*
X149183680Y-57272240D02*
X149733680Y-57272240D01*
G75*
G02*
X149933680Y-57472240I0J-200000D01*
G01*
X149933680Y-57872240D01*
G75*
G02*
X149733680Y-58072240I-200000J0D01*
G01*
X149183680Y-58072240D01*
G75*
G02*
X148983680Y-57872240I0J200000D01*
G01*
X148983680Y-57472240D01*
G75*
G02*
X149183680Y-57272240I200000J0D01*
G01*
G37*
G36*
G01*
X149183680Y-55622240D02*
X149733680Y-55622240D01*
G75*
G02*
X149933680Y-55822240I0J-200000D01*
G01*
X149933680Y-56222240D01*
G75*
G02*
X149733680Y-56422240I-200000J0D01*
G01*
X149183680Y-56422240D01*
G75*
G02*
X148983680Y-56222240I0J200000D01*
G01*
X148983680Y-55822240D01*
G75*
G02*
X149183680Y-55622240I200000J0D01*
G01*
G37*
G36*
G01*
X138988120Y-57488640D02*
X139538120Y-57488640D01*
G75*
G02*
X139738120Y-57688640I0J-200000D01*
G01*
X139738120Y-58088640D01*
G75*
G02*
X139538120Y-58288640I-200000J0D01*
G01*
X138988120Y-58288640D01*
G75*
G02*
X138788120Y-58088640I0J200000D01*
G01*
X138788120Y-57688640D01*
G75*
G02*
X138988120Y-57488640I200000J0D01*
G01*
G37*
G36*
G01*
X138988120Y-55838640D02*
X139538120Y-55838640D01*
G75*
G02*
X139738120Y-56038640I0J-200000D01*
G01*
X139738120Y-56438640D01*
G75*
G02*
X139538120Y-56638640I-200000J0D01*
G01*
X138988120Y-56638640D01*
G75*
G02*
X138788120Y-56438640I0J200000D01*
G01*
X138788120Y-56038640D01*
G75*
G02*
X138988120Y-55838640I200000J0D01*
G01*
G37*
G36*
G01*
X171867640Y-54986040D02*
X171367640Y-54986040D01*
G75*
G02*
X171142640Y-54761040I0J225000D01*
G01*
X171142640Y-54311040D01*
G75*
G02*
X171367640Y-54086040I225000J0D01*
G01*
X171867640Y-54086040D01*
G75*
G02*
X172092640Y-54311040I0J-225000D01*
G01*
X172092640Y-54761040D01*
G75*
G02*
X171867640Y-54986040I-225000J0D01*
G01*
G37*
G36*
G01*
X171867640Y-56536040D02*
X171367640Y-56536040D01*
G75*
G02*
X171142640Y-56311040I0J225000D01*
G01*
X171142640Y-55861040D01*
G75*
G02*
X171367640Y-55636040I225000J0D01*
G01*
X171867640Y-55636040D01*
G75*
G02*
X172092640Y-55861040I0J-225000D01*
G01*
X172092640Y-56311040D01*
G75*
G02*
X171867640Y-56536040I-225000J0D01*
G01*
G37*
G36*
G01*
X161758440Y-54876520D02*
X161258440Y-54876520D01*
G75*
G02*
X161033440Y-54651520I0J225000D01*
G01*
X161033440Y-54201520D01*
G75*
G02*
X161258440Y-53976520I225000J0D01*
G01*
X161758440Y-53976520D01*
G75*
G02*
X161983440Y-54201520I0J-225000D01*
G01*
X161983440Y-54651520D01*
G75*
G02*
X161758440Y-54876520I-225000J0D01*
G01*
G37*
G36*
G01*
X161758440Y-56426520D02*
X161258440Y-56426520D01*
G75*
G02*
X161033440Y-56201520I0J225000D01*
G01*
X161033440Y-55751520D01*
G75*
G02*
X161258440Y-55526520I225000J0D01*
G01*
X161758440Y-55526520D01*
G75*
G02*
X161983440Y-55751520I0J-225000D01*
G01*
X161983440Y-56201520D01*
G75*
G02*
X161758440Y-56426520I-225000J0D01*
G01*
G37*
G36*
G01*
X151461280Y-54887280D02*
X150961280Y-54887280D01*
G75*
G02*
X150736280Y-54662280I0J225000D01*
G01*
X150736280Y-54212280D01*
G75*
G02*
X150961280Y-53987280I225000J0D01*
G01*
X151461280Y-53987280D01*
G75*
G02*
X151686280Y-54212280I0J-225000D01*
G01*
X151686280Y-54662280D01*
G75*
G02*
X151461280Y-54887280I-225000J0D01*
G01*
G37*
G36*
G01*
X151461280Y-56437280D02*
X150961280Y-56437280D01*
G75*
G02*
X150736280Y-56212280I0J225000D01*
G01*
X150736280Y-55762280D01*
G75*
G02*
X150961280Y-55537280I225000J0D01*
G01*
X151461280Y-55537280D01*
G75*
G02*
X151686280Y-55762280I0J-225000D01*
G01*
X151686280Y-56212280D01*
G75*
G02*
X151461280Y-56437280I-225000J0D01*
G01*
G37*
G36*
G01*
X141189520Y-54891760D02*
X140689520Y-54891760D01*
G75*
G02*
X140464520Y-54666760I0J225000D01*
G01*
X140464520Y-54216760D01*
G75*
G02*
X140689520Y-53991760I225000J0D01*
G01*
X141189520Y-53991760D01*
G75*
G02*
X141414520Y-54216760I0J-225000D01*
G01*
X141414520Y-54666760D01*
G75*
G02*
X141189520Y-54891760I-225000J0D01*
G01*
G37*
G36*
G01*
X141189520Y-56441760D02*
X140689520Y-56441760D01*
G75*
G02*
X140464520Y-56216760I0J225000D01*
G01*
X140464520Y-55766760D01*
G75*
G02*
X140689520Y-55541760I225000J0D01*
G01*
X141189520Y-55541760D01*
G75*
G02*
X141414520Y-55766760I0J-225000D01*
G01*
X141414520Y-56216760D01*
G75*
G02*
X141189520Y-56441760I-225000J0D01*
G01*
G37*
G36*
G01*
X131212400Y-54716500D02*
X130712400Y-54716500D01*
G75*
G02*
X130487400Y-54491500I0J225000D01*
G01*
X130487400Y-54041500D01*
G75*
G02*
X130712400Y-53816500I225000J0D01*
G01*
X131212400Y-53816500D01*
G75*
G02*
X131437400Y-54041500I0J-225000D01*
G01*
X131437400Y-54491500D01*
G75*
G02*
X131212400Y-54716500I-225000J0D01*
G01*
G37*
G36*
G01*
X131212400Y-56266500D02*
X130712400Y-56266500D01*
G75*
G02*
X130487400Y-56041500I0J225000D01*
G01*
X130487400Y-55591500D01*
G75*
G02*
X130712400Y-55366500I225000J0D01*
G01*
X131212400Y-55366500D01*
G75*
G02*
X131437400Y-55591500I0J-225000D01*
G01*
X131437400Y-56041500D01*
G75*
G02*
X131212400Y-56266500I-225000J0D01*
G01*
G37*
G36*
G01*
X110536800Y-55199400D02*
X110036800Y-55199400D01*
G75*
G02*
X109811800Y-54974400I0J225000D01*
G01*
X109811800Y-54524400D01*
G75*
G02*
X110036800Y-54299400I225000J0D01*
G01*
X110536800Y-54299400D01*
G75*
G02*
X110761800Y-54524400I0J-225000D01*
G01*
X110761800Y-54974400D01*
G75*
G02*
X110536800Y-55199400I-225000J0D01*
G01*
G37*
G36*
G01*
X110536800Y-56749400D02*
X110036800Y-56749400D01*
G75*
G02*
X109811800Y-56524400I0J225000D01*
G01*
X109811800Y-56074400D01*
G75*
G02*
X110036800Y-55849400I225000J0D01*
G01*
X110536800Y-55849400D01*
G75*
G02*
X110761800Y-56074400I0J-225000D01*
G01*
X110761800Y-56524400D01*
G75*
G02*
X110536800Y-56749400I-225000J0D01*
G01*
G37*
G36*
G01*
X100334000Y-58491000D02*
X100834000Y-58491000D01*
G75*
G02*
X101059000Y-58716000I0J-225000D01*
G01*
X101059000Y-59166000D01*
G75*
G02*
X100834000Y-59391000I-225000J0D01*
G01*
X100334000Y-59391000D01*
G75*
G02*
X100109000Y-59166000I0J225000D01*
G01*
X100109000Y-58716000D01*
G75*
G02*
X100334000Y-58491000I225000J0D01*
G01*
G37*
G36*
G01*
X100334000Y-56941000D02*
X100834000Y-56941000D01*
G75*
G02*
X101059000Y-57166000I0J-225000D01*
G01*
X101059000Y-57616000D01*
G75*
G02*
X100834000Y-57841000I-225000J0D01*
G01*
X100334000Y-57841000D01*
G75*
G02*
X100109000Y-57616000I0J225000D01*
G01*
X100109000Y-57166000D01*
G75*
G02*
X100334000Y-56941000I225000J0D01*
G01*
G37*
G36*
G01*
X120976200Y-55135900D02*
X120476200Y-55135900D01*
G75*
G02*
X120251200Y-54910900I0J225000D01*
G01*
X120251200Y-54460900D01*
G75*
G02*
X120476200Y-54235900I225000J0D01*
G01*
X120976200Y-54235900D01*
G75*
G02*
X121201200Y-54460900I0J-225000D01*
G01*
X121201200Y-54910900D01*
G75*
G02*
X120976200Y-55135900I-225000J0D01*
G01*
G37*
G36*
G01*
X120976200Y-56685900D02*
X120476200Y-56685900D01*
G75*
G02*
X120251200Y-56460900I0J225000D01*
G01*
X120251200Y-56010900D01*
G75*
G02*
X120476200Y-55785900I225000J0D01*
G01*
X120976200Y-55785900D01*
G75*
G02*
X121201200Y-56010900I0J-225000D01*
G01*
X121201200Y-56460900D01*
G75*
G02*
X120976200Y-56685900I-225000J0D01*
G01*
G37*
G36*
G01*
X129061800Y-57460700D02*
X129611800Y-57460700D01*
G75*
G02*
X129811800Y-57660700I0J-200000D01*
G01*
X129811800Y-58060700D01*
G75*
G02*
X129611800Y-58260700I-200000J0D01*
G01*
X129061800Y-58260700D01*
G75*
G02*
X128861800Y-58060700I0J200000D01*
G01*
X128861800Y-57660700D01*
G75*
G02*
X129061800Y-57460700I200000J0D01*
G01*
G37*
G36*
G01*
X129061800Y-55810700D02*
X129611800Y-55810700D01*
G75*
G02*
X129811800Y-56010700I0J-200000D01*
G01*
X129811800Y-56410700D01*
G75*
G02*
X129611800Y-56610700I-200000J0D01*
G01*
X129061800Y-56610700D01*
G75*
G02*
X128861800Y-56410700I0J200000D01*
G01*
X128861800Y-56010700D01*
G75*
G02*
X129061800Y-55810700I200000J0D01*
G01*
G37*
G36*
G01*
X108223640Y-57590240D02*
X108773640Y-57590240D01*
G75*
G02*
X108973640Y-57790240I0J-200000D01*
G01*
X108973640Y-58190240D01*
G75*
G02*
X108773640Y-58390240I-200000J0D01*
G01*
X108223640Y-58390240D01*
G75*
G02*
X108023640Y-58190240I0J200000D01*
G01*
X108023640Y-57790240D01*
G75*
G02*
X108223640Y-57590240I200000J0D01*
G01*
G37*
G36*
G01*
X108223640Y-55940240D02*
X108773640Y-55940240D01*
G75*
G02*
X108973640Y-56140240I0J-200000D01*
G01*
X108973640Y-56540240D01*
G75*
G02*
X108773640Y-56740240I-200000J0D01*
G01*
X108223640Y-56740240D01*
G75*
G02*
X108023640Y-56540240I0J200000D01*
G01*
X108023640Y-56140240D01*
G75*
G02*
X108223640Y-55940240I200000J0D01*
G01*
G37*
G36*
G01*
X100859000Y-54502000D02*
X100309000Y-54502000D01*
G75*
G02*
X100109000Y-54302000I0J200000D01*
G01*
X100109000Y-53902000D01*
G75*
G02*
X100309000Y-53702000I200000J0D01*
G01*
X100859000Y-53702000D01*
G75*
G02*
X101059000Y-53902000I0J-200000D01*
G01*
X101059000Y-54302000D01*
G75*
G02*
X100859000Y-54502000I-200000J0D01*
G01*
G37*
G36*
G01*
X100859000Y-56152000D02*
X100309000Y-56152000D01*
G75*
G02*
X100109000Y-55952000I0J200000D01*
G01*
X100109000Y-55552000D01*
G75*
G02*
X100309000Y-55352000I200000J0D01*
G01*
X100859000Y-55352000D01*
G75*
G02*
X101059000Y-55552000I0J-200000D01*
G01*
X101059000Y-55952000D01*
G75*
G02*
X100859000Y-56152000I-200000J0D01*
G01*
G37*
G36*
G01*
X118815440Y-57493720D02*
X119365440Y-57493720D01*
G75*
G02*
X119565440Y-57693720I0J-200000D01*
G01*
X119565440Y-58093720D01*
G75*
G02*
X119365440Y-58293720I-200000J0D01*
G01*
X118815440Y-58293720D01*
G75*
G02*
X118615440Y-58093720I0J200000D01*
G01*
X118615440Y-57693720D01*
G75*
G02*
X118815440Y-57493720I200000J0D01*
G01*
G37*
G36*
G01*
X118815440Y-55843720D02*
X119365440Y-55843720D01*
G75*
G02*
X119565440Y-56043720I0J-200000D01*
G01*
X119565440Y-56443720D01*
G75*
G02*
X119365440Y-56643720I-200000J0D01*
G01*
X118815440Y-56643720D01*
G75*
G02*
X118615440Y-56443720I0J200000D01*
G01*
X118615440Y-56043720D01*
G75*
G02*
X118815440Y-55843720I200000J0D01*
G01*
G37*
D12*
X133020000Y-126910000D03*
X134620000Y-126910000D03*
X136220000Y-126910000D03*
X133020000Y-122010000D03*
X134620000Y-122010000D03*
X136220000Y-122010000D03*
X122860000Y-126910000D03*
X124460000Y-126910000D03*
X126060000Y-126910000D03*
X122860000Y-122010000D03*
X124460000Y-122010000D03*
X126060000Y-122010000D03*
X112700000Y-126910000D03*
X114300000Y-126910000D03*
X115900000Y-126910000D03*
X112700000Y-122010000D03*
X114300000Y-122010000D03*
X115900000Y-122010000D03*
X143180000Y-126910000D03*
X144780000Y-126910000D03*
X146380000Y-126910000D03*
X143180000Y-122010000D03*
X144780000Y-122010000D03*
X146380000Y-122010000D03*
X102540000Y-126910000D03*
X104140000Y-126910000D03*
X105740000Y-126910000D03*
X102540000Y-122010000D03*
X104140000Y-122010000D03*
X105740000Y-122010000D03*
X153340000Y-126910000D03*
X154940000Y-126910000D03*
X156540000Y-126910000D03*
X153340000Y-122010000D03*
X154940000Y-122010000D03*
X156540000Y-122010000D03*
X163500000Y-126910000D03*
X165100000Y-126910000D03*
X166700000Y-126910000D03*
X163500000Y-122010000D03*
X165100000Y-122010000D03*
X166700000Y-122010000D03*
X173660000Y-126910000D03*
X175260000Y-126910000D03*
X176860000Y-126910000D03*
X173660000Y-122010000D03*
X175260000Y-122010000D03*
X176860000Y-122010000D03*
D13*
X160421320Y-130388360D03*
X119527320Y-130388360D03*
X160274000Y-47498000D03*
X119380000Y-47244000D03*
D14*
X102616000Y-130302000D03*
X105156000Y-130302000D03*
X107696000Y-130302000D03*
D15*
X110236000Y-130302000D03*
D14*
X110236000Y-47498000D03*
X107696000Y-47498000D03*
X105156000Y-47498000D03*
D15*
X102616000Y-47498000D03*
D12*
X173660000Y-116750000D03*
X175260000Y-116750000D03*
X176860000Y-116750000D03*
X173660000Y-111850000D03*
X175260000Y-111850000D03*
X176860000Y-111850000D03*
X163500000Y-116750000D03*
X165100000Y-116750000D03*
X166700000Y-116750000D03*
X163500000Y-111850000D03*
X165100000Y-111850000D03*
X166700000Y-111850000D03*
X153340000Y-116750000D03*
X154940000Y-116750000D03*
X156540000Y-116750000D03*
X153340000Y-111850000D03*
X154940000Y-111850000D03*
X156540000Y-111850000D03*
X143180000Y-116750000D03*
X144780000Y-116750000D03*
X146380000Y-116750000D03*
X143180000Y-111850000D03*
X144780000Y-111850000D03*
X146380000Y-111850000D03*
X133020000Y-116750000D03*
X134620000Y-116750000D03*
X136220000Y-116750000D03*
X133020000Y-111850000D03*
X134620000Y-111850000D03*
X136220000Y-111850000D03*
X122860000Y-116750000D03*
X124460000Y-116750000D03*
X126060000Y-116750000D03*
X122860000Y-111850000D03*
X124460000Y-111850000D03*
X126060000Y-111850000D03*
X112700000Y-116750000D03*
X114300000Y-116750000D03*
X115900000Y-116750000D03*
X112700000Y-111850000D03*
X114300000Y-111850000D03*
X115900000Y-111850000D03*
X102540000Y-116750000D03*
X104140000Y-116750000D03*
X105740000Y-116750000D03*
X102540000Y-111850000D03*
X104140000Y-111850000D03*
X105740000Y-111850000D03*
X105740000Y-101690000D03*
X104140000Y-101690000D03*
X102540000Y-101690000D03*
X105740000Y-106590000D03*
X104140000Y-106590000D03*
X102540000Y-106590000D03*
X115900000Y-101690000D03*
X114300000Y-101690000D03*
X112700000Y-101690000D03*
X115900000Y-106590000D03*
X114300000Y-106590000D03*
X112700000Y-106590000D03*
X126060000Y-101690000D03*
X124460000Y-101690000D03*
X122860000Y-101690000D03*
X126060000Y-106590000D03*
X124460000Y-106590000D03*
X122860000Y-106590000D03*
X136220000Y-101690000D03*
X134620000Y-101690000D03*
X133020000Y-101690000D03*
X136220000Y-106590000D03*
X134620000Y-106590000D03*
X133020000Y-106590000D03*
X146380000Y-101690000D03*
X144780000Y-101690000D03*
X143180000Y-101690000D03*
X146380000Y-106590000D03*
X144780000Y-106590000D03*
X143180000Y-106590000D03*
X156540000Y-101690000D03*
X154940000Y-101690000D03*
X153340000Y-101690000D03*
X156540000Y-106590000D03*
X154940000Y-106590000D03*
X153340000Y-106590000D03*
X166700000Y-101780000D03*
X165100000Y-101780000D03*
X163500000Y-101780000D03*
X166700000Y-106680000D03*
X165100000Y-106680000D03*
X163500000Y-106680000D03*
X176860000Y-101690000D03*
X175260000Y-101690000D03*
X173660000Y-101690000D03*
X176860000Y-106590000D03*
X175260000Y-106590000D03*
X173660000Y-106590000D03*
X173660000Y-96430000D03*
X175260000Y-96430000D03*
X176860000Y-96430000D03*
X173660000Y-91530000D03*
X175260000Y-91530000D03*
X176860000Y-91530000D03*
X163500000Y-96430000D03*
X165100000Y-96430000D03*
X166700000Y-96430000D03*
X163500000Y-91530000D03*
X165100000Y-91530000D03*
X166700000Y-91530000D03*
X153340000Y-96430000D03*
X154940000Y-96430000D03*
X156540000Y-96430000D03*
X153340000Y-91530000D03*
X154940000Y-91530000D03*
X156540000Y-91530000D03*
X143180000Y-96430000D03*
X144780000Y-96430000D03*
X146380000Y-96430000D03*
X143180000Y-91530000D03*
X144780000Y-91530000D03*
X146380000Y-91530000D03*
X133020000Y-96430000D03*
X134620000Y-96430000D03*
X136220000Y-96430000D03*
X133020000Y-91530000D03*
X134620000Y-91530000D03*
X136220000Y-91530000D03*
X122860000Y-96430000D03*
X124460000Y-96430000D03*
X126060000Y-96430000D03*
X122860000Y-91530000D03*
X124460000Y-91530000D03*
X126060000Y-91530000D03*
X112700000Y-96430000D03*
X114300000Y-96430000D03*
X115900000Y-96430000D03*
X112700000Y-91530000D03*
X114300000Y-91530000D03*
X115900000Y-91530000D03*
X102540000Y-96430000D03*
X104140000Y-96430000D03*
X105740000Y-96430000D03*
X102540000Y-91530000D03*
X104140000Y-91530000D03*
X105740000Y-91530000D03*
X105740000Y-81370000D03*
X104140000Y-81370000D03*
X102540000Y-81370000D03*
X105740000Y-86270000D03*
X104140000Y-86270000D03*
X102540000Y-86270000D03*
X115900000Y-81370000D03*
X114300000Y-81370000D03*
X112700000Y-81370000D03*
X115900000Y-86270000D03*
X114300000Y-86270000D03*
X112700000Y-86270000D03*
X126060000Y-81370000D03*
X124460000Y-81370000D03*
X122860000Y-81370000D03*
X126060000Y-86270000D03*
X124460000Y-86270000D03*
X122860000Y-86270000D03*
X136220000Y-81370000D03*
X134620000Y-81370000D03*
X133020000Y-81370000D03*
X136220000Y-86270000D03*
X134620000Y-86270000D03*
X133020000Y-86270000D03*
X146380000Y-81370000D03*
X144780000Y-81370000D03*
X143180000Y-81370000D03*
X146380000Y-86270000D03*
X144780000Y-86270000D03*
X143180000Y-86270000D03*
X156540000Y-81370000D03*
X154940000Y-81370000D03*
X153340000Y-81370000D03*
X156540000Y-86270000D03*
X154940000Y-86270000D03*
X153340000Y-86270000D03*
X166700000Y-81370000D03*
X165100000Y-81370000D03*
X163500000Y-81370000D03*
X166700000Y-86270000D03*
X165100000Y-86270000D03*
X163500000Y-86270000D03*
X176860000Y-81370000D03*
X175260000Y-81370000D03*
X173660000Y-81370000D03*
X176860000Y-86270000D03*
X175260000Y-86270000D03*
X173660000Y-86270000D03*
X173660000Y-76110000D03*
X175260000Y-76110000D03*
X176860000Y-76110000D03*
X173660000Y-71210000D03*
X175260000Y-71210000D03*
X176860000Y-71210000D03*
X163500000Y-76110000D03*
X165100000Y-76110000D03*
X166700000Y-76110000D03*
X163500000Y-71210000D03*
X165100000Y-71210000D03*
X166700000Y-71210000D03*
X153340000Y-76110000D03*
X154940000Y-76110000D03*
X156540000Y-76110000D03*
X153340000Y-71210000D03*
X154940000Y-71210000D03*
X156540000Y-71210000D03*
X143180000Y-76110000D03*
X144780000Y-76110000D03*
X146380000Y-76110000D03*
X143180000Y-71210000D03*
X144780000Y-71210000D03*
X146380000Y-71210000D03*
X133020000Y-76110000D03*
X134620000Y-76110000D03*
X136220000Y-76110000D03*
X133020000Y-71210000D03*
X134620000Y-71210000D03*
X136220000Y-71210000D03*
X122860000Y-76110000D03*
X124460000Y-76110000D03*
X126060000Y-76110000D03*
X122860000Y-71210000D03*
X124460000Y-71210000D03*
X126060000Y-71210000D03*
X112700000Y-76110000D03*
X114300000Y-76110000D03*
X115900000Y-76110000D03*
X112700000Y-71210000D03*
X114300000Y-71210000D03*
X115900000Y-71210000D03*
X102540000Y-76110000D03*
X104140000Y-76110000D03*
X105740000Y-76110000D03*
X102540000Y-71210000D03*
X104140000Y-71210000D03*
X105740000Y-71210000D03*
X105740000Y-61050000D03*
X104140000Y-61050000D03*
X102540000Y-61050000D03*
X105740000Y-65950000D03*
X104140000Y-65950000D03*
X102540000Y-65950000D03*
X115900000Y-61050000D03*
X114300000Y-61050000D03*
X112700000Y-61050000D03*
X115900000Y-65950000D03*
X114300000Y-65950000D03*
X112700000Y-65950000D03*
X126314000Y-61050000D03*
X124714000Y-61050000D03*
X123114000Y-61050000D03*
X126314000Y-65950000D03*
X124714000Y-65950000D03*
X123114000Y-65950000D03*
X136220000Y-61050000D03*
X134620000Y-61050000D03*
X133020000Y-61050000D03*
X136220000Y-65950000D03*
X134620000Y-65950000D03*
X133020000Y-65950000D03*
X146380000Y-61050000D03*
X144780000Y-61050000D03*
X143180000Y-61050000D03*
X146380000Y-65950000D03*
X144780000Y-65950000D03*
X143180000Y-65950000D03*
X156540000Y-61050000D03*
X154940000Y-61050000D03*
X153340000Y-61050000D03*
X156540000Y-65950000D03*
X154940000Y-65950000D03*
X153340000Y-65950000D03*
X166700000Y-61050000D03*
X165100000Y-61050000D03*
X163500000Y-61050000D03*
X166700000Y-65950000D03*
X165100000Y-65950000D03*
X163500000Y-65950000D03*
X176860000Y-61050000D03*
X175260000Y-61050000D03*
X173660000Y-61050000D03*
X176860000Y-65950000D03*
X175260000Y-65950000D03*
X173660000Y-65950000D03*
X173660000Y-55790000D03*
X175260000Y-55790000D03*
X176860000Y-55790000D03*
X173660000Y-50890000D03*
X175260000Y-50890000D03*
X176860000Y-50890000D03*
X163500000Y-55790000D03*
X165100000Y-55790000D03*
X166700000Y-55790000D03*
X163500000Y-50890000D03*
X165100000Y-50890000D03*
X166700000Y-50890000D03*
X153340000Y-55790000D03*
X154940000Y-55790000D03*
X156540000Y-55790000D03*
X153340000Y-50890000D03*
X154940000Y-50890000D03*
X156540000Y-50890000D03*
X143180000Y-55790000D03*
X144780000Y-55790000D03*
X146380000Y-55790000D03*
X143180000Y-50890000D03*
X144780000Y-50890000D03*
X146380000Y-50890000D03*
X102540000Y-55790000D03*
X104140000Y-55790000D03*
X105740000Y-55790000D03*
X102540000Y-50890000D03*
X104140000Y-50890000D03*
X105740000Y-50890000D03*
X133020000Y-55790000D03*
X134620000Y-55790000D03*
X136220000Y-55790000D03*
X133020000Y-50890000D03*
X134620000Y-50890000D03*
X136220000Y-50890000D03*
X123114000Y-55790000D03*
X124714000Y-55790000D03*
X126314000Y-55790000D03*
X123114000Y-50890000D03*
X124714000Y-50890000D03*
X126314000Y-50890000D03*
X112700000Y-55790000D03*
X114300000Y-55790000D03*
X115900000Y-55790000D03*
X112700000Y-50890000D03*
X114300000Y-50890000D03*
X115900000Y-50890000D03*
M02*
